<?xml version="1.0" encoding="utf-8"?>
<!-- Generator: Adobe Illustrator 24.3.0, SVG Export Plug-In . SVG Version: 6.00 Build 0)  -->
<svg version="1.1" id="Layer_1" xmlns="http://www.w3.org/2000/svg" xmlns:xlink="http://www.w3.org/1999/xlink" x="0px" y="0px"
	 viewBox="0 0 512 512" style="enable-background:new 0 0 512 512;" xml:space="preserve">
<style type="text/css">
	.st0{fill:#2C2726;}
	.st1{fill:#FF5C2D;}
</style>
<g id="_x23_000000ff">
	<path class="st0" d="M43,33c16.6-9.1,36.3-12.6,55-9.2c33.1,5.7,60.5,33.7,66.2,66.7c111,0.1,221.9,0,332.9,0.1
		c7.4-0.1,13.8,5.9,14.9,13.2v372.5c-1,7.3-7.5,13.4-14.9,13.3c-137.4,0.1-274.8,0-412.2,0c-17.7,0.2-35.6-5-50.1-15.3
		C14.2,459.8,1.2,435.5,0,410.4V102.7C0.4,93.9,1.9,85.2,4.9,77C11.5,58.2,25.5,42.4,43,33 M44.3,69.3C35.1,79.1,29.9,92.5,30,106
		c0,79,0,158,0,237.1c15-12.4,34.4-19.4,54-19c18.7,0.1,37.2,7.1,51.6,19c0-79,0-158,0-237c0.1-11.9-3.9-23.9-11.3-33.2
		c-9.3-12-24-19.7-39.2-20.2C69.9,51.8,54.6,58.2,44.3,69.3 M165.6,120.5c0,95.5,0,191,0,286.5c0.1,19-7,37.8-19,52.5
		c111.8,0,223.6,0,335.4,0c0-113,0-226,0-339C376.5,120.5,271,120.5,165.6,120.5 M73.5,354.8c-13.8,2.4-26.5,10.7-34.4,22.3
		c-7.5,10.9-10.6,24.7-8.5,37.7c2,13.7,9.9,26.4,21.1,34.5c11.2,8.2,25.7,11.7,39.4,9.5c14.7-2.2,28.1-11.1,36-23.6
		c7.1-10.9,9.8-24.5,7.6-37.3c-2.4-14.8-11.6-28.3-24.5-36.1C99.4,355,86.1,352.6,73.5,354.8z"/>
	<path class="st0" d="M207.2,151.2c7.6-2.1,16.1,3,18,10.5c2.4,7.5-2.6,16.3-10.2,18.4c-7.6,2.6-16.6-2.5-18.6-10.2
		C193.9,162.1,199.2,153,207.2,151.2z"/>
	<path class="st1" d="M281.4,151.6c7.4-2.8,16.4,1.7,18.8,9.2c3,7.5-1.6,16.7-9.2,19.2c-7.6,2.9-16.9-1.9-19.2-9.6
		C269.2,162.8,273.9,153.9,281.4,151.6z"/>
	<path class="st0" d="M356.4,151.6c7.6-3,16.9,1.7,19.2,9.4c2.8,7.6-2,16.7-9.7,19c-7.7,2.8-16.8-2.3-18.9-10.1
		C344.7,162.6,349.2,154.1,356.4,151.6z"/>
	<path class="st0" d="M433.2,151.2c7.6-2.1,16.1,3,18,10.6c2.3,7.5-2.5,16.2-10.1,18.3c-7.6,2.6-16.5-2.4-18.7-10.1
		C419.7,162.2,425.1,153,433.2,151.2z"/>
	<path class="st0" d="M205.4,234.6c7.6-3.3,17.3,1.4,19.6,9.3c2.8,7.7-2.2,17-10.1,19c-7.5,2.4-16.2-2.4-18.4-9.9
		C194,245.8,198.3,237.2,205.4,234.6z"/>
	<path class="st1" d="M282.2,234.1c7.3-2.2,15.8,2.3,18.1,9.6c2.9,7.5-1.7,16.7-9.4,19.1c-7.6,2.9-16.8-2-19-9.7
		C269.1,245.3,274.3,236.1,282.2,234.1z"/>
	<path class="st1" d="M356.3,234.5c7.6-3.1,17.1,1.6,19.4,9.5c2.7,7.6-2.1,16.6-9.8,18.8c-7.5,2.6-16.5-2.2-18.7-9.8
		C344.5,245.8,349,237.1,356.3,234.5z"/>
	<path class="st0" d="M431.4,234.6c7.7-3.2,17.3,1.5,19.6,9.4c2.8,7.7-2.2,16.8-10,18.9c-7.6,2.5-16.4-2.4-18.6-10
		C420,245.7,424.3,237.2,431.4,234.6z"/>
	<path class="st0" d="M205.4,317.5c7.4-3.2,16.8,1.1,19.5,8.7c3.2,7.6-1.5,17.1-9.3,19.5c-7.5,2.8-16.6-1.9-18.9-9.5
		C193.9,328.9,198.2,320.1,205.4,317.5z"/>
	<path class="st1" d="M281.2,317.3c7.6-2.9,16.9,1.8,19.1,9.5c2.8,7.8-2.3,17.1-10.3,19c-7.6,2.4-16.4-2.7-18.4-10.4
		C269.4,328.1,274,319.6,281.2,317.3z"/>
	<path class="st1" d="M355.5,317.7c7.6-3.6,17.4,0.7,20,8.6c3.1,7.7-1.8,17.2-9.7,19.4c-7.6,2.6-16.5-2.3-18.6-9.9
		C344.7,328.8,348.7,320.5,355.5,317.7z"/>
	<path class="st0" d="M431.3,317.5c7.7-3.3,17.4,1.5,19.7,9.5c2.7,7.7-2.3,16.9-10.2,18.9c-7.4,2.4-16-2.3-18.3-9.7
		C419.8,328.9,424.1,320.1,431.3,317.5z"/>
	<path class="st1" d="M79.2,392.2c7.6-2.1,16.1,2.9,18.1,10.5c2.3,7.5-2.6,16.2-10.1,18.3c-7.6,2.6-16.6-2.4-18.7-10.1
		C65.8,403.1,71.2,394,79.2,392.2z"/>
	<path class="st1" d="M207.5,399.7c7.4-1.9,15.6,3,17.7,10.3c2.6,7.7-2.4,16.7-10.2,18.7c-7.6,2.5-16.5-2.6-18.5-10.2
		C193.8,410.5,199.4,401.3,207.5,399.7z"/>
	<path class="st1" d="M283.5,399.5c7.2-1.5,15,3.3,17,10.4c2.6,7.6-2.3,16.6-10,18.7c-7.9,2.7-17.1-2.7-18.9-10.7
		C269.3,409.8,275.2,400.9,283.5,399.5z"/>
	<path class="st0" d="M358.5,399.6c7.4-1.7,15.4,3.2,17.3,10.5c2.5,7.6-2.5,16.6-10.3,18.6c-7.8,2.5-16.8-2.8-18.6-10.7
		C344.6,410,350.4,401.1,358.5,399.6z"/>
	<path class="st0" d="M433.5,399.6c7.4-1.9,15.6,3,17.6,10.4c2.5,7.6-2.5,16.6-10.2,18.6c-7.6,2.5-16.4-2.5-18.5-10.2
		C419.7,410.5,425.3,401.3,433.5,399.6z"/>
</g>
</svg>
