<?xml version="1.0" encoding="utf-8"?>
<!-- Generator: Adobe Illustrator 24.3.0, SVG Export Plug-In . SVG Version: 6.00 Build 0)  -->
<svg version="1.1" id="Layer_1" xmlns="http://www.w3.org/2000/svg" xmlns:xlink="http://www.w3.org/1999/xlink" x="0px" y="0px"
	 viewBox="0 0 512 512" style="enable-background:new 0 0 512 512;" xml:space="preserve">
<style type="text/css">
	.st0{fill:#2C2726;}
	.st1{fill:#FF5C2D;}
</style>
<g id="_x23_000000ff">
	<path class="st0" d="M186.6,31.6c2.8-5.1,8.7-7.9,14.4-7.6c37,0,74.1,0,111.1,0c5.9,0,11.1,3.9,14,8.8c6.4,10.6,13,21.2,19.4,31.9
		c50.8,10,99.9,28.1,144.6,54.2c4,2.5,8.7,4.5,11.4,8.7c3.1,4.6,3.3,10.9,0.8,15.8c-19,40.7-37.9,81.4-57,122.1
		c-3.3,6.3-11.7,9-18.2,6.3c-3.7-1.4-7.4-3-11.1-4.5c0,54.6,0,109.2,0,163.7c0.3,6-3,11.8-8,14.9c-15.2,9.9-32.4,16.3-49.7,21.4
		c-40,11.2-81.9,13.9-123.2,12.3c-24.2-1.1-48.4-4-71.9-9.8c-20.6-5.2-41.2-12.3-59.2-23.8c-5.1-3.1-8.3-8.9-8-14.9
		c0-54.9,0-109.7,0-164.5c-5,1.8-9.7,4.5-14.9,5.5c-6.2,0.6-12.9-2.7-15.4-8.5c-18.8-40.2-37.6-80.5-56.3-120.7
		c-3.4-7-0.8-15.9,5.6-19.8c46.3-28.7,98.1-48,151.5-58.3C173.1,53.7,179.9,42.7,186.6,31.6 M236.8,56c6.4,6.9,12.8,13.9,19.2,20.8
		c6.4-6.9,12.8-13.9,19.2-20.8C262.4,56,249.6,56,236.8,56 M202.4,66.4c-3,4.5-5.9,9.1-8.8,13.6c8,12.6,16,25.1,24,37.6
		c5.4-5.6,10.7-11.2,16-16.8C223.2,89.3,212.8,77.9,202.4,66.4 M277.6,100.8c5.3,5.6,10.7,11.2,16,16.8c8-12.5,16-25,24-37.6
		c-2.6-4.5-5.3-9.1-8-13.6C298.9,77.9,288.3,89.3,277.6,100.8 M44.8,142.4c14.4,31.2,28.8,62.3,43.2,93.5c2.6-1.3,5.3-2.3,8-3.1
		c0-18.9,0-37.9,0-56.8c-0.1-8.1,6.9-15.5,14.9-15.9c6.5-0.5,12.9,3.5,15.6,9.3c1.9,3.9,1.4,8.4,1.5,12.7c0,80.4,0,160.8,0,241.2
		c12.3,6.6,25.6,11.3,39.1,14.8c28,7.2,57,9.8,85.9,10c26.1,0.1,52.3-1.7,77.9-6.8c18.3-3.8,36.6-9.1,53.1-18
		c0-80.4,0-160.8,0-241.2c0.1-4-0.4-8.1,1.2-11.9c2.4-5.9,8.4-10.3,14.9-10.1c9.3-0.2,17.1,8.9,16,18c0,18,0,36,0,54
		c2.6,1.3,5.2,2.3,8,3.1c14.4-30.9,28.8-61.9,43.2-92.8c-38.3-21.6-80.1-36.8-123.2-45.6c-10.5,16.9-21.1,33.7-31.6,50.6
		c-1.5,2.4-2.9,5-4.9,7.1c-4.7,4.4-11.8,5.9-17.8,3.6c-4.1-1.4-6.9-5-9.7-8.1c-8-8.7-16-17.4-24-26c-8.8,9.6-17.6,19.1-26.4,28.7
		c-3.9,4.2-9.7,7.3-15.6,6.5c-4.8-0.3-9.3-3.3-11.7-7.4c-11.4-18.3-22.8-36.6-34.3-55C124.9,105.6,83.2,120.9,44.8,142.4z"/>
	<path class="st1" d="M253.2,160.2c9.4-2,19.1,6.2,18.8,15.7c0.2,8.5-7.4,16.2-16,16c-8.9,0.2-16.9-8.2-16-17.1
		C240.4,167.8,246.1,161.4,253.2,160.2z"/>
	<path class="st1" d="M301.3,176.2c16.9-0.6,33.9-0.1,50.8-0.2c8.5-0.2,16.1,7.5,15.9,16c0.2,8.5-7.4,16.2-15.9,16
		c-16,0-32.1,0-48.1,0c-8.5,0.2-16.1-7.5-15.9-16C287.9,184.5,293.9,177.5,301.3,176.2z"/>
	<path class="st1" d="M253.2,208.2c9.4-2,19.1,6.1,18.8,15.7c0.3,9.3-8.8,17.4-18,15.9c-9-1-15.8-10.4-13.6-19.2
		C241.6,214.4,246.9,209.3,253.2,208.2z"/>
</g>
</svg>
