<?xml version="1.0" encoding="UTF-8" ?>
<!DOCTYPE svg PUBLIC "-//W3C//DTD SVG 1.1//EN" "http://www.w3.org/Graphics/SVG/1.1/DTD/svg11.dtd">
<svg width="680pt" height="604pt" viewBox="0 0 680 604" version="1.1" xmlns="http://www.w3.org/2000/svg">
<g id="#ddd">
<path fill="#ddd" opacity="1.00" d=" M 59.28 0.00 L 62.80 0.00 C 65.65 1.99 64.80 7.30 60.95 7.15 C 57.19 7.36 55.95 1.85 59.22 0.07 L 59.64 0.01 L 59.28 0.00 Z" />
<path fill="#ddd" opacity="1.00" d=" M 87.76 0.00 L 91.00 0.00 C 94.16 1.95 93.07 7.57 89.01 7.16 C 85.27 7.06 84.54 1.54 87.76 0.00 Z" />
<path fill="#ddd" opacity="1.00" d=" M 116.07 0.00 L 119.41 0.00 C 122.19 1.87 121.71 6.82 118.07 7.15 C 113.93 7.74 112.59 1.81 116.07 0.00 Z" />
<path fill="#ddd" opacity="1.00" d=" M 144.50 0.00 L 147.75 0.00 C 148.99 1.21 150.28 3.13 149.33 4.89 C 148.53 7.50 144.53 7.97 143.05 5.71 C 141.61 3.85 142.54 1.06 144.50 0.00 Z" />
<path fill="#ddd" opacity="1.00" d=" M 172.78 0.00 L 175.98 0.00 C 179.26 1.85 178.07 7.67 174.00 7.14 C 170.29 7.01 169.61 1.57 172.78 0.00 Z" />
<path fill="#ddd" opacity="1.00" d=" M 201.04 0.00 L 204.50 0.00 C 207.23 1.92 206.71 6.89 203.05 7.15 C 198.95 7.70 197.73 1.84 201.04 0.00 Z" />
<path fill="#ddd" opacity="1.00" d=" M 229.52 0.00 L 232.75 0.00 C 233.80 1.08 234.97 2.41 234.61 4.05 C 234.41 6.85 230.66 8.15 228.64 6.32 C 226.55 4.63 227.28 1.19 229.52 0.00 Z" />
<path fill="#ddd" opacity="1.00" d=" M 257.80 0.00 L 261.01 0.00 C 263.90 1.72 263.52 6.71 259.90 7.13 C 255.78 7.91 254.22 1.81 257.80 0.00 Z" />
<path fill="#ddd" opacity="1.00" d=" M 286.02 0.00 L 289.53 0.00 C 292.34 1.93 291.72 6.96 288.01 7.18 C 283.93 7.55 282.83 1.95 286.02 0.00 Z" />
<path fill="#ddd" opacity="1.00" d=" M 314.51 0.00 L 317.85 0.00 C 320.85 1.96 319.88 7.40 315.96 7.16 C 312.12 7.25 311.25 1.60 314.51 0.00 Z" />
<path fill="#ddd" opacity="1.00" d=" M 342.83 0.00 L 346.00 0.00 C 348.93 1.67 348.58 6.68 344.96 7.13 C 340.80 7.90 339.27 1.84 342.83 0.00 Z" />
<path fill="#ddd" opacity="1.00" d=" M 371.02 0.00 L 374.51 0.00 C 377.43 1.88 376.74 7.04 372.98 7.18 C 368.95 7.51 367.91 1.96 371.02 0.00 Z" />
<path fill="#ddd" opacity="1.00" d=" M 399.65 0.00 L 402.83 0.00 C 405.90 1.92 404.99 7.37 401.01 7.18 C 397.12 7.25 396.23 1.51 399.65 0.00 Z" />
<path fill="#ddd" opacity="1.00" d=" M 427.90 0.00 L 431.17 0.00 C 434.45 1.97 433.05 7.82 428.95 7.13 C 425.34 6.82 424.84 1.57 427.90 0.00 Z" />
<path fill="#ddd" opacity="1.00" d=" M 456.11 0.00 L 459.65 0.00 C 462.41 1.98 461.77 7.01 458.03 7.17 C 454.01 7.55 452.91 1.86 456.11 0.00 Z" />
<path fill="#ddd" opacity="1.00" d=" M 484.69 0.00 L 487.84 0.00 C 490.97 1.89 489.99 7.41 486.02 7.18 C 482.14 7.20 481.28 1.49 484.69 0.00 Z" />
<path fill="#ddd" opacity="1.00" d=" M 513.05 0.00 L 516.21 0.00 C 517.19 1.11 518.45 2.36 518.12 4.01 C 517.87 6.89 513.84 8.27 511.92 6.12 C 509.98 4.36 510.91 1.14 513.05 0.00 Z" />
<path fill="#ddd" opacity="1.00" d=" M 541.22 0.00 L 544.61 0.00 C 547.56 1.87 546.74 7.18 542.96 7.16 C 538.98 7.47 537.96 1.75 541.22 0.00 Z" />
<path fill="#ddd" opacity="1.00" d=" M 569.68 0.00 L 572.94 0.00 C 575.97 1.97 575.00 7.50 570.99 7.15 C 567.20 7.16 566.38 1.51 569.68 0.00 Z" />
<path fill="#ddd" opacity="1.00" d=" M 597.89 0.00 L 601.21 0.00 C 604.57 1.96 603.15 7.80 599.03 7.14 C 595.39 6.74 594.96 1.75 597.89 0.00 Z" />
<path fill="#ddd" opacity="1.00" d=" M 626.32 0.00 L 629.44 0.00 C 629.48 0.00 629.57 0.01 629.61 0.02 C 632.82 1.83 631.68 7.20 627.96 7.19 C 624.01 7.42 622.95 1.66 626.32 0.00 Z" />
<path fill="#ddd" opacity="1.00" d=" M 29.07 4.92 C 31.33 3.81 33.71 2.95 36.11 2.18 C 37.71 6.60 30.88 9.23 29.07 4.92 Z" />
<path fill="#ddd" opacity="1.00" d=" M 45.42 28.53 C 47.71 27.45 50.63 29.48 50.41 32.01 C 50.45 34.58 47.35 36.40 45.12 35.13 C 42.34 33.95 42.56 29.45 45.42 28.53 Z" />
<path fill="#ddd" opacity="1.00" d=" M 73.47 28.64 C 75.77 27.33 78.89 29.34 78.78 31.94 C 78.83 34.65 75.48 36.52 73.21 35.01 C 70.82 33.68 70.96 29.75 73.47 28.64 Z" />
<path fill="#ddd" opacity="1.00" d=" M 102.34 28.45 C 104.55 27.53 107.42 29.64 107.07 32.06 C 107.10 34.85 103.47 36.59 101.29 34.83 C 98.96 33.28 99.57 29.12 102.34 28.45 Z" />
<path fill="#ddd" opacity="1.00" d=" M 130.43 28.53 C 132.71 27.44 135.75 29.49 135.40 32.06 C 135.50 34.64 132.28 36.43 130.09 35.11 C 127.43 33.86 127.63 29.47 130.43 28.53 Z" />
<path fill="#ddd" opacity="1.00" d=" M 158.46 28.69 C 161.10 27.03 164.73 30.01 163.61 32.92 C 163.08 35.54 159.20 36.48 157.54 34.36 C 155.83 32.80 156.37 29.65 158.46 28.69 Z" />
<path fill="#ddd" opacity="1.00" d=" M 187.39 28.44 C 190.00 27.39 193.02 30.35 191.96 32.99 C 191.31 35.76 187.12 36.46 185.58 34.06 C 184.04 32.19 185.09 29.08 187.39 28.44 Z" />
<path fill="#ddd" opacity="1.00" d=" M 215.39 28.54 C 218.10 27.22 221.39 30.18 220.32 33.02 C 219.53 35.78 215.43 36.45 213.89 34.00 C 212.55 32.23 213.31 29.35 215.39 28.54 Z" />
<path fill="#ddd" opacity="1.00" d=" M 244.32 28.36 C 246.51 27.74 249.12 29.66 248.78 32.03 C 248.97 35.15 244.51 36.76 242.55 34.40 C 240.64 32.55 241.67 28.85 244.32 28.36 Z" />
<path fill="#ddd" opacity="1.00" d=" M 300.41 28.55 C 302.71 27.44 305.68 29.36 305.53 31.93 C 305.65 34.58 302.35 36.51 300.13 35.05 C 297.49 33.84 297.74 29.60 300.41 28.55 Z" />
<path fill="#ddd" opacity="1.00" d=" M 328.48 28.69 C 330.78 27.28 334.06 29.29 333.87 31.97 C 333.98 34.71 330.44 36.59 328.24 34.92 C 325.93 33.64 326.13 29.81 328.48 28.69 Z" />
<path fill="#ddd" opacity="1.00" d=" M 385.47 28.56 C 387.72 27.41 390.85 29.41 390.52 31.99 C 390.71 34.69 387.21 36.54 385.06 34.99 C 382.56 33.70 382.80 29.53 385.47 28.56 Z" />
<path fill="#ddd" opacity="1.00" d=" M 413.56 28.70 C 416.21 27.02 419.85 30.02 418.74 32.95 C 418.11 35.55 414.35 36.44 412.62 34.39 C 410.96 32.79 411.49 29.69 413.56 28.70 Z" />
<path fill="#ddd" opacity="1.00" d=" M 470.46 28.56 C 472.76 27.40 475.87 29.43 475.59 32.03 C 475.65 34.68 472.23 36.55 470.06 34.97 C 467.57 33.69 467.87 29.57 470.46 28.56 Z" />
<path fill="#ddd" opacity="1.00" d=" M 555.41 28.63 C 557.73 27.33 560.88 29.40 560.65 32.05 C 560.66 34.72 557.28 36.56 555.09 34.96 C 552.64 33.66 552.88 29.70 555.41 28.63 Z" />
<path fill="#ddd" opacity="1.00" d=" M 583.57 28.69 C 585.55 27.53 588.31 28.73 588.88 30.94 C 589.77 33.65 586.64 36.48 584.05 35.28 C 581.21 34.38 580.92 30.01 583.57 28.69 Z" />
<path fill="#ddd" opacity="1.00" d=" M 640.49 28.63 C 642.77 27.34 645.98 29.41 645.66 32.06 C 645.73 34.73 642.34 36.47 640.17 35.01 C 637.75 33.71 637.88 29.64 640.49 28.63 Z" />
<path fill="#ddd" opacity="1.00" d=" M 16.24 28.93 C 18.52 27.14 22.32 29.05 22.01 31.97 C 22.21 34.80 18.46 36.60 16.29 34.84 C 14.33 33.50 14.34 30.31 16.24 28.93 Z" />
<path fill="#ddd" opacity="1.00" d=" M 271.22 29.03 C 274.89 25.91 279.60 32.04 275.77 34.80 C 272.16 37.77 267.58 31.82 271.22 29.03 Z" />
<path fill="#ddd" opacity="1.00" d=" M 356.10 29.14 C 358.06 27.34 361.62 28.42 362.12 31.06 C 362.90 33.83 359.68 36.55 357.10 35.20 C 354.66 34.30 354.32 30.85 356.10 29.14 Z" />
<path fill="#ddd" opacity="1.00" d=" M 441.30 29.07 C 443.23 27.35 446.61 28.49 447.15 30.99 C 447.91 33.40 445.50 36.01 443.04 35.48 C 440.01 35.19 438.91 30.87 441.30 29.07 Z" />
<path fill="#ddd" opacity="1.00" d=" M 498.19 28.92 C 500.46 27.11 504.22 29.11 503.91 32.01 C 504.05 34.77 500.44 36.56 498.26 34.92 C 496.22 33.61 496.16 30.26 498.19 28.92 Z" />
<path fill="#ddd" opacity="1.00" d=" M 526.29 29.12 C 528.17 27.35 531.69 28.43 532.17 31.00 C 532.95 33.41 530.54 36.03 528.08 35.47 C 525.09 35.18 523.96 30.93 526.29 29.12 Z" />
<path fill="#ddd" opacity="1.00" d=" M 610.78 29.68 C 612.66 26.83 617.74 28.60 617.29 32.03 C 617.40 34.55 614.28 36.41 612.12 35.14 C 610.04 34.31 609.46 31.39 610.78 29.68 Z" />
<path fill="#ddd" opacity="1.00" d=" M 668.17 28.97 C 670.17 27.37 673.46 28.55 673.96 31.07 C 674.68 33.77 671.68 36.42 669.10 35.29 C 666.45 34.43 665.96 30.60 668.17 28.97 Z" />
<path fill="#ddd" opacity="1.00" d=" M 0.44 59.40 C 1.53 55.47 7.71 55.89 7.90 59.99 C 8.29 64.36 1.58 65.26 0.48 61.06 C 0.44 60.51 0.42 59.96 0.44 59.40 Z" />
<path fill="#ddd" opacity="1.00" d=" M 30.34 57.36 C 32.19 55.82 35.28 56.73 36.02 59.00 C 37.26 61.83 33.79 65.06 31.07 63.52 C 28.62 62.58 28.26 58.90 30.34 57.36 Z" />
<path fill="#ddd" opacity="1.00" d=" M 59.13 57.04 C 61.34 55.70 64.71 57.44 64.52 60.11 C 64.83 62.44 62.22 64.48 60.03 63.74 C 56.89 63.21 56.40 58.45 59.13 57.04 Z" />
<path fill="#ddd" opacity="1.00" d=" M 87.30 57.17 C 89.83 55.36 93.69 57.96 92.84 60.99 C 92.41 63.87 88.35 64.86 86.55 62.66 C 85.07 61.06 85.52 58.33 87.30 57.17 Z" />
<path fill="#ddd" opacity="1.00" d=" M 115.32 57.40 C 117.75 55.18 122.10 57.77 121.17 60.95 C 120.87 63.72 116.96 64.87 115.13 62.85 C 113.53 61.45 113.68 58.69 115.32 57.40 Z" />
<path fill="#ddd" opacity="1.00" d=" M 144.17 57.08 C 146.35 55.69 149.56 57.40 149.62 59.98 C 150.02 62.94 146.09 65.08 143.83 63.15 C 141.70 61.80 141.93 58.21 144.17 57.08 Z" />
<path fill="#ddd" opacity="1.00" d=" M 172.29 57.21 C 174.43 55.61 177.91 57.28 177.92 59.97 C 178.29 62.50 175.36 64.72 173.04 63.61 C 170.33 62.81 169.87 58.66 172.29 57.21 Z" />
<path fill="#ddd" opacity="1.00" d=" M 200.28 57.47 C 202.37 55.52 206.23 57.04 206.28 59.94 C 206.70 62.62 203.49 64.83 201.14 63.51 C 198.75 62.63 198.37 59.04 200.28 57.47 Z" />
<path fill="#ddd" opacity="1.00" d=" M 229.19 57.07 C 231.40 55.67 234.65 57.42 234.65 60.04 C 234.97 62.74 231.72 64.83 229.39 63.47 C 226.83 62.36 226.72 58.36 229.19 57.07 Z" />
<path fill="#ddd" opacity="1.00" d=" M 257.26 57.26 C 259.41 55.57 262.94 57.25 263.00 59.97 C 263.29 62.46 260.44 64.70 258.11 63.62 C 255.40 62.84 254.91 58.74 257.26 57.26 Z" />
<path fill="#ddd" opacity="1.00" d=" M 285.37 57.45 C 288.87 54.20 293.81 60.25 290.02 63.06 C 286.51 66.22 281.68 60.26 285.37 57.45 Z" />
<path fill="#ddd" opacity="1.00" d=" M 314.26 57.05 C 316.77 55.47 320.39 58.00 319.60 60.92 C 319.34 63.51 315.85 64.78 313.90 63.15 C 311.78 61.78 312.03 58.19 314.26 57.05 Z" />
<path fill="#ddd" opacity="1.00" d=" M 341.79 57.75 C 343.67 55.37 348.02 56.94 348.01 59.95 C 348.39 62.51 345.39 64.75 343.07 63.59 C 340.71 62.83 339.97 59.44 341.79 57.75 Z" />
<path fill="#ddd" opacity="1.00" d=" M 370.33 57.48 C 372.46 55.50 376.32 57.05 376.40 59.98 C 376.77 62.93 372.90 65.10 370.63 63.17 C 368.69 61.92 368.63 58.95 370.33 57.48 Z" />
<path fill="#ddd" opacity="1.00" d=" M 399.24 57.12 C 401.69 55.42 405.34 57.93 404.68 60.81 C 404.41 63.28 401.31 64.70 399.23 63.38 C 396.88 62.14 396.90 58.33 399.24 57.12 Z" />
<path fill="#ddd" opacity="1.00" d=" M 427.31 57.26 C 429.43 55.59 433.10 57.23 433.01 59.98 C 433.49 62.65 430.21 64.75 427.90 63.53 C 425.39 62.53 425.15 58.75 427.31 57.26 Z" />
<path fill="#ddd" opacity="1.00" d=" M 455.43 57.49 C 457.18 55.75 460.54 56.68 461.24 59.04 C 462.28 61.64 459.50 64.70 456.84 63.72 C 454.09 63.21 453.23 59.16 455.43 57.49 Z" />
<path fill="#ddd" opacity="1.00" d=" M 484.20 57.14 C 486.70 55.37 490.40 57.92 489.73 60.86 C 489.41 63.49 485.92 64.83 483.92 63.12 C 481.92 61.71 482.07 58.36 484.20 57.14 Z" />
<path fill="#ddd" opacity="1.00" d=" M 512.24 57.35 C 514.34 55.55 518.09 57.16 518.10 59.96 C 518.49 62.67 515.19 64.82 512.85 63.48 C 510.46 62.45 510.18 58.85 512.24 57.35 Z" />
<path fill="#ddd" opacity="1.00" d=" M 540.33 57.56 C 542.40 55.45 546.44 57.04 546.43 60.01 C 546.78 62.39 544.11 64.53 541.86 63.73 C 539.17 63.18 538.31 59.32 540.33 57.56 Z" />
<path fill="#ddd" opacity="1.00" d=" M 569.29 57.10 C 571.47 55.67 574.83 57.35 574.78 60.02 C 575.14 62.50 572.26 64.67 569.99 63.64 C 567.11 62.90 566.71 58.49 569.29 57.10 Z" />
<path fill="#ddd" opacity="1.00" d=" M 597.33 57.31 C 599.23 55.81 602.36 56.79 602.98 59.14 C 604.01 61.75 601.14 64.66 598.54 63.72 C 595.68 63.09 594.97 58.97 597.33 57.31 Z" />
<path fill="#ddd" opacity="1.00" d=" M 625.38 57.54 C 627.45 55.44 631.49 57.04 631.52 60.01 C 631.84 62.88 628.12 65.04 625.84 63.24 C 623.89 62.02 623.73 59.07 625.38 57.54 Z" />
<path fill="#ddd" opacity="1.00" d=" M 654.24 57.20 C 656.37 55.58 659.82 57.34 659.84 59.99 C 660.17 62.49 657.26 64.70 654.97 63.62 C 652.20 62.89 651.74 58.55 654.24 57.20 Z" />
<path fill="#ddd" opacity="1.00" d=" M 17.13 85.16 C 19.58 84.18 22.50 86.39 22.01 89.03 C 21.88 91.91 17.81 93.29 15.89 91.19 C 13.96 89.50 14.75 86.01 17.13 85.16 Z" />
<path fill="#ddd" opacity="1.00" d=" M 45.17 85.32 C 47.60 83.99 50.85 86.24 50.40 89.00 C 50.21 91.76 46.47 93.26 44.43 91.37 C 42.45 89.82 42.81 86.32 45.17 85.32 Z" />
<path fill="#ddd" opacity="1.00" d=" M 73.38 85.39 C 76.02 83.73 79.69 86.68 78.60 89.61 C 78.02 92.12 74.53 93.07 72.72 91.30 C 70.79 89.81 71.19 86.41 73.38 85.39 Z" />
<path fill="#ddd" opacity="1.00" d=" M 102.10 85.19 C 104.57 84.13 107.57 86.40 107.07 89.07 C 106.86 91.71 103.40 93.18 101.33 91.52 C 99.02 90.04 99.52 86.11 102.10 85.19 Z" />
<path fill="#ddd" opacity="1.00" d=" M 130.27 85.30 C 132.68 84.00 135.94 86.30 135.39 89.03 C 135.29 91.83 131.51 93.21 129.48 91.41 C 127.50 89.83 127.87 86.26 130.27 85.30 Z" />
<path fill="#ddd" opacity="1.00" d=" M 158.30 85.48 C 160.36 84.05 163.66 85.64 163.75 88.18 C 164.22 90.68 161.35 93.00 159.01 91.99 C 156.11 91.33 155.61 86.77 158.30 85.48 Z" />
<path fill="#ddd" opacity="1.00" d=" M 187.06 85.22 C 189.53 84.09 192.54 86.32 192.14 89.01 C 191.94 91.93 187.81 93.36 185.91 91.11 C 184.05 89.44 184.80 86.13 187.06 85.22 Z" />
<path fill="#ddd" opacity="1.00" d=" M 216.09 85.01 C 218.75 84.32 221.43 87.32 220.23 89.86 C 219.46 92.47 215.61 93.00 214.02 90.87 C 212.30 88.91 213.51 85.46 216.09 85.01 Z" />
<path fill="#ddd" opacity="1.00" d=" M 243.34 85.45 C 245.70 83.88 249.32 86.09 248.75 88.96 C 248.79 91.60 245.47 93.02 243.35 91.73 C 240.99 90.51 241.00 86.69 243.34 85.45 Z" />
<path fill="#ddd" opacity="1.00" d=" M 272.08 85.25 C 274.53 84.04 277.67 86.38 277.13 89.09 C 276.92 91.99 272.76 93.33 270.91 91.08 C 269.15 89.43 269.83 86.11 272.08 85.25 Z" />
<path fill="#ddd" opacity="1.00" d=" M 301.07 85.02 C 304.20 84.17 306.87 88.17 304.84 90.71 C 303.31 93.02 299.25 92.54 298.48 89.82 C 297.65 87.82 299.01 85.48 301.07 85.02 Z" />
<path fill="#ddd" opacity="1.00" d=" M 328.31 85.50 C 330.75 83.77 334.44 86.20 333.85 89.12 C 333.54 91.81 329.95 93.22 327.94 91.38 C 325.98 89.98 326.23 86.66 328.31 85.50 Z" />
<path fill="#ddd" opacity="1.00" d=" M 357.14 85.19 C 359.61 84.14 362.68 86.33 362.17 89.06 C 362.02 92.05 357.73 93.32 355.88 91.03 C 354.20 89.25 354.93 86.16 357.14 85.19 Z" />
<path fill="#ddd" opacity="1.00" d=" M 385.23 85.38 C 387.60 83.94 391.01 86.15 390.52 88.94 C 390.49 91.80 386.61 93.21 384.57 91.39 C 382.69 89.85 382.97 86.42 385.23 85.38 Z" />
<path fill="#ddd" opacity="1.00" d=" M 414.15 85.08 C 416.96 84.11 419.95 87.24 418.63 89.97 C 417.62 92.92 412.78 92.92 411.91 89.87 C 410.97 87.99 412.27 85.73 414.15 85.08 Z" />
<path fill="#ddd" opacity="1.00" d=" M 442.13 85.23 C 444.94 83.84 448.39 87.09 446.96 89.92 C 446.26 92.14 443.14 92.95 441.40 91.45 C 439.18 89.95 439.72 86.23 442.13 85.23 Z" />
<path fill="#ddd" opacity="1.00" d=" M 470.30 85.36 C 472.69 83.97 476.09 86.20 475.58 88.99 C 475.42 91.84 471.65 93.24 469.60 91.35 C 467.64 89.84 468.03 86.37 470.30 85.36 Z" />
<path fill="#ddd" opacity="1.00" d=" M 498.37 85.50 C 500.78 83.79 504.52 86.16 503.89 89.09 C 503.70 91.67 500.37 93.12 498.30 91.62 C 496.13 90.31 496.17 86.76 498.37 85.50 Z" />
<path fill="#ddd" opacity="1.00" d=" M 527.13 85.27 C 529.57 84.02 532.77 86.32 532.26 89.06 C 532.08 91.71 528.50 93.19 526.49 91.49 C 524.27 90.03 524.69 86.27 527.13 85.27 Z" />
<path fill="#ddd" opacity="1.00" d=" M 556.11 85.03 C 558.88 84.24 561.57 87.31 560.40 89.96 C 559.46 92.52 555.63 92.99 554.07 90.77 C 552.50 88.79 553.67 85.60 556.11 85.03 Z" />
<path fill="#ddd" opacity="1.00" d=" M 584.09 85.15 C 586.85 84.02 590.03 87.10 588.72 89.85 C 588.05 92.26 584.54 93.02 582.87 91.20 C 580.82 89.57 581.66 85.93 584.09 85.15 Z" />
<path fill="#ddd" opacity="1.00" d=" M 612.17 85.26 C 614.61 84.06 617.81 86.30 617.27 89.04 C 617.22 91.83 613.39 93.20 611.40 91.41 C 609.33 89.85 609.79 86.27 612.17 85.26 Z" />
<path fill="#ddd" opacity="1.00" d=" M 641.07 85.08 C 645.59 83.57 647.58 91.18 642.95 92.10 C 638.46 93.52 636.58 86.09 641.07 85.08 Z" />
<path fill="#ddd" opacity="1.00" d=" M 669.08 85.16 C 671.52 84.17 674.41 86.37 674.00 88.99 C 673.85 91.93 669.69 93.35 667.78 91.10 C 665.92 89.37 666.72 86.01 669.08 85.16 Z" />
<path fill="#ddd" opacity="1.00" d=" M 1.53 114.62 C 3.22 112.20 7.41 113.36 7.82 116.21 C 8.65 119.33 4.42 122.02 2.05 119.75 C 0.39 118.49 -0.11 116.12 1.53 114.62 Z" />
<path fill="#ddd" opacity="1.00" d=" M 258.37 113.41 C 261.00 112.65 263.76 115.27 262.86 117.95 C 262.19 120.97 257.49 121.50 256.20 118.69 C 254.96 116.75 256.20 113.98 258.37 113.41 Z" />
<path fill="#ddd" opacity="1.00" d=" M 30.28 114.15 C 32.76 111.77 37.36 114.70 36.06 117.98 C 35.55 120.43 32.10 121.38 30.29 119.73 C 28.54 118.42 28.51 115.45 30.28 114.15 Z" />
<path fill="#ddd" opacity="1.00" d=" M 58.31 114.34 C 60.19 112.47 63.92 113.29 64.46 116.01 C 65.24 118.62 62.56 121.26 59.96 120.45 C 57.34 119.78 56.46 116.25 58.31 114.34 Z" />
<path fill="#ddd" opacity="1.00" d=" M 87.20 113.94 C 89.46 112.27 93.09 114.09 92.91 116.95 C 93.08 119.75 89.47 121.63 87.26 119.92 C 85.15 118.71 85.12 115.20 87.20 113.94 Z" />
<path fill="#ddd" opacity="1.00" d=" M 115.35 114.10 C 117.22 112.45 120.68 113.51 121.15 116.03 C 121.89 118.45 119.50 121.11 117.00 120.49 C 114.00 120.21 112.94 115.82 115.35 114.10 Z" />
<path fill="#ddd" opacity="1.00" d=" M 143.38 114.37 C 144.89 112.74 148.10 113.00 149.08 115.09 C 150.68 117.26 148.66 120.85 145.94 120.52 C 142.84 120.78 141.11 116.43 143.38 114.37 Z" />
<path fill="#ddd" opacity="1.00" d=" M 172.23 113.99 C 174.43 112.20 178.26 114.11 177.93 117.02 C 178.07 119.85 174.44 121.57 172.23 119.92 C 170.24 118.61 170.17 115.25 172.23 113.99 Z" />
<path fill="#ddd" opacity="1.00" d=" M 200.20 114.24 C 202.05 112.44 205.63 113.41 206.19 115.98 C 206.95 118.40 204.56 121.12 202.05 120.47 C 199.11 120.26 198.08 116.07 200.20 114.24 Z" />
<path fill="#ddd" opacity="1.00" d=" M 228.41 114.35 C 230.49 112.06 234.92 113.81 234.64 116.97 C 234.82 119.71 231.34 121.54 229.13 120.03 C 227.11 118.96 226.81 115.93 228.41 114.35 Z" />
<path fill="#ddd" opacity="1.00" d=" M 285.36 114.19 C 287.18 112.43 290.81 113.47 291.25 116.05 C 292.01 118.55 289.45 121.16 286.94 120.46 C 284.08 120.09 283.06 115.87 285.36 114.19 Z" />
<path fill="#ddd" opacity="1.00" d=" M 313.43 114.35 C 315.55 112.10 319.99 113.77 319.65 117.00 C 319.85 119.71 316.37 121.54 314.17 120.03 C 312.16 118.93 311.91 115.97 313.43 114.35 Z" />
<path fill="#ddd" opacity="1.00" d=" M 342.24 113.99 C 345.83 111.15 350.33 116.93 346.76 119.72 C 343.14 122.99 338.22 116.72 342.24 113.99 Z" />
<path fill="#ddd" opacity="1.00" d=" M 370.24 114.28 C 372.09 112.41 375.77 113.38 376.28 116.04 C 377.06 118.55 374.49 121.15 371.96 120.48 C 369.19 120.02 368.12 116.11 370.24 114.28 Z" />
<path fill="#ddd" opacity="1.00" d=" M 398.48 114.40 C 401.36 111.13 406.74 115.58 404.10 119.02 C 401.35 123.28 394.75 117.96 398.48 114.40 Z" />
<path fill="#ddd" opacity="1.00" d=" M 427.28 114.04 C 429.45 112.20 433.36 114.06 433.02 116.98 C 433.21 119.06 431.06 120.88 429.03 120.51 C 425.86 120.45 424.62 115.70 427.28 114.04 Z" />
<path fill="#ddd" opacity="1.00" d=" M 455.30 114.25 C 457.17 112.42 460.83 113.42 461.33 116.07 C 462.06 118.59 459.46 121.22 456.94 120.44 C 454.17 120.02 453.26 116.01 455.30 114.25 Z" />
<path fill="#ddd" opacity="1.00" d=" M 483.49 114.40 C 485.29 112.40 489.03 113.30 489.66 115.95 C 490.36 118.23 488.40 120.77 486.00 120.55 C 482.94 120.65 481.32 116.49 483.49 114.40 Z" />
<path fill="#ddd" opacity="1.00" d=" M 512.30 114.02 C 514.56 112.17 518.34 114.10 518.15 117.04 C 518.16 119.92 514.44 121.64 512.26 119.81 C 510.38 118.47 510.38 115.33 512.30 114.02 Z" />
<path fill="#ddd" opacity="1.00" d=" M 540.40 114.27 C 542.48 112.08 546.79 113.90 546.46 117.00 C 546.57 119.68 543.29 121.46 541.04 120.10 C 538.93 119.03 538.55 115.75 540.40 114.27 Z" />
<path fill="#ddd" opacity="1.00" d=" M 568.51 114.42 C 570.32 112.39 574.25 113.32 574.69 116.09 C 575.37 118.33 573.30 120.82 570.96 120.55 C 567.97 120.56 566.43 116.48 568.51 114.42 Z" />
<path fill="#ddd" opacity="1.00" d=" M 597.22 114.08 C 599.13 112.47 602.57 113.51 603.03 116.04 C 603.80 118.36 601.51 120.97 599.10 120.51 C 595.95 120.41 594.75 115.89 597.22 114.08 Z" />
<path fill="#ddd" opacity="1.00" d=" M 626.01 113.81 C 628.69 112.00 632.57 115.05 631.32 118.09 C 630.58 120.92 626.20 121.45 624.81 118.88 C 623.63 117.26 624.29 114.75 626.01 113.81 Z" />
<path fill="#ddd" opacity="1.00" d=" M 654.20 113.91 C 656.42 112.27 660.15 114.12 659.83 117.00 C 660.05 120.12 655.62 121.79 653.63 119.48 C 652.01 117.98 652.32 115.05 654.20 113.91 Z" />
<path fill="#ddd" opacity="1.00" d=" M 16.17 142.37 C 18.32 140.61 21.87 142.15 22.03 144.90 C 22.47 147.54 19.38 149.83 16.98 148.61 C 14.51 147.67 14.06 143.93 16.17 142.37 Z" />
<path fill="#ddd" opacity="1.00" d=" M 45.09 142.08 C 47.23 140.76 50.31 142.47 50.41 144.97 C 50.80 147.88 47.12 150.05 44.78 148.30 C 42.45 147.03 42.67 143.13 45.09 142.08 Z" />
<path fill="#ddd" opacity="1.00" d=" M 73.29 142.11 C 76.03 140.32 79.85 143.53 78.53 146.53 C 77.70 149.43 73.11 149.72 71.92 146.97 C 70.88 145.32 71.67 143.05 73.29 142.11 Z" />
<path fill="#ddd" opacity="1.00" d=" M 102.00 141.98 C 104.85 140.36 108.32 144.02 106.75 146.82 C 105.78 149.20 102.19 149.64 100.65 147.59 C 99.14 145.91 99.80 142.72 102.00 141.98 Z" />
<path fill="#ddd" opacity="1.00" d=" M 129.34 142.56 C 131.39 140.53 135.41 142.04 135.42 144.99 C 135.80 147.65 132.67 149.80 130.30 148.59 C 127.95 147.65 127.49 144.20 129.34 142.56 Z" />
<path fill="#ddd" opacity="1.00" d=" M 158.27 142.15 C 160.77 140.45 164.42 142.97 163.72 145.89 C 163.50 148.50 159.93 149.84 157.98 148.18 C 155.89 146.81 156.10 143.34 158.27 142.15 Z" />
<path fill="#ddd" opacity="1.00" d=" M 186.37 142.31 C 188.55 140.63 192.02 142.26 192.14 144.99 C 192.51 147.87 188.83 150.07 186.51 148.30 C 184.36 147.07 184.34 143.68 186.37 142.31 Z" />
<path fill="#ddd" opacity="1.00" d=" M 215.13 142.05 C 217.30 140.77 220.44 142.48 220.47 145.03 C 220.84 147.58 217.84 149.73 215.53 148.63 C 212.67 147.78 212.43 143.28 215.13 142.05 Z" />
<path fill="#ddd" opacity="1.00" d=" M 243.25 142.19 C 245.36 140.68 248.87 142.34 248.76 144.99 C 249.32 148.06 245.12 150.18 242.92 148.10 C 240.97 146.70 241.19 143.36 243.25 142.19 Z" />
<path fill="#ddd" opacity="1.00" d=" M 271.25 142.42 C 273.70 140.25 277.92 142.77 277.09 145.95 C 276.80 148.64 273.09 149.88 271.18 148.03 C 269.44 146.65 269.54 143.77 271.25 142.42 Z" />
<path fill="#ddd" opacity="1.00" d=" M 300.13 142.10 C 303.04 140.21 306.96 144.00 305.09 146.95 C 304.02 149.42 300.07 149.55 298.79 147.19 C 297.65 145.51 298.36 143.02 300.13 142.10 Z" />
<path fill="#ddd" opacity="1.00" d=" M 328.28 142.20 C 330.74 140.43 334.49 142.93 333.82 145.87 C 333.55 148.27 330.48 149.75 328.45 148.42 C 326.06 147.26 326.01 143.52 328.28 142.20 Z" />
<path fill="#ddd" opacity="1.00" d=" M 356.33 142.37 C 358.46 140.60 362.12 142.18 362.19 144.97 C 362.55 147.62 359.45 149.83 357.07 148.58 C 354.61 147.60 354.25 143.94 356.33 142.37 Z" />
<path fill="#ddd" opacity="1.00" d=" M 385.19 142.06 C 387.72 140.53 391.23 143.06 390.47 145.95 C 390.19 148.80 386.07 149.94 384.30 147.76 C 382.66 146.21 383.13 143.04 385.19 142.06 Z" />
<path fill="#ddd" opacity="1.00" d=" M 413.31 142.18 C 415.84 140.42 419.60 142.97 418.84 145.96 C 418.49 148.59 414.92 149.87 412.98 148.09 C 411.00 146.67 411.30 143.42 413.31 142.18 Z" />
<path fill="#ddd" opacity="1.00" d=" M 441.32 142.43 C 443.74 140.25 448.01 142.79 447.20 145.96 C 446.85 148.44 443.63 149.78 441.62 148.30 C 439.57 147.09 439.45 143.87 441.32 142.43 Z" />
<path fill="#ddd" opacity="1.00" d=" M 470.12 142.10 C 471.98 140.97 474.79 141.96 475.39 144.10 C 476.48 146.71 473.66 149.69 470.99 148.78 C 467.95 148.13 467.40 143.54 470.12 142.10 Z" />
<path fill="#ddd" opacity="1.00" d=" M 498.29 142.22 C 500.46 140.67 503.90 142.31 503.92 145.01 C 504.28 147.59 501.30 149.72 498.97 148.65 C 496.30 147.76 495.88 143.65 498.29 142.22 Z" />
<path fill="#ddd" opacity="1.00" d=" M 526.34 142.48 C 528.42 140.53 532.19 142.13 532.30 144.96 C 532.65 147.68 529.47 149.87 527.07 148.54 C 524.72 147.57 524.32 144.00 526.34 142.48 Z" />
<path fill="#ddd" opacity="1.00" d=" M 555.21 142.14 C 557.33 140.70 560.57 142.44 560.62 144.98 C 561.08 147.92 557.32 150.00 554.99 148.31 C 552.73 147.02 552.87 143.27 555.21 142.14 Z" />
<path fill="#ddd" opacity="1.00" d=" M 583.34 142.24 C 585.46 140.68 588.77 142.27 588.97 144.86 C 589.41 147.44 586.46 149.75 584.06 148.66 C 581.35 147.82 580.88 143.67 583.34 142.24 Z" />
<path fill="#ddd" opacity="1.00" d=" M 611.32 142.48 C 613.37 140.53 617.41 142.15 617.26 145.04 C 617.69 147.75 614.38 149.88 612.05 148.52 C 609.74 147.46 609.45 144.09 611.32 142.48 Z" />
<path fill="#ddd" opacity="1.00" d=" M 640.22 142.13 C 642.73 140.46 646.35 143.01 645.59 145.94 C 645.33 148.56 641.77 149.85 639.83 148.15 C 637.83 146.74 638.01 143.25 640.22 142.13 Z" />
<path fill="#ddd" opacity="1.00" d=" M 668.34 142.24 C 670.51 140.67 673.94 142.30 674.01 144.99 C 674.42 147.80 670.86 150.00 668.53 148.39 C 666.21 147.19 666.22 143.63 668.34 142.24 Z" />
<path fill="#ddd" opacity="1.00" d=" M 0.90 171.88 C 2.62 168.85 7.73 169.72 7.91 173.36 C 8.29 177.10 2.89 178.72 1.01 175.51 C 0.39 174.33 0.35 173.12 0.90 171.88 Z" />
<path fill="#ddd" opacity="1.00" d=" M 31.21 170.30 C 33.92 168.85 37.31 172.17 35.96 174.91 C 35.22 177.44 31.51 178.09 29.88 176.04 C 28.23 174.34 28.92 171.04 31.21 170.30 Z" />
<path fill="#ddd" opacity="1.00" d=" M 59.33 170.37 C 61.69 169.01 65.05 171.24 64.52 173.99 C 64.52 176.49 61.31 178.09 59.22 176.83 C 56.66 175.68 56.73 171.43 59.33 170.37 Z" />
<path fill="#ddd" opacity="1.00" d=" M 88.16 170.16 C 90.51 169.28 93.30 171.47 92.89 173.97 C 92.84 176.90 88.67 178.44 86.74 176.20 C 84.74 174.48 85.67 170.84 88.16 170.16 Z" />
<path fill="#ddd" opacity="1.00" d=" M 116.17 170.32 C 118.92 168.80 122.45 172.16 120.97 174.97 C 120.30 177.21 117.07 178.04 115.38 176.44 C 113.22 174.94 113.72 171.21 116.17 170.32 Z" />
<path fill="#ddd" opacity="1.00" d=" M 145.09 170.10 C 147.79 169.23 150.59 172.38 149.36 174.95 C 148.50 177.56 144.57 178.08 143.06 175.80 C 141.48 173.87 142.63 170.57 145.09 170.10 Z" />
<path fill="#ddd" opacity="1.00" d=" M 173.08 170.19 C 175.48 169.18 178.43 171.49 177.90 174.08 C 177.77 176.62 174.48 178.17 172.39 176.72 C 169.83 175.30 170.31 171.07 173.08 170.19 Z" />
<path fill="#ddd" opacity="1.00" d=" M 200.46 170.70 C 202.84 168.75 206.84 170.97 206.28 174.05 C 206.15 177.04 201.84 178.42 200.01 176.06 C 198.52 174.61 198.83 171.92 200.46 170.70 Z" />
<path fill="#ddd" opacity="1.00" d=" M 229.34 170.39 C 231.74 169.00 235.13 171.22 234.63 174.02 C 234.53 176.86 230.62 178.36 228.64 176.35 C 226.64 174.82 227.14 171.46 229.34 170.39 Z" />
<path fill="#ddd" opacity="1.00" d=" M 258.10 170.23 C 260.83 168.97 264.02 172.15 262.78 174.88 C 261.97 177.57 257.92 178.10 256.40 175.76 C 255.02 173.91 255.87 170.91 258.10 170.23 Z" />
<path fill="#ddd" opacity="1.00" d=" M 286.18 170.32 C 289.00 168.77 292.51 172.18 291.05 175.05 C 290.16 177.46 286.55 178.06 284.97 176.00 C 283.39 174.30 284.03 171.21 286.18 170.32 Z" />
<path fill="#ddd" opacity="1.00" d=" M 314.38 170.42 C 316.40 169.16 319.55 170.70 319.61 173.12 C 320.29 176.01 316.62 178.39 314.22 176.75 C 311.79 175.55 311.88 171.48 314.38 170.42 Z" />
<path fill="#ddd" opacity="1.00" d=" M 343.13 170.22 C 345.53 169.17 348.43 171.44 348.01 174.02 C 347.87 176.95 343.71 178.43 341.82 176.15 C 339.94 174.45 340.75 170.98 343.13 170.22 Z" />
<path fill="#ddd" opacity="1.00" d=" M 372.10 170.03 C 374.76 169.42 377.31 172.44 376.12 174.93 C 375.31 177.73 370.98 178.06 369.65 175.53 C 368.27 173.46 369.65 170.38 372.10 170.03 Z" />
<path fill="#ddd" opacity="1.00" d=" M 399.36 170.44 C 402.06 168.69 405.84 171.92 404.50 174.85 C 403.85 176.98 401.10 177.94 399.23 176.77 C 396.85 175.50 396.90 171.57 399.36 170.44 Z" />
<path fill="#ddd" opacity="1.00" d=" M 428.13 170.22 C 431.26 168.76 434.56 172.95 432.45 175.63 C 431.30 177.56 428.32 177.82 426.84 176.15 C 425.01 174.46 425.77 171.02 428.13 170.22 Z" />
<path fill="#ddd" opacity="1.00" d=" M 457.14 170.03 C 460.21 169.34 462.72 173.25 460.76 175.74 C 459.08 178.44 454.29 177.23 454.23 174.03 C 453.89 172.17 455.32 170.33 457.14 170.03 Z" />
<path fill="#ddd" opacity="1.00" d=" M 484.33 170.44 C 486.71 168.97 490.22 171.10 489.75 173.95 C 489.73 176.82 485.70 178.40 483.75 176.32 C 481.77 174.83 482.26 171.61 484.33 170.44 Z" />
<path fill="#ddd" opacity="1.00" d=" M 513.13 170.26 C 515.51 169.09 518.61 171.46 518.09 174.07 C 517.91 176.37 515.09 178.05 513.02 176.94 C 510.13 175.90 510.18 171.18 513.13 170.26 Z" />
<path fill="#ddd" opacity="1.00" d=" M 542.08 170.04 C 544.80 169.36 547.39 172.43 546.19 174.99 C 545.33 177.55 541.44 178.08 539.94 175.82 C 538.31 173.83 539.53 170.49 542.08 170.04 Z" />
<path fill="#ddd" opacity="1.00" d=" M 570.14 170.12 C 572.53 169.33 575.18 171.54 574.78 174.05 C 574.63 176.89 570.72 178.33 568.73 176.31 C 566.63 174.56 567.50 170.81 570.14 170.12 Z" />
<path fill="#ddd" opacity="1.00" d=" M 598.09 170.29 C 600.50 169.07 603.60 171.40 603.14 174.07 C 602.94 177.00 598.78 178.43 596.90 176.11 C 595.09 174.43 595.84 171.16 598.09 170.29 Z" />
<path fill="#ddd" opacity="1.00" d=" M 627.11 170.07 C 630.18 169.21 632.81 173.18 630.88 175.70 C 629.40 178.09 625.29 177.63 624.47 174.91 C 623.63 172.92 624.97 170.42 627.11 170.07 Z" />
<path fill="#ddd" opacity="1.00" d=" M 655.11 170.16 C 657.74 169.11 660.75 172.12 659.64 174.73 C 659.07 176.96 656.17 178.00 654.28 176.71 C 651.68 175.27 652.23 170.90 655.11 170.16 Z" />
<path fill="#ddd" opacity="1.00" d=" M 17.48 198.44 C 20.38 197.55 23.25 201.03 21.61 203.66 C 20.64 205.94 17.16 206.25 15.66 204.34 C 13.92 202.47 14.99 199.01 17.48 198.44 Z" />
<path fill="#ddd" opacity="1.00" d=" M 74.39 198.41 C 76.90 197.79 79.45 200.40 78.62 202.89 C 78.12 205.54 74.33 206.55 72.55 204.53 C 70.42 202.67 71.65 198.83 74.39 198.41 Z" />
<path fill="#ddd" opacity="1.00" d=" M 102.44 198.47 C 104.68 197.76 107.19 199.62 107.09 202.00 C 107.24 204.86 103.51 206.71 101.29 204.91 C 98.91 203.29 99.61 199.14 102.44 198.47 Z" />
<path fill="#ddd" opacity="1.00" d=" M 414.40 198.42 C 417.27 197.60 420.00 200.96 418.53 203.60 C 417.43 206.15 413.38 206.28 412.13 203.79 C 410.84 201.79 412.11 198.92 414.40 198.42 Z" />
<path fill="#ddd" opacity="1.00" d=" M 499.44 198.44 C 502.00 197.71 504.65 200.35 503.80 202.93 C 503.30 205.63 499.38 206.54 497.66 204.46 C 495.76 202.59 496.81 198.96 499.44 198.44 Z" />
<path fill="#ddd" opacity="1.00" d=" M 527.53 198.51 C 530.16 197.54 533.06 200.26 532.16 202.96 C 531.53 205.78 527.36 206.57 525.76 204.16 C 524.22 202.31 525.21 199.14 527.53 198.51 Z" />
<path fill="#ddd" opacity="1.00" d=" M 44.29 199.25 C 46.20 197.47 49.78 198.43 50.30 201.07 C 51.22 203.95 47.66 206.78 45.08 205.18 C 42.86 204.15 42.49 200.85 44.29 199.25 Z" />
<path fill="#ddd" opacity="1.00" d=" M 129.35 199.30 C 131.47 197.08 135.70 198.96 135.43 202.02 C 135.57 204.68 132.33 206.52 130.09 205.18 C 127.90 204.18 127.55 200.82 129.35 199.30 Z" />
<path fill="#ddd" opacity="1.00" d=" M 158.17 198.90 C 160.42 197.28 164.04 199.21 163.77 202.02 C 163.96 204.78 160.43 206.61 158.21 205.04 C 155.98 203.79 155.97 200.19 158.17 198.90 Z" />
<path fill="#ddd" opacity="1.00" d=" M 186.23 199.12 C 188.09 197.49 191.48 198.53 191.99 200.98 C 193.01 203.74 189.67 206.65 187.08 205.29 C 184.55 204.43 184.10 200.65 186.23 199.12 Z" />
<path fill="#ddd" opacity="1.00" d=" M 215.05 198.83 C 217.66 197.03 221.48 200.04 220.34 203.03 C 219.69 205.57 216.10 206.51 214.30 204.58 C 212.60 203.06 212.93 199.82 215.05 198.83 Z" />
<path fill="#ddd" opacity="1.00" d=" M 243.18 198.95 C 245.39 197.25 249.10 199.21 248.78 202.03 C 249.02 204.83 245.38 206.61 243.18 205.03 C 241.07 203.74 241.02 200.21 243.18 198.95 Z" />
<path fill="#ddd" opacity="1.00" d=" M 271.22 199.20 C 273.68 196.77 278.24 199.72 277.00 202.96 C 276.54 205.43 273.17 206.41 271.30 204.85 C 269.50 203.54 269.47 200.54 271.22 199.20 Z" />
<path fill="#ddd" opacity="1.00" d=" M 299.31 199.34 C 301.45 197.13 305.75 198.85 305.52 202.00 C 305.65 204.63 302.37 206.54 300.14 205.16 C 298.00 204.11 297.65 200.97 299.31 199.34 Z" />
<path fill="#ddd" opacity="1.00" d=" M 328.23 198.94 C 330.17 197.51 333.22 198.71 333.77 201.02 C 334.60 203.66 331.68 206.48 329.09 205.39 C 326.26 204.69 325.71 200.36 328.23 198.94 Z" />
<path fill="#ddd" opacity="1.00" d=" M 356.26 199.17 C 358.13 197.45 361.52 198.52 362.08 201.01 C 362.85 203.43 360.56 206.02 358.07 205.59 C 355.01 205.33 353.86 200.98 356.26 199.17 Z" />
<path fill="#ddd" opacity="1.00" d=" M 384.36 199.40 C 386.13 197.37 389.90 198.40 390.43 201.03 C 391.09 203.17 389.28 205.73 386.99 205.59 C 383.80 205.92 382.06 201.47 384.36 199.40 Z" />
<path fill="#ddd" opacity="1.00" d=" M 441.27 199.17 C 443.15 197.51 446.59 198.48 447.11 201.00 C 448.11 203.79 444.69 206.71 442.10 205.25 C 439.68 204.32 439.27 200.73 441.27 199.17 Z" />
<path fill="#ddd" opacity="1.00" d=" M 469.38 199.36 C 471.50 197.07 475.84 198.86 475.59 202.01 C 475.72 204.70 472.32 206.63 470.10 205.08 C 468.05 204.03 467.75 200.91 469.38 199.36 Z" />
<path fill="#ddd" opacity="1.00" d=" M 554.40 199.37 C 556.51 197.14 560.87 198.80 560.63 201.96 C 560.84 204.69 557.25 206.69 555.06 205.01 C 553.06 203.94 552.82 200.92 554.40 199.37 Z" />
<path fill="#ddd" opacity="1.00" d=" M 583.17 199.03 C 585.10 197.49 588.46 198.63 588.88 201.11 C 589.68 203.78 586.65 206.55 584.07 205.35 C 581.39 204.53 580.93 200.59 583.17 199.03 Z" />
<path fill="#ddd" opacity="1.00" d=" M 611.34 199.19 C 613.52 197.14 617.53 198.99 617.30 202.00 C 617.49 204.63 614.30 206.46 612.05 205.24 C 609.80 204.18 609.38 200.74 611.34 199.19 Z" />
<path fill="#ddd" opacity="1.00" d=" M 639.46 199.42 C 641.48 197.03 646.01 198.86 645.65 202.04 C 645.84 204.79 642.23 206.68 640.06 204.99 C 638.11 203.91 637.90 200.93 639.46 199.42 Z" />
<path fill="#ddd" opacity="1.00" d=" M 668.29 198.99 C 670.22 197.52 673.39 198.64 673.91 201.03 C 674.80 203.73 671.64 206.60 669.07 205.32 C 666.41 204.52 665.93 200.43 668.29 198.99 Z" />
<path fill="#ddd" opacity="1.00" d=" M 1.01 228.43 C 2.96 225.11 8.59 227.02 7.88 230.88 C 7.41 234.31 2.58 234.93 0.91 232.06 C 0.35 230.82 0.38 229.61 1.01 228.43 Z" />
<path fill="#ddd" opacity="1.00" d=" M 30.37 227.46 C 32.78 225.30 37.03 227.85 36.17 231.02 C 35.81 233.74 32.02 234.92 30.15 232.98 C 28.48 231.59 28.60 228.71 30.37 227.46 Z" />
<path fill="#ddd" opacity="1.00" d=" M 59.19 227.14 C 63.30 224.61 66.89 231.60 62.61 233.55 C 58.54 235.87 55.07 229.13 59.19 227.14 Z" />
<path fill="#ddd" opacity="1.00" d=" M 87.28 227.30 C 89.38 225.72 92.85 227.32 92.90 229.99 C 93.36 232.90 89.71 235.03 87.35 233.39 C 85.13 232.18 85.09 228.54 87.28 227.30 Z" />
<path fill="#ddd" opacity="1.00" d=" M 115.33 227.50 C 117.42 225.64 121.13 227.17 121.29 229.97 C 121.68 232.94 117.92 235.13 115.55 233.30 C 113.60 232.02 113.48 228.91 115.33 227.50 Z" />
<path fill="#ddd" opacity="1.00" d=" M 144.17 227.15 C 146.71 225.57 150.26 228.04 149.58 230.98 C 149.20 233.93 145.03 234.95 143.24 232.71 C 141.72 231.08 142.21 228.19 144.17 227.15 Z" />
<path fill="#ddd" opacity="1.00" d=" M 172.34 227.27 C 174.78 225.48 178.65 227.91 177.85 230.92 C 177.73 233.69 173.78 234.93 171.92 233.02 C 170.11 231.57 170.37 228.46 172.34 227.27 Z" />
<path fill="#ddd" opacity="1.00" d=" M 200.41 227.45 C 202.51 225.67 206.18 227.19 206.29 229.96 C 206.78 232.90 202.98 235.09 200.65 233.33 C 198.62 232.11 198.56 228.86 200.41 227.45 Z" />
<path fill="#ddd" opacity="1.00" d=" M 229.17 227.14 C 231.71 225.60 235.31 228.00 234.60 230.97 C 234.27 233.56 230.97 234.75 228.92 233.31 C 226.76 231.92 226.94 228.36 229.17 227.14 Z" />
<path fill="#ddd" opacity="1.00" d=" M 257.28 227.32 C 259.42 225.71 262.93 227.31 262.98 230.03 C 263.41 232.87 259.77 235.05 257.45 233.39 C 255.24 232.15 255.17 228.69 257.28 227.32 Z" />
<path fill="#ddd" opacity="1.00" d=" M 286.11 226.99 C 288.72 225.73 292.02 228.19 291.28 231.07 C 290.88 233.84 286.89 234.94 285.11 232.83 C 283.33 231.20 283.98 228.00 286.11 226.99 Z" />
<path fill="#ddd" opacity="1.00" d=" M 314.20 227.19 C 316.64 225.57 320.29 227.94 319.62 230.85 C 319.51 233.23 316.58 234.58 314.56 233.61 C 311.92 232.64 311.72 228.46 314.20 227.19 Z" />
<path fill="#ddd" opacity="1.00" d=" M 342.36 227.32 C 344.81 225.42 348.74 227.94 347.99 230.99 C 347.61 233.69 343.96 234.88 342.00 233.06 C 340.22 231.65 340.40 228.48 342.36 227.32 Z" />
<path fill="#ddd" opacity="1.00" d=" M 371.05 227.07 C 372.92 226.11 375.53 227.00 376.17 229.08 C 377.25 231.52 374.73 234.56 372.11 233.85 C 368.76 233.54 368.06 228.46 371.05 227.07 Z" />
<path fill="#ddd" opacity="1.00" d=" M 399.25 227.16 C 401.38 225.86 404.52 227.31 404.70 229.85 C 405.34 232.95 401.16 235.22 398.85 233.16 C 396.83 231.71 397.09 228.35 399.25 227.16 Z" />
<path fill="#ddd" opacity="1.00" d=" M 427.34 227.37 C 429.36 225.69 433.00 227.26 433.02 229.94 C 433.58 232.85 429.84 235.09 427.51 233.36 C 425.32 232.17 425.26 228.70 427.34 227.37 Z" />
<path fill="#ddd" opacity="1.00" d=" M 456.02 227.10 C 458.60 225.60 462.17 228.15 461.33 231.09 C 460.95 233.54 457.72 234.76 455.77 233.32 C 453.50 232.01 453.76 228.29 456.02 227.10 Z" />
<path fill="#ddd" opacity="1.00" d=" M 484.26 227.18 C 487.05 225.37 490.94 228.57 489.52 231.63 C 488.64 234.50 484.06 234.73 482.92 231.96 C 481.94 230.36 482.68 228.08 484.26 227.18 Z" />
<path fill="#ddd" opacity="1.00" d=" M 512.29 227.43 C 514.72 225.34 518.83 227.85 518.08 230.98 C 517.70 233.67 514.00 234.95 512.09 233.03 C 510.34 231.68 510.45 228.66 512.29 227.43 Z" />
<path fill="#ddd" opacity="1.00" d=" M 541.12 227.09 C 543.28 225.89 546.42 227.45 546.44 230.01 C 546.96 233.00 543.07 235.04 540.76 233.30 C 538.55 231.89 538.77 228.24 541.12 227.09 Z" />
<path fill="#ddd" opacity="1.00" d=" M 569.25 227.24 C 571.37 225.74 574.86 227.42 574.76 230.08 C 575.20 232.88 571.73 234.89 569.40 233.49 C 567.03 232.34 566.94 228.47 569.25 227.24 Z" />
<path fill="#ddd" opacity="1.00" d=" M 597.34 227.40 C 599.78 225.36 603.90 227.87 603.09 230.99 C 602.75 233.50 599.51 234.79 597.49 233.34 C 595.42 232.08 595.35 228.76 597.34 227.40 Z" />
<path fill="#ddd" opacity="1.00" d=" M 626.18 227.07 C 628.72 225.67 632.10 228.07 631.47 230.95 C 631.13 233.48 627.96 234.74 625.91 233.38 C 623.54 232.03 623.76 228.23 626.18 227.07 Z" />
<path fill="#ddd" opacity="1.00" d=" M 654.30 227.20 C 656.78 225.56 660.44 227.89 659.82 230.87 C 659.58 233.58 655.89 234.92 653.92 233.12 C 651.96 231.67 652.23 228.42 654.30 227.20 Z" />
<path fill="#ddd" opacity="1.00" d=" M 17.16 255.27 C 19.55 254.18 22.48 256.49 22.01 259.08 C 21.92 262.01 17.63 263.48 15.81 261.13 C 13.98 259.47 14.76 255.95 17.16 255.27 Z" />
<path fill="#ddd" opacity="1.00" d=" M 46.11 255.06 C 48.72 254.54 51.30 257.39 50.17 259.91 C 49.37 262.75 45.05 263.10 43.67 260.58 C 42.29 258.49 43.68 255.47 46.11 255.06 Z" />
<path fill="#ddd" opacity="1.00" d=" M 74.14 255.17 C 76.81 254.23 79.67 257.28 78.52 259.88 C 77.79 262.62 73.55 263.15 72.12 260.71 C 70.63 258.80 71.83 255.71 74.14 255.17 Z" />
<path fill="#ddd" opacity="1.00" d=" M 102.19 255.27 C 104.56 254.19 107.58 256.51 107.05 259.09 C 106.92 262.06 102.69 263.44 100.82 261.14 C 99.01 259.45 99.81 255.99 102.19 255.27 Z" />
<path fill="#ddd" opacity="1.00" d=" M 131.12 255.09 C 134.17 254.32 136.67 258.19 134.84 260.69 C 133.60 262.69 130.40 262.86 129.00 260.95 C 127.27 259.01 128.47 255.41 131.12 255.09 Z" />
<path fill="#ddd" opacity="1.00" d=" M 159.20 255.17 C 161.91 254.26 164.69 257.29 163.57 259.91 C 162.79 262.61 158.60 263.16 157.18 260.73 C 155.67 258.81 156.84 255.67 159.20 255.17 Z" />
<path fill="#ddd" opacity="1.00" d=" M 187.10 255.32 C 190.18 253.74 193.68 257.92 191.53 260.66 C 190.13 263.10 186.00 262.67 185.14 260.00 C 184.28 258.26 185.33 255.98 187.10 255.32 Z" />
<path fill="#ddd" opacity="1.00" d=" M 215.30 255.38 C 217.65 254.10 220.87 256.29 220.46 258.96 C 220.45 261.86 216.48 263.38 214.44 261.40 C 212.50 259.83 212.97 256.34 215.30 255.38 Z" />
<path fill="#ddd" opacity="1.00" d=" M 244.19 255.18 C 246.16 254.51 248.64 255.97 248.73 258.11 C 249.45 261.01 245.74 263.45 243.30 261.78 C 240.63 260.35 241.22 255.79 244.19 255.18 Z" />
<path fill="#ddd" opacity="1.00" d=" M 272.20 255.27 C 274.61 254.21 277.54 256.42 277.16 259.05 C 277.00 261.76 273.44 263.31 271.35 261.56 C 269.12 260.02 269.60 256.15 272.20 255.27 Z" />
<path fill="#ddd" opacity="1.00" d=" M 300.30 255.40 C 302.65 254.09 305.83 256.27 305.53 258.94 C 305.45 261.47 302.41 263.13 300.22 261.88 C 297.58 260.75 297.64 256.48 300.30 255.40 Z" />
<path fill="#ddd" opacity="1.00" d=" M 329.19 255.20 C 331.89 254.16 334.90 257.33 333.60 259.97 C 332.92 262.34 329.42 263.08 327.75 261.33 C 325.68 259.59 326.57 255.82 329.19 255.20 Z" />
<path fill="#ddd" opacity="1.00" d=" M 357.27 255.27 C 359.68 254.19 362.72 256.50 362.16 259.14 C 361.99 261.87 358.33 263.30 356.32 261.50 C 354.15 259.94 354.70 256.09 357.27 255.27 Z" />
<path fill="#ddd" opacity="1.00" d=" M 386.19 255.10 C 388.44 254.52 390.85 256.59 390.52 258.92 C 390.58 261.81 386.58 263.39 384.57 261.41 C 382.30 259.66 383.28 255.48 386.19 255.10 Z" />
<path fill="#ddd" opacity="1.00" d=" M 414.12 255.25 C 416.82 254.08 419.87 257.24 418.67 259.91 C 417.91 262.67 413.66 263.12 412.24 260.69 C 410.89 258.82 411.87 255.82 414.12 255.25 Z" />
<path fill="#ddd" opacity="1.00" d=" M 441.61 255.64 C 443.28 254.40 446.00 255.09 446.84 257.01 C 448.41 259.48 445.74 263.00 442.94 262.22 C 439.83 261.85 438.88 257.20 441.61 255.64 Z" />
<path fill="#ddd" opacity="1.00" d=" M 470.38 255.41 C 473.09 253.80 476.72 257.05 475.35 259.93 C 474.65 262.29 471.28 263.08 469.56 261.38 C 467.61 259.86 468.06 256.34 470.38 255.41 Z" />
<path fill="#ddd" opacity="1.00" d=" M 499.17 255.23 C 501.57 254.23 504.32 256.57 503.93 259.09 C 503.74 261.98 499.61 263.47 497.74 261.19 C 495.79 259.52 496.69 255.84 499.17 255.23 Z" />
<path fill="#ddd" opacity="1.00" d=" M 527.25 255.31 C 529.60 254.19 532.71 256.37 532.28 259.02 C 532.17 261.83 528.40 263.34 526.33 261.47 C 524.27 259.87 524.75 256.21 527.25 255.31 Z" />
<path fill="#ddd" opacity="1.00" d=" M 555.44 255.40 C 557.75 254.10 560.85 256.21 560.65 258.82 C 560.64 261.42 557.48 263.21 555.24 261.83 C 552.67 260.64 552.80 256.43 555.44 255.40 Z" />
<path fill="#ddd" opacity="1.00" d=" M 584.14 255.28 C 586.81 254.00 590.00 257.22 588.75 259.88 C 588.09 262.36 584.44 263.13 582.78 261.23 C 580.88 259.50 581.66 255.97 584.14 255.28 Z" />
<path fill="#ddd" opacity="1.00" d=" M 613.09 255.03 C 615.32 254.71 617.72 256.62 617.27 259.00 C 617.27 261.81 613.36 263.39 611.36 261.43 C 608.98 259.63 610.14 255.42 613.09 255.03 Z" />
<path fill="#ddd" opacity="1.00" d=" M 640.32 255.46 C 642.32 254.25 645.38 255.61 645.58 258.01 C 646.26 260.53 643.50 262.96 641.07 262.17 C 638.02 261.51 637.45 256.74 640.32 255.46 Z" />
<path fill="#ddd" opacity="1.00" d=" M 669.17 255.26 C 672.14 253.93 675.35 257.76 673.54 260.47 C 672.28 263.11 667.78 262.78 667.02 259.93 C 666.14 258.17 667.33 255.80 669.17 255.26 Z" />
<path fill="#ddd" opacity="1.00" d=" M 1.40 284.80 C 3.26 281.92 8.13 283.72 7.88 287.02 C 8.08 290.10 3.62 292.05 1.66 289.48 C 0.30 288.18 0.07 286.21 1.40 284.80 Z" />
<path fill="#ddd" opacity="1.00" d=" M 31.45 283.57 C 34.00 282.51 37.01 285.32 36.08 287.93 C 35.60 290.44 32.17 291.52 30.28 289.84 C 28.13 288.18 28.76 284.25 31.45 283.57 Z" />
<path fill="#ddd" opacity="1.00" d=" M 88.49 283.45 C 91.00 282.78 93.56 285.37 92.81 287.89 C 92.33 290.64 88.27 291.66 86.57 289.41 C 84.71 287.49 85.87 283.94 88.49 283.45 Z" />
<path fill="#ddd" opacity="1.00" d=" M 343.40 283.52 C 345.99 282.61 348.79 285.38 347.90 288.00 C 347.30 290.70 343.37 291.60 341.69 289.41 C 339.88 287.55 340.91 284.12 343.40 283.52 Z" />
<path fill="#ddd" opacity="1.00" d=" M 428.45 283.52 C 431.34 282.50 434.24 286.04 432.66 288.69 C 431.65 290.96 428.16 291.33 426.66 289.35 C 424.97 287.49 425.95 284.06 428.45 283.52 Z" />
<path fill="#ddd" opacity="1.00" d=" M 513.47 283.52 C 518.22 281.88 520.06 290.22 514.95 290.60 C 510.63 291.47 509.27 284.45 513.47 283.52 Z" />
<path fill="#ddd" opacity="1.00" d=" M 598.45 283.56 C 601.00 282.55 603.88 285.29 603.04 287.91 C 602.55 290.38 599.22 291.52 597.31 289.89 C 594.97 288.30 595.71 284.21 598.45 283.56 Z" />
<path fill="#ddd" opacity="1.00" d=" M 58.40 284.36 C 60.51 282.17 64.81 283.88 64.53 286.99 C 64.82 289.69 61.35 291.66 59.14 290.14 C 57.00 289.14 56.75 285.91 58.40 284.36 Z" />
<path fill="#ddd" opacity="1.00" d=" M 115.21 284.30 C 117.03 282.45 120.58 283.48 121.12 286.01 C 122.00 288.44 119.55 291.16 117.04 290.59 C 114.10 290.31 112.94 286.11 115.21 284.30 Z" />
<path fill="#ddd" opacity="1.00" d=" M 143.41 284.38 C 145.50 282.15 149.74 283.85 149.60 286.93 C 149.87 289.64 146.45 291.64 144.19 290.16 C 142.08 289.13 141.73 285.97 143.41 284.38 Z" />
<path fill="#ddd" opacity="1.00" d=" M 172.21 284.03 C 174.45 282.27 178.16 284.16 177.94 287.03 C 178.06 289.45 175.32 291.36 173.10 290.43 C 170.37 289.65 169.86 285.53 172.21 284.03 Z" />
<path fill="#ddd" opacity="1.00" d=" M 200.28 284.23 C 202.14 282.51 205.64 283.50 206.16 286.02 C 207.01 288.42 204.59 291.17 202.11 290.58 C 199.09 290.35 198.02 286.06 200.28 284.23 Z" />
<path fill="#ddd" opacity="1.00" d=" M 228.44 284.43 C 230.51 282.10 234.96 283.87 234.63 287.04 C 234.79 289.38 232.21 291.23 230.01 290.52 C 227.43 289.87 226.46 286.25 228.44 284.43 Z" />
<path fill="#ddd" opacity="1.00" d=" M 257.20 284.08 C 259.41 282.20 263.17 284.19 263.02 287.04 C 263.09 289.50 260.28 291.39 258.02 290.39 C 255.43 289.53 254.91 285.56 257.20 284.08 Z" />
<path fill="#ddd" opacity="1.00" d=" M 285.32 284.22 C 287.24 282.49 290.64 283.53 291.23 286.06 C 292.15 288.89 288.73 291.80 286.11 290.26 C 283.77 289.27 283.44 285.82 285.32 284.22 Z" />
<path fill="#ddd" opacity="1.00" d=" M 313.39 284.51 C 315.41 282.07 320.05 283.82 319.63 287.07 C 319.91 289.80 316.27 291.68 314.13 290.07 C 312.17 289.02 311.89 286.06 313.39 284.51 Z" />
<path fill="#ddd" opacity="1.00" d=" M 370.42 284.24 C 372.25 282.45 375.71 283.53 376.26 286.02 C 377.09 288.51 374.58 291.23 372.04 290.57 C 369.11 290.19 368.06 285.97 370.42 284.24 Z" />
<path fill="#ddd" opacity="1.00" d=" M 398.48 284.45 C 400.12 282.67 403.39 283.17 404.36 285.41 C 405.66 287.65 403.64 290.82 401.07 290.62 C 397.96 290.85 396.25 286.54 398.48 284.45 Z" />
<path fill="#ddd" opacity="1.00" d=" M 455.28 284.35 C 457.40 282.15 461.60 283.91 461.43 286.99 C 461.59 289.63 458.42 291.53 456.14 290.27 C 453.95 289.24 453.53 285.96 455.28 284.35 Z" />
<path fill="#ddd" opacity="1.00" d=" M 484.10 283.99 C 486.66 281.98 490.65 284.86 489.65 287.91 C 489.20 290.28 486.02 291.49 484.10 290.01 C 481.95 288.71 482.00 285.31 484.10 283.99 Z" />
<path fill="#ddd" opacity="1.00" d=" M 540.31 284.33 C 542.15 282.52 545.64 283.41 546.30 285.92 C 547.42 288.84 543.79 291.87 541.12 290.22 C 538.89 289.19 538.62 285.96 540.31 284.33 Z" />
<path fill="#ddd" opacity="1.00" d=" M 568.56 284.48 C 570.34 282.41 574.15 283.41 574.69 286.07 C 575.37 288.36 573.37 290.87 570.98 290.64 C 567.99 290.67 566.36 286.49 568.56 284.48 Z" />
<path fill="#ddd" opacity="1.00" d=" M 625.40 284.32 C 627.24 282.45 630.73 283.46 631.37 285.98 C 632.27 288.54 629.59 291.31 627.00 290.55 C 624.24 289.99 623.27 286.12 625.40 284.32 Z" />
<path fill="#ddd" opacity="1.00" d=" M 654.20 283.99 C 656.74 281.98 660.80 284.91 659.70 287.95 C 659.21 290.27 656.07 291.52 654.19 290.00 C 652.05 288.79 652.07 285.21 654.20 283.99 Z" />
<path fill="#ddd" opacity="1.00" d=" M 16.27 312.41 C 18.35 310.72 21.90 312.26 22.01 314.94 C 22.51 317.50 19.52 319.85 17.16 318.73 C 14.47 317.95 14.00 313.95 16.27 312.41 Z" />
<path fill="#ddd" opacity="1.00" d=" M 45.09 312.11 C 47.60 310.64 51.03 313.17 50.35 316.00 C 50.01 318.88 45.98 320.02 44.13 317.84 C 42.46 316.21 42.97 313.11 45.09 312.11 Z" />
<path fill="#ddd" opacity="1.00" d=" M 73.30 312.21 C 75.43 310.83 78.65 312.43 78.74 315.00 C 79.19 317.78 75.72 320.05 73.36 318.54 C 70.93 317.33 70.84 313.43 73.30 312.21 Z" />
<path fill="#ddd" opacity="1.00" d=" M 101.37 312.37 C 103.46 310.74 106.87 312.29 107.05 314.90 C 107.61 317.46 104.53 319.88 102.18 318.73 C 99.49 317.96 99.00 313.82 101.37 312.37 Z" />
<path fill="#ddd" opacity="1.00" d=" M 130.10 312.11 C 132.65 310.64 136.13 313.19 135.36 316.07 C 135.06 318.53 131.88 319.78 129.88 318.45 C 127.53 317.13 127.70 313.29 130.10 312.11 Z" />
<path fill="#ddd" opacity="1.00" d=" M 158.27 312.21 C 160.71 310.62 164.38 312.94 163.73 315.86 C 163.56 318.62 159.86 319.98 157.85 318.16 C 155.86 316.70 156.22 313.43 158.27 312.21 Z" />
<path fill="#ddd" opacity="1.00" d=" M 186.31 312.45 C 188.08 310.96 191.14 311.81 191.86 314.01 C 193.25 316.75 189.87 320.11 187.15 318.70 C 184.56 317.87 184.05 313.95 186.31 312.45 Z" />
<path fill="#ddd" opacity="1.00" d=" M 215.17 312.14 C 217.30 310.86 220.33 312.51 220.47 314.97 C 220.94 317.86 217.32 320.08 214.93 318.46 C 212.56 317.16 212.71 313.23 215.17 312.14 Z" />
<path fill="#ddd" opacity="1.00" d=" M 243.27 312.23 C 245.74 310.58 249.47 312.99 248.73 315.94 C 248.62 318.10 245.98 319.59 244.02 318.77 C 241.16 318.03 240.72 313.66 243.27 312.23 Z" />
<path fill="#ddd" opacity="1.00" d=" M 271.32 312.47 C 273.38 310.70 276.99 312.20 277.15 314.92 C 277.61 317.56 274.56 319.92 272.16 318.69 C 269.58 317.84 269.16 314.01 271.32 312.47 Z" />
<path fill="#ddd" opacity="1.00" d=" M 300.12 312.17 C 302.60 310.59 306.22 313.14 305.45 316.00 C 305.16 318.57 301.78 319.89 299.77 318.32 C 297.63 316.90 297.81 313.30 300.12 312.17 Z" />
<path fill="#ddd" opacity="1.00" d=" M 328.31 312.28 C 330.06 311.02 332.91 311.91 333.57 313.97 C 334.96 316.62 331.85 319.92 329.12 318.81 C 326.25 318.09 325.67 313.66 328.31 312.28 Z" />
<path fill="#ddd" opacity="1.00" d=" M 356.32 312.49 C 358.41 310.67 362.07 312.23 362.18 314.99 C 362.63 317.63 359.48 319.91 357.12 318.68 C 354.65 317.78 354.20 314.01 356.32 312.49 Z" />
<path fill="#ddd" opacity="1.00" d=" M 385.20 312.13 C 387.33 310.88 390.53 312.50 390.51 315.04 C 391.04 318.01 387.20 320.12 384.88 318.36 C 382.64 317.00 382.88 313.30 385.20 312.13 Z" />
<path fill="#ddd" opacity="1.00" d=" M 413.24 312.31 C 415.77 310.46 419.64 313.04 418.84 316.09 C 418.43 318.70 414.91 319.94 412.96 318.15 C 411.07 316.73 411.26 313.55 413.24 312.31 Z" />
<path fill="#ddd" opacity="1.00" d=" M 441.35 312.50 C 443.10 310.97 446.30 311.76 446.97 314.03 C 448.42 316.80 444.85 320.20 442.15 318.65 C 439.68 317.73 439.25 314.04 441.35 312.50 Z" />
<path fill="#ddd" opacity="1.00" d=" M 470.21 312.18 C 472.71 310.59 476.17 313.13 475.56 315.96 C 475.26 318.56 471.77 319.95 469.79 318.26 C 467.71 316.87 467.90 313.23 470.21 312.18 Z" />
<path fill="#ddd" opacity="1.00" d=" M 498.31 312.27 C 502.25 309.54 506.30 316.07 502.28 318.42 C 498.40 321.13 494.33 314.69 498.31 312.27 Z" />
<path fill="#ddd" opacity="1.00" d=" M 526.32 312.59 C 528.33 310.63 532.15 312.17 532.29 314.97 C 532.70 317.72 529.47 319.96 527.04 318.62 C 524.72 317.60 524.32 314.11 526.32 312.59 Z" />
<path fill="#ddd" opacity="1.00" d=" M 555.23 312.17 C 557.72 310.57 561.41 313.17 560.54 316.06 C 560.23 318.62 556.73 319.92 554.79 318.24 C 552.71 316.80 552.96 313.26 555.23 312.17 Z" />
<path fill="#ddd" opacity="1.00" d=" M 583.24 312.39 C 585.08 310.96 588.13 311.90 588.77 314.16 C 589.93 316.83 586.79 320.00 584.12 318.75 C 581.38 318.02 580.87 313.87 583.24 312.39 Z" />
<path fill="#ddd" opacity="1.00" d=" M 612.11 312.06 C 616.59 309.69 619.59 317.45 614.85 318.80 C 610.70 320.45 608.12 313.77 612.11 312.06 Z" />
<path fill="#ddd" opacity="1.00" d=" M 640.26 312.18 C 642.72 310.62 646.28 313.03 645.60 315.92 C 645.46 318.26 642.59 319.68 640.58 318.66 C 637.85 317.70 637.73 313.46 640.26 312.18 Z" />
<path fill="#ddd" opacity="1.00" d=" M 668.28 312.40 C 670.38 310.67 673.91 312.35 674.01 315.03 C 674.36 317.53 671.51 319.81 669.17 318.76 C 666.46 317.98 665.87 313.86 668.28 312.40 Z" />
<path fill="#ddd" opacity="1.00" d=" M 0.92 341.93 C 2.60 339.10 7.37 339.70 7.86 343.09 C 8.67 346.98 2.95 348.91 1.01 345.57 C 0.38 344.38 0.35 343.16 0.92 341.93 Z" />
<path fill="#ddd" opacity="1.00" d=" M 30.59 340.68 C 33.26 338.59 37.51 341.90 35.96 345.00 C 35.24 347.54 31.46 348.13 29.88 346.08 C 28.37 344.59 28.78 341.76 30.59 340.68 Z" />
<path fill="#ddd" opacity="1.00" d=" M 59.33 340.44 C 61.69 339.13 64.94 341.25 64.54 343.98 C 64.60 347.24 59.72 348.53 58.03 345.86 C 56.69 344.15 57.33 341.34 59.33 340.44 Z" />
<path fill="#ddd" opacity="1.00" d=" M 115.57 340.72 C 117.88 338.90 121.66 341.04 121.27 343.97 C 121.23 346.80 117.41 348.40 115.37 346.52 C 113.47 345.15 113.58 341.95 115.57 340.72 Z" />
<path fill="#ddd" opacity="1.00" d=" M 144.38 340.42 C 147.13 338.92 150.75 342.06 149.36 344.96 C 148.72 347.35 145.30 348.07 143.57 346.41 C 141.64 344.85 142.11 341.42 144.38 340.42 Z" />
<path fill="#ddd" opacity="1.00" d=" M 229.42 340.42 C 231.76 339.20 234.85 341.16 234.65 343.81 C 234.77 346.80 230.64 348.48 228.56 346.39 C 226.68 344.78 227.14 341.41 229.42 340.42 Z" />
<path fill="#ddd" opacity="1.00" d=" M 257.45 340.60 C 259.84 338.98 263.32 341.11 263.01 343.97 C 262.87 346.69 259.47 348.30 257.27 346.70 C 255.16 345.32 255.25 341.84 257.45 340.60 Z" />
<path fill="#ddd" opacity="1.00" d=" M 286.29 340.32 C 289.04 339.08 292.40 342.08 291.12 344.93 C 290.41 347.57 286.53 348.12 284.92 346.03 C 283.33 344.26 284.13 341.21 286.29 340.32 Z" />
<path fill="#ddd" opacity="1.00" d=" M 315.19 340.17 C 317.45 339.56 319.97 341.53 319.65 343.93 C 319.80 347.29 314.67 348.57 313.06 345.73 C 311.61 343.78 312.81 340.65 315.19 340.17 Z" />
<path fill="#ddd" opacity="1.00" d=" M 342.47 340.64 C 344.83 338.91 348.52 341.20 348.01 344.08 C 347.89 346.79 344.24 348.35 342.18 346.59 C 340.22 345.18 340.30 341.80 342.47 340.64 Z" />
<path fill="#ddd" opacity="1.00" d=" M 371.32 340.35 C 373.73 339.24 376.74 341.36 376.39 344.02 C 376.29 346.86 372.49 348.37 370.42 346.50 C 368.35 344.91 368.87 341.27 371.32 340.35 Z" />
<path fill="#ddd" opacity="1.00" d=" M 400.22 340.19 C 402.90 339.36 405.68 342.36 404.49 344.96 C 403.80 347.37 400.35 348.10 398.65 346.36 C 396.47 344.63 397.50 340.65 400.22 340.19 Z" />
<path fill="#ddd" opacity="1.00" d=" M 427.47 340.64 C 429.84 338.96 433.52 341.12 433.02 344.04 C 433.03 346.80 429.34 348.28 427.28 346.62 C 425.26 345.25 425.39 341.88 427.47 340.64 Z" />
<path fill="#ddd" opacity="1.00" d=" M 456.31 340.36 C 458.72 339.22 461.79 341.34 461.41 344.03 C 461.33 346.91 457.41 348.37 455.38 346.44 C 453.44 344.84 453.95 341.29 456.31 340.36 Z" />
<path fill="#ddd" opacity="1.00" d=" M 485.16 340.20 C 487.87 339.30 490.67 342.31 489.55 344.94 C 488.75 347.63 484.62 348.17 483.15 345.78 C 481.68 343.85 482.80 340.73 485.16 340.20 Z" />
<path fill="#ddd" opacity="1.00" d=" M 513.14 340.29 C 515.95 339.08 519.17 342.17 517.87 345.00 C 517.10 347.47 513.43 348.15 511.82 346.14 C 510.01 344.43 510.87 341.13 513.14 340.29 Z" />
<path fill="#ddd" opacity="1.00" d=" M 569.45 340.49 C 571.83 339.11 575.22 341.22 574.78 344.02 C 574.74 346.68 571.45 348.15 569.28 346.83 C 566.95 345.51 567.02 341.66 569.45 340.49 Z" />
<path fill="#ddd" opacity="1.00" d=" M 597.54 340.68 C 599.90 338.90 603.58 341.13 603.16 344.06 C 603.01 346.77 599.44 348.31 597.36 346.63 C 595.37 345.26 595.37 341.86 597.54 340.68 Z" />
<path fill="#ddd" opacity="1.00" d=" M 625.66 340.79 C 628.01 338.87 631.89 340.96 631.52 343.99 C 631.39 346.91 627.49 348.42 625.43 346.40 C 623.74 344.98 623.88 342.07 625.66 340.79 Z" />
<path fill="#ddd" opacity="1.00" d=" M 654.38 340.54 C 657.12 338.78 661.03 341.94 659.60 344.96 C 658.94 347.38 655.37 348.14 653.73 346.30 C 651.89 344.83 652.37 341.64 654.38 340.54 Z" />
<path fill="#ddd" opacity="1.00" d=" M 86.49 341.33 C 87.95 339.59 91.04 339.63 92.27 341.63 C 94.10 343.91 91.95 347.79 89.00 347.27 C 86.09 347.35 84.62 343.40 86.49 341.33 Z" />
<path fill="#ddd" opacity="1.00" d=" M 172.22 340.73 C 174.17 339.22 177.56 340.43 177.85 342.95 C 178.49 345.26 176.34 347.70 173.96 347.28 C 170.72 347.23 169.49 342.41 172.22 340.73 Z" />
<path fill="#ddd" opacity="1.00" d=" M 199.68 341.64 C 201.24 338.98 205.91 339.94 206.22 343.02 C 206.87 345.46 204.37 347.88 201.94 347.22 C 199.41 346.95 198.26 343.59 199.68 341.64 Z" />
<path fill="#ddd" opacity="1.00" d=" M 540.28 341.13 C 541.84 339.38 545.13 339.88 546.07 342.05 C 547.33 344.24 545.55 347.49 542.95 347.28 C 539.75 347.69 537.91 343.16 540.28 341.13 Z" />
<path fill="#ddd" opacity="1.00" d=" M 16.25 369.12 C 18.40 367.36 22.22 369.11 22.02 371.98 C 22.33 374.90 18.44 376.81 16.26 374.95 C 14.34 373.67 14.34 370.40 16.25 369.12 Z" />
<path fill="#ddd" opacity="1.00" d=" M 44.33 369.34 C 46.43 367.25 50.53 368.98 50.41 371.98 C 50.60 374.65 47.40 376.57 45.11 375.28 C 42.84 374.27 42.49 370.91 44.33 369.34 Z" />
<path fill="#ddd" opacity="1.00" d=" M 73.19 368.97 C 75.77 367.16 79.63 369.92 78.62 372.95 C 78.10 376.00 73.37 376.68 72.01 373.91 C 70.91 372.32 71.53 369.91 73.19 368.97 Z" />
<path fill="#ddd" opacity="1.00" d=" M 101.33 369.11 C 103.56 367.37 107.26 369.13 107.10 372.03 C 107.32 374.93 103.50 376.77 101.30 374.97 C 99.36 373.64 99.34 370.40 101.33 369.11 Z" />
<path fill="#ddd" opacity="1.00" d=" M 129.37 369.30 C 131.24 367.64 134.75 368.48 135.30 371.06 C 136.13 373.56 133.63 376.24 131.07 375.62 C 128.20 375.15 127.23 371.15 129.37 369.30 Z" />
<path fill="#ddd" opacity="1.00" d=" M 158.18 368.96 C 160.43 367.48 163.86 369.21 163.80 371.96 C 164.02 374.79 160.32 376.83 158.10 375.01 C 155.89 373.77 156.08 370.20 158.18 368.96 Z" />
<path fill="#ddd" opacity="1.00" d=" M 186.28 369.16 C 188.80 367.03 193.15 369.77 191.99 372.99 C 191.51 375.83 187.23 376.63 185.65 374.30 C 184.36 372.80 184.73 370.32 186.28 369.16 Z" />
<path fill="#ddd" opacity="1.00" d=" M 214.43 369.35 C 216.20 367.60 219.66 368.45 220.30 370.91 C 221.34 373.48 218.64 376.33 216.02 375.59 C 213.22 375.11 212.22 371.10 214.43 369.35 Z" />
<path fill="#ddd" opacity="1.00" d=" M 243.22 368.98 C 245.46 367.48 248.96 369.19 248.79 371.98 C 249.05 374.82 245.40 376.76 243.15 375.06 C 241.02 373.74 241.06 370.24 243.22 368.98 Z" />
<path fill="#ddd" opacity="1.00" d=" M 271.28 369.18 C 273.11 367.63 276.53 368.60 277.02 371.05 C 277.84 373.45 275.58 376.09 273.08 375.64 C 269.95 375.50 268.79 370.93 271.28 369.18 Z" />
<path fill="#ddd" opacity="1.00" d=" M 299.33 369.45 C 301.36 367.21 305.64 368.89 305.53 371.96 C 305.73 374.70 302.38 376.65 300.09 375.20 C 297.99 374.15 297.65 371.04 299.33 369.45 Z" />
<path fill="#ddd" opacity="1.00" d=" M 328.20 369.03 C 330.15 367.66 333.25 368.73 333.75 371.13 C 334.67 373.93 331.39 376.66 328.78 375.37 C 326.19 374.43 325.84 370.44 328.20 369.03 Z" />
<path fill="#ddd" opacity="1.00" d=" M 356.28 369.23 C 358.46 367.32 362.34 369.01 362.23 371.99 C 362.42 374.97 358.48 376.85 356.29 374.86 C 354.50 373.55 354.53 370.56 356.28 369.23 Z" />
<path fill="#ddd" opacity="1.00" d=" M 384.43 369.39 C 386.20 367.62 389.78 368.41 390.38 370.95 C 391.35 373.52 388.69 376.36 386.06 375.57 C 383.33 375.08 382.36 371.17 384.43 369.39 Z" />
<path fill="#ddd" opacity="1.00" d=" M 413.25 369.03 C 415.44 367.44 418.95 369.17 418.92 371.93 C 419.16 374.80 415.45 376.80 413.19 375.01 C 411.05 373.77 411.17 370.27 413.25 369.03 Z" />
<path fill="#ddd" opacity="1.00" d=" M 441.31 369.23 C 443.78 366.96 448.25 369.72 447.12 372.96 C 446.62 375.84 442.33 376.65 440.74 374.26 C 439.52 372.79 439.79 370.39 441.31 369.23 Z" />
<path fill="#ddd" opacity="1.00" d=" M 469.37 369.51 C 471.44 367.17 475.79 368.88 475.61 372.04 C 475.78 374.79 472.39 376.61 470.12 375.20 C 468.13 374.12 467.69 371.05 469.37 369.51 Z" />
<path fill="#ddd" opacity="1.00" d=" M 498.21 369.10 C 500.39 367.38 504.08 369.13 503.92 371.98 C 504.17 374.83 500.48 376.76 498.24 375.03 C 496.23 373.74 496.14 370.36 498.21 369.10 Z" />
<path fill="#ddd" opacity="1.00" d=" M 526.34 369.23 C 528.19 367.59 531.59 368.60 532.16 371.06 C 532.96 373.50 530.56 376.21 528.03 375.61 C 525.00 375.33 523.97 370.98 526.34 369.23 Z" />
<path fill="#ddd" opacity="1.00" d=" M 554.41 369.45 C 556.51 367.24 560.81 368.87 560.65 372.01 C 560.83 374.77 557.43 376.64 555.15 375.20 C 553.10 374.09 552.78 371.06 554.41 369.45 Z" />
<path fill="#ddd" opacity="1.00" d=" M 583.30 369.04 C 585.84 367.15 589.78 369.76 588.90 372.85 C 588.45 375.68 584.37 376.64 582.63 374.45 C 581.15 372.93 581.52 370.16 583.30 369.04 Z" />
<path fill="#ddd" opacity="1.00" d=" M 611.27 369.30 C 613.44 367.31 617.50 368.94 617.32 372.02 C 617.54 375.06 613.42 376.89 611.31 374.77 C 609.64 373.46 609.71 370.67 611.27 369.30 Z" />
<path fill="#ddd" opacity="1.00" d=" M 639.51 369.39 C 642.76 366.09 648.07 371.47 644.61 374.62 C 641.41 378.13 635.96 372.55 639.51 369.39 Z" />
<path fill="#ddd" opacity="1.00" d=" M 668.28 369.09 C 670.45 367.36 674.15 369.16 674.02 371.98 C 674.28 374.90 670.45 376.79 668.23 374.96 C 666.24 373.68 666.29 370.34 668.28 369.09 Z" />
<path fill="#ddd" opacity="1.00" d=" M 0.98 398.53 C 2.72 395.64 7.54 396.55 7.86 399.94 C 8.50 403.57 3.20 405.62 1.20 402.48 C 0.40 401.26 0.26 399.81 0.98 398.53 Z" />
<path fill="#ddd" opacity="1.00" d=" M 30.36 397.50 C 32.13 396.01 35.21 396.84 35.94 399.04 C 37.39 401.87 33.88 405.19 31.11 403.71 C 28.65 402.77 28.22 399.02 30.36 397.50 Z" />
<path fill="#ddd" opacity="1.00" d=" M 59.20 397.19 C 61.28 395.91 64.52 397.50 64.50 400.01 C 65.08 402.80 61.67 404.97 59.27 403.65 C 56.75 402.47 56.67 398.39 59.20 397.19 Z" />
<path fill="#ddd" opacity="1.00" d=" M 87.29 397.32 C 89.80 395.52 93.66 398.07 92.83 401.08 C 92.57 403.76 88.70 405.04 86.86 403.07 C 85.08 401.59 85.35 398.54 87.29 397.32 Z" />
<path fill="#ddd" opacity="1.00" d=" M 115.41 397.51 C 117.49 395.73 121.05 397.24 121.25 399.96 C 121.73 402.64 118.58 404.94 116.16 403.73 C 113.68 402.75 113.24 399.04 115.41 397.51 Z" />
<path fill="#ddd" opacity="1.00" d=" M 144.16 397.22 C 146.61 395.64 150.15 398.05 149.59 400.89 C 149.40 403.50 146.03 404.91 143.96 403.42 C 141.71 402.09 141.88 398.41 144.16 397.22 Z" />
<path fill="#ddd" opacity="1.00" d=" M 172.30 397.33 C 174.42 395.85 177.78 397.34 177.90 399.94 C 178.40 402.55 175.45 404.84 173.03 403.81 C 170.32 402.91 169.91 398.82 172.30 397.33 Z" />
<path fill="#ddd" opacity="1.00" d=" M 201.12 397.11 C 203.60 395.73 206.91 398.23 206.24 401.01 C 205.96 403.90 201.85 405.09 200.04 402.86 C 198.33 401.24 198.93 398.01 201.12 397.11 Z" />
<path fill="#ddd" opacity="1.00" d=" M 229.25 397.23 C 231.70 395.63 235.15 398.04 234.63 400.87 C 234.40 403.55 230.84 405.03 228.79 403.27 C 226.72 401.83 227.01 398.33 229.25 397.23 Z" />
<path fill="#ddd" opacity="1.00" d=" M 257.32 397.36 C 260.09 395.23 264.35 398.71 262.69 401.82 C 261.75 404.66 257.23 404.73 256.11 402.00 C 255.23 400.40 255.88 398.36 257.32 397.36 Z" />
<path fill="#ddd" opacity="1.00" d=" M 286.10 397.12 C 290.53 394.74 293.61 402.28 288.98 403.83 C 284.77 405.58 282.10 398.90 286.10 397.12 Z" />
<path fill="#ddd" opacity="1.00" d=" M 314.27 397.21 C 316.37 395.90 319.64 397.47 319.62 400.03 C 320.20 402.84 316.68 405.05 314.32 403.59 C 311.84 402.42 311.84 398.42 314.27 397.21 Z" />
<path fill="#ddd" opacity="1.00" d=" M 342.31 397.39 C 344.45 395.77 347.93 397.35 348.01 400.05 C 348.51 402.97 344.77 405.14 342.42 403.46 C 340.29 402.14 340.24 398.77 342.31 397.39 Z" />
<path fill="#ddd" opacity="1.00" d=" M 371.12 397.14 C 373.61 395.67 377.03 398.25 376.33 401.04 C 376.00 403.61 372.64 404.94 370.62 403.35 C 368.44 401.90 368.71 398.23 371.12 397.14 Z" />
<path fill="#ddd" opacity="1.00" d=" M 399.24 397.22 C 401.42 395.88 404.59 397.47 404.73 400.06 C 405.17 402.83 401.70 405.08 399.35 403.57 C 396.89 402.39 396.88 398.52 399.24 397.22 Z" />
<path fill="#ddd" opacity="1.00" d=" M 427.32 397.41 C 431.16 394.48 435.48 400.90 431.50 403.40 C 427.71 406.24 423.47 399.93 427.32 397.41 Z" />
<path fill="#ddd" opacity="1.00" d=" M 456.17 397.15 C 458.67 395.69 462.09 398.23 461.35 401.06 C 461.05 403.91 456.97 405.07 455.17 402.88 C 453.49 401.31 454.02 398.06 456.17 397.15 Z" />
<path fill="#ddd" opacity="1.00" d=" M 484.30 397.26 C 486.76 395.59 490.37 398.05 489.73 400.96 C 489.49 403.61 485.95 404.97 483.95 403.29 C 481.84 401.91 482.10 398.42 484.30 397.26 Z" />
<path fill="#ddd" opacity="1.00" d=" M 512.32 397.48 C 514.41 395.71 517.92 397.31 518.11 399.99 C 518.63 402.94 514.80 405.24 512.45 403.40 C 510.37 402.16 510.32 398.79 512.32 397.48 Z" />
<path fill="#ddd" opacity="1.00" d=" M 541.15 397.15 C 543.27 395.94 546.32 397.52 546.44 400.00 C 546.88 402.63 543.77 404.96 541.40 403.70 C 538.58 402.76 538.53 398.36 541.15 397.15 Z" />
<path fill="#ddd" opacity="1.00" d=" M 569.32 397.28 C 571.71 395.62 575.36 397.95 574.75 400.84 C 574.66 403.61 570.81 405.10 568.84 403.16 C 566.94 401.75 567.20 398.35 569.32 397.28 Z" />
<path fill="#ddd" opacity="1.00" d=" M 597.29 397.50 C 599.72 395.41 603.86 397.88 603.09 401.02 C 602.78 403.80 598.91 405.05 597.01 403.02 C 595.36 401.56 595.59 398.82 597.29 397.50 Z" />
<path fill="#ddd" opacity="1.00" d=" M 626.22 397.14 C 628.69 395.71 632.01 398.15 631.50 400.93 C 631.21 403.51 627.96 404.91 625.88 403.44 C 623.53 402.10 623.78 398.25 626.22 397.14 Z" />
<path fill="#ddd" opacity="1.00" d=" M 654.29 397.27 C 656.10 396.12 658.93 396.97 659.57 399.08 C 661.11 402.09 657.00 405.47 654.31 403.47 C 652.00 402.24 652.06 398.55 654.29 397.27 Z" />
<path fill="#ddd" opacity="1.00" d=" M 16.43 425.68 C 18.81 423.95 22.55 426.18 22.01 429.12 C 21.97 431.44 19.10 433.14 17.03 432.09 C 14.36 431.18 14.07 427.10 16.43 425.68 Z" />
<path fill="#ddd" opacity="1.00" d=" M 45.34 425.39 C 48.07 424.04 51.38 427.12 50.21 429.94 C 49.52 432.32 46.14 433.22 44.38 431.46 C 42.33 429.85 42.93 426.31 45.34 425.39 Z" />
<path fill="#ddd" opacity="1.00" d=" M 101.54 425.67 C 105.72 422.72 109.57 430.25 104.96 432.02 C 101.06 434.21 97.69 427.72 101.54 425.67 Z" />
<path fill="#ddd" opacity="1.00" d=" M 158.43 425.53 C 161.16 423.82 164.82 427.00 163.57 429.93 C 162.90 432.40 159.41 433.22 157.66 431.37 C 155.83 429.80 156.32 426.60 158.43 425.53 Z" />
<path fill="#ddd" opacity="1.00" d=" M 186.54 425.69 C 188.57 424.23 191.72 425.60 192.09 428.06 C 192.76 430.77 189.55 433.40 187.06 432.05 C 184.43 431.11 184.08 427.03 186.54 425.69 Z" />
<path fill="#ddd" opacity="1.00" d=" M 214.65 425.84 C 217.29 423.52 221.72 426.80 220.25 429.99 C 219.47 432.63 215.49 433.24 213.95 430.96 C 212.76 429.41 213.06 426.98 214.65 425.84 Z" />
<path fill="#ddd" opacity="1.00" d=" M 271.61 425.66 C 274.32 423.70 278.28 426.89 276.96 429.95 C 276.21 432.51 272.50 433.24 270.84 431.16 C 269.31 429.62 269.74 426.74 271.61 425.66 Z" />
<path fill="#ddd" opacity="1.00" d=" M 299.69 425.83 C 301.69 424.18 305.08 425.46 305.48 428.04 C 306.03 430.53 303.51 433.00 301.03 432.29 C 298.15 431.73 297.22 427.46 299.69 425.83 Z" />
<path fill="#ddd" opacity="1.00" d=" M 328.36 425.63 C 330.69 424.00 334.19 426.19 333.88 428.98 C 333.76 431.27 331.22 433.05 329.04 432.18 C 326.18 431.39 325.73 426.98 328.36 425.63 Z" />
<path fill="#ddd" opacity="1.00" d=" M 356.63 425.66 C 358.98 423.99 362.61 426.15 362.17 429.02 C 362.20 432.18 357.55 433.64 355.77 431.02 C 354.38 429.45 354.81 426.71 356.63 425.66 Z" />
<path fill="#ddd" opacity="1.00" d=" M 413.39 425.59 C 417.53 422.90 421.30 430.02 416.92 431.97 C 412.96 434.28 409.43 427.76 413.39 425.59 Z" />
<path fill="#ddd" opacity="1.00" d=" M 441.56 425.73 C 443.56 424.25 446.82 425.52 447.18 428.01 C 447.94 430.81 444.53 433.44 442.01 432.01 C 439.55 430.96 439.30 427.12 441.56 425.73 Z" />
<path fill="#ddd" opacity="1.00" d=" M 526.58 425.74 C 528.91 423.93 532.68 426.08 532.29 429.01 C 532.20 431.49 529.23 433.24 527.05 431.99 C 524.59 430.93 524.36 427.17 526.58 425.74 Z" />
<path fill="#ddd" opacity="1.00" d=" M 555.38 425.48 C 557.75 424.18 560.97 426.27 560.65 429.00 C 560.60 431.91 556.59 433.56 554.58 431.41 C 552.61 429.89 553.13 426.45 555.38 425.48 Z" />
<path fill="#ddd" opacity="1.00" d=" M 583.45 425.64 C 585.50 424.22 588.61 425.69 588.93 428.13 C 589.54 430.74 586.52 433.26 584.07 432.14 C 581.28 431.28 580.89 427.01 583.45 425.64 Z" />
<path fill="#ddd" opacity="1.00" d=" M 612.30 425.41 C 614.62 424.21 617.73 426.43 617.28 429.04 C 617.29 431.53 614.13 433.27 612.02 431.95 C 609.31 430.80 609.51 426.33 612.30 425.41 Z" />
<path fill="#ddd" opacity="1.00" d=" M 668.49 425.61 C 670.89 424.00 674.43 426.21 674.02 429.07 C 673.93 432.13 669.50 433.62 667.67 431.11 C 666.09 429.53 666.64 426.72 668.49 425.61 Z" />
<path fill="#ddd" opacity="1.00" d=" M 72.36 426.28 C 74.25 424.10 78.39 425.14 78.71 428.12 C 79.26 430.67 76.50 433.12 74.02 432.22 C 71.52 431.56 70.69 428.15 72.36 426.28 Z" />
<path fill="#ddd" opacity="1.00" d=" M 129.20 426.21 C 130.98 424.08 134.95 425.19 135.35 427.96 C 136.05 430.48 133.42 433.02 130.93 432.27 C 128.26 431.78 127.27 428.02 129.20 426.21 Z" />
<path fill="#ddd" opacity="1.00" d=" M 242.46 426.29 C 245.39 422.79 251.02 427.48 248.07 430.99 C 245.21 434.93 239.12 429.85 242.46 426.29 Z" />
<path fill="#ddd" opacity="1.00" d=" M 384.24 426.28 C 386.03 424.06 390.14 425.18 390.49 428.04 C 391.13 430.58 388.41 433.10 385.95 432.22 C 383.37 431.71 382.45 428.08 384.24 426.28 Z" />
<path fill="#ddd" opacity="1.00" d=" M 469.31 426.19 C 471.46 423.78 475.92 425.68 475.60 428.91 C 475.60 431.54 472.33 433.32 470.13 431.89 C 468.10 430.80 467.80 427.85 469.31 426.19 Z" />
<path fill="#ddd" opacity="1.00" d=" M 497.49 426.44 C 499.17 424.07 503.35 425.05 503.83 427.88 C 504.68 430.57 501.60 433.30 499.06 432.13 C 496.73 431.47 495.93 428.20 497.49 426.44 Z" />
<path fill="#ddd" opacity="1.00" d=" M 639.34 426.30 C 641.12 424.06 645.34 425.16 645.60 428.10 C 646.33 430.99 642.74 433.53 640.26 431.90 C 638.23 430.92 637.84 427.88 639.34 426.30 Z" />
<path fill="#ddd" opacity="1.00" d=" M 2.06 454.27 C 4.15 452.22 8.00 454.16 7.88 457.00 C 8.18 459.89 4.16 461.99 2.05 459.89 C -0.02 458.49 0.07 455.68 2.06 454.27 Z" />
<path fill="#ddd" opacity="1.00" d=" M 30.26 454.29 C 32.72 451.94 37.30 454.78 36.08 458.04 C 35.59 460.54 32.17 461.55 30.29 459.92 C 28.55 458.56 28.52 455.65 30.26 454.29 Z" />
<path fill="#ddd" opacity="1.00" d=" M 58.39 454.48 C 60.42 452.23 64.70 453.92 64.53 456.97 C 64.91 459.86 61.21 461.75 58.97 460.15 C 57.06 459.01 56.73 455.97 58.39 454.48 Z" />
<path fill="#ddd" opacity="1.00" d=" M 87.16 454.12 C 89.35 452.40 92.97 454.15 92.91 456.95 C 93.13 459.40 90.38 461.46 88.10 460.50 C 85.34 459.78 84.82 455.63 87.16 454.12 Z" />
<path fill="#ddd" opacity="1.00" d=" M 115.32 454.26 C 116.95 452.88 119.86 453.29 120.79 455.30 C 122.40 457.75 119.94 461.25 117.09 460.68 C 114.04 460.42 112.91 456.06 115.32 454.26 Z" />
<path fill="#ddd" opacity="1.00" d=" M 143.49 454.40 C 145.57 452.31 149.67 453.91 149.62 456.92 C 149.89 459.55 146.74 461.62 144.43 460.35 C 142.12 459.39 141.64 456.05 143.49 454.40 Z" />
<path fill="#ddd" opacity="1.00" d=" M 172.27 454.08 C 174.43 452.43 178.03 454.16 177.90 456.92 C 178.34 459.86 174.46 461.86 172.22 460.04 C 170.16 458.76 170.24 455.36 172.27 454.08 Z" />
<path fill="#ddd" opacity="1.00" d=" M 200.37 454.28 C 202.50 452.32 206.40 454.05 206.30 456.98 C 206.52 459.61 203.49 461.52 201.15 460.43 C 198.74 459.45 198.36 455.83 200.37 454.28 Z" />
<path fill="#ddd" opacity="1.00" d=" M 228.39 454.54 C 230.43 452.25 234.76 453.83 234.64 456.96 C 234.89 459.30 232.20 461.37 229.99 460.55 C 227.42 459.99 226.49 456.33 228.39 454.54 Z" />
<path fill="#ddd" opacity="1.00" d=" M 257.24 454.11 C 259.13 452.67 262.25 453.69 262.85 456.02 C 263.83 458.72 260.80 461.63 258.14 460.50 C 255.41 459.68 254.89 455.66 257.24 454.11 Z" />
<path fill="#ddd" opacity="1.00" d=" M 285.35 454.32 C 287.19 452.60 290.65 453.58 291.21 456.07 C 292.23 458.91 288.85 461.76 286.21 460.39 C 283.81 459.48 283.36 455.87 285.35 454.32 Z" />
<path fill="#ddd" opacity="1.00" d=" M 314.19 453.95 C 316.41 452.50 319.82 454.30 319.67 457.01 C 319.86 459.37 317.34 461.31 315.10 460.59 C 312.09 459.97 311.48 455.39 314.19 453.95 Z" />
<path fill="#ddd" opacity="1.00" d=" M 342.33 454.11 C 344.50 452.41 348.12 454.17 348.02 456.95 C 348.30 459.44 345.36 461.53 343.12 460.45 C 340.41 459.68 339.93 455.53 342.33 454.11 Z" />
<path fill="#ddd" opacity="1.00" d=" M 370.33 454.35 C 372.45 452.29 376.47 453.98 376.39 456.97 C 376.62 459.64 373.43 461.59 371.11 460.35 C 368.85 459.28 368.44 455.96 370.33 454.35 Z" />
<path fill="#ddd" opacity="1.00" d=" M 399.14 454.02 C 401.34 452.43 404.92 454.28 404.73 457.05 C 404.89 459.39 402.26 461.39 400.05 460.53 C 397.15 459.91 396.52 455.43 399.14 454.02 Z" />
<path fill="#ddd" opacity="1.00" d=" M 427.28 454.18 C 429.39 452.33 433.23 454.17 433.02 456.99 C 433.33 459.59 430.32 461.49 428.01 460.46 C 425.51 459.50 425.03 455.66 427.28 454.18 Z" />
<path fill="#ddd" opacity="1.00" d=" M 455.32 454.39 C 457.43 452.26 461.63 454.00 461.39 457.05 C 461.67 459.82 458.12 461.73 455.89 460.19 C 453.82 459.08 453.64 455.91 455.32 454.39 Z" />
<path fill="#ddd" opacity="1.00" d=" M 484.25 453.99 C 486.79 452.18 490.61 454.95 489.65 457.93 C 489.21 460.66 485.22 461.71 483.47 459.57 C 481.92 457.99 482.26 455.03 484.25 453.99 Z" />
<path fill="#ddd" opacity="1.00" d=" M 512.30 454.16 C 514.81 452.06 519.08 454.82 518.00 458.00 C 517.48 460.82 513.30 461.70 511.67 459.35 C 510.30 457.88 510.71 455.30 512.30 454.16 Z" />
<path fill="#ddd" opacity="1.00" d=" M 540.36 454.42 C 542.46 452.24 546.64 454.00 546.45 457.06 C 546.68 459.73 543.38 461.64 541.12 460.29 C 538.93 459.28 538.57 455.96 540.36 454.42 Z" />
<path fill="#ddd" opacity="1.00" d=" M 569.24 453.99 C 571.47 452.46 574.91 454.28 574.79 457.00 C 574.94 459.38 572.40 461.39 570.12 460.55 C 567.19 459.90 566.67 455.46 569.24 453.99 Z" />
<path fill="#ddd" opacity="1.00" d=" M 597.29 454.19 C 599.83 452.03 604.16 454.82 603.01 458.02 C 602.53 460.50 599.12 461.56 597.24 459.94 C 595.44 458.55 595.45 455.54 597.29 454.19 Z" />
<path fill="#ddd" opacity="1.00" d=" M 625.38 454.38 C 627.19 452.67 630.63 453.44 631.30 455.92 C 632.23 458.08 630.30 460.81 627.96 460.69 C 624.71 461.00 622.92 456.47 625.38 454.38 Z" />
<path fill="#ddd" opacity="1.00" d=" M 654.18 454.06 C 656.38 452.42 659.97 454.22 659.85 456.99 C 660.03 459.39 657.34 461.43 655.09 460.51 C 652.26 459.82 651.68 455.54 654.18 454.06 Z" />
<path fill="#ddd" opacity="1.00" d=" M 16.36 482.44 C 18.43 480.86 21.90 482.38 22.01 485.01 C 22.56 487.94 18.80 490.23 16.44 488.47 C 14.31 487.25 14.27 483.71 16.36 482.44 Z" />
<path fill="#ddd" opacity="1.00" d=" M 45.11 482.15 C 47.63 480.87 50.94 483.13 50.37 485.97 C 50.11 488.66 46.62 489.96 44.55 488.35 C 42.44 486.82 42.81 483.29 45.11 482.15 Z" />
<path fill="#ddd" opacity="1.00" d=" M 73.23 482.31 C 75.74 480.64 79.43 483.16 78.69 486.09 C 78.34 488.73 74.84 489.97 72.84 488.28 C 70.88 486.83 71.08 483.48 73.23 482.31 Z" />
<path fill="#ddd" opacity="1.00" d=" M 101.37 482.47 C 103.42 480.85 106.95 482.33 107.08 484.99 C 107.64 487.95 103.83 490.21 101.47 488.47 C 99.34 487.20 99.27 483.79 101.37 482.47 Z" />
<path fill="#ddd" opacity="1.00" d=" M 130.14 482.16 C 132.27 481.12 135.25 482.47 135.39 484.96 C 135.96 487.74 132.63 490.02 130.20 488.69 C 127.55 487.54 127.58 483.38 130.14 482.16 Z" />
<path fill="#ddd" opacity="1.00" d=" M 158.22 482.34 C 160.29 480.97 163.54 482.37 163.73 484.90 C 164.37 487.77 160.77 490.18 158.34 488.57 C 155.95 487.42 155.93 483.60 158.22 482.34 Z" />
<path fill="#ddd" opacity="1.00" d=" M 186.43 482.45 C 188.84 480.53 192.76 482.99 192.11 486.01 C 191.79 488.57 188.55 489.92 186.46 488.46 C 184.38 487.14 184.32 483.77 186.43 482.45 Z" />
<path fill="#ddd" opacity="1.00" d=" M 215.12 482.21 C 217.30 481.03 220.32 482.51 220.49 485.07 C 220.89 487.81 217.62 490.02 215.22 488.68 C 212.61 487.54 212.60 483.46 215.12 482.21 Z" />
<path fill="#ddd" opacity="1.00" d=" M 244.06 481.99 C 246.11 481.23 248.78 482.77 248.74 485.05 C 249.44 488.18 245.05 490.38 242.87 488.18 C 240.65 486.58 241.43 482.66 244.06 481.99 Z" />
<path fill="#ddd" opacity="1.00" d=" M 271.38 482.48 C 273.47 480.87 276.92 482.30 277.14 484.96 C 277.74 487.95 273.88 490.25 271.50 488.43 C 269.43 487.19 269.39 483.81 271.38 482.48 Z" />
<path fill="#ddd" opacity="1.00" d=" M 300.16 482.18 C 304.29 479.86 307.84 486.65 303.58 488.66 C 299.43 491.00 296.02 484.26 300.16 482.18 Z" />
<path fill="#ddd" opacity="1.00" d=" M 328.28 482.34 C 330.76 480.66 334.39 483.01 333.84 485.93 C 333.61 488.70 329.89 490.06 327.89 488.20 C 325.97 486.77 326.27 483.54 328.28 482.34 Z" />
<path fill="#ddd" opacity="1.00" d=" M 356.38 482.57 C 358.74 480.46 362.94 482.91 362.14 486.04 C 361.90 488.86 357.86 490.11 356.03 487.99 C 354.44 486.60 354.64 483.75 356.38 482.57 Z" />
<path fill="#ddd" opacity="1.00" d=" M 385.21 482.21 C 389.34 479.83 392.89 486.72 388.57 488.67 C 384.51 490.99 381.05 484.20 385.21 482.21 Z" />
<path fill="#ddd" opacity="1.00" d=" M 413.26 482.39 C 415.39 480.93 418.62 482.37 418.90 484.95 C 419.43 487.86 415.80 490.17 413.38 488.54 C 411.11 487.31 411.07 483.70 413.26 482.39 Z" />
<path fill="#ddd" opacity="1.00" d=" M 441.42 482.56 C 443.81 480.44 447.96 482.96 447.21 486.06 C 446.88 488.65 443.48 489.97 441.48 488.37 C 439.53 487.06 439.48 483.89 441.42 482.56 Z" />
<path fill="#ddd" opacity="1.00" d=" M 470.19 482.23 C 472.68 480.79 476.11 483.03 475.59 485.93 C 475.36 488.66 471.75 490.00 469.71 488.31 C 467.69 486.82 467.97 483.38 470.19 482.23 Z" />
<path fill="#ddd" opacity="1.00" d=" M 498.40 482.38 C 500.47 480.91 503.82 482.44 503.89 485.03 C 504.45 487.94 500.68 490.24 498.35 488.46 C 496.13 487.24 496.14 483.52 498.40 482.38 Z" />
<path fill="#ddd" opacity="1.00" d=" M 526.38 482.58 C 528.74 480.48 533.00 482.87 532.22 486.01 C 532.01 488.58 528.62 489.95 526.60 488.43 C 524.59 487.19 524.50 483.97 526.38 482.58 Z" />
<path fill="#ddd" opacity="1.00" d=" M 555.18 482.25 C 559.27 479.74 563.01 486.57 558.73 488.65 C 554.71 491.01 551.09 484.39 555.18 482.25 Z" />
<path fill="#ddd" opacity="1.00" d=" M 583.34 482.42 C 586.06 480.28 590.29 483.71 588.69 486.81 C 587.97 489.13 584.54 489.81 582.91 488.09 C 581.12 486.67 581.41 483.57 583.34 482.42 Z" />
<path fill="#ddd" opacity="1.00" d=" M 612.06 482.17 C 614.55 480.85 617.91 483.14 617.24 485.99 C 617.10 488.92 612.76 490.16 611.02 487.84 C 609.31 486.24 610.01 483.14 612.06 482.17 Z" />
<path fill="#ddd" opacity="1.00" d=" M 640.25 482.25 C 642.37 481.01 645.58 482.48 645.62 485.05 C 646.16 487.81 642.72 490.08 640.37 488.63 C 637.83 487.56 637.82 483.45 640.25 482.25 Z" />
<path fill="#ddd" opacity="1.00" d=" M 668.28 482.48 C 670.70 480.52 674.67 482.97 673.99 486.04 C 673.66 488.79 669.88 490.05 667.94 488.13 C 666.21 486.69 666.43 483.70 668.28 482.48 Z" />
<path fill="#ddd" opacity="1.00" d=" M 30.60 510.74 C 33.26 508.70 37.38 511.88 36.00 514.96 C 35.36 517.57 31.45 518.27 29.85 516.16 C 28.40 514.62 28.78 511.83 30.60 510.74 Z" />
<path fill="#ddd" opacity="1.00" d=" M 87.41 510.65 C 90.13 508.82 93.92 511.88 92.73 514.91 C 92.08 517.45 88.36 518.32 86.68 516.29 C 85.07 514.72 85.43 511.74 87.41 510.65 Z" />
<path fill="#ddd" opacity="1.00" d=" M 116.36 510.40 C 119.00 509.15 122.22 512.21 121.08 514.93 C 120.38 517.54 116.52 518.29 114.88 516.15 C 113.20 514.40 114.04 511.11 116.36 510.40 Z" />
<path fill="#ddd" opacity="1.00" d=" M 144.42 510.48 C 147.15 509.01 150.67 512.11 149.39 515.00 C 148.69 517.75 144.40 518.26 143.00 515.83 C 141.68 514.09 142.48 511.38 144.42 510.48 Z" />
<path fill="#ddd" opacity="1.00" d=" M 172.51 510.63 C 174.84 509.09 178.36 511.23 177.90 514.04 C 177.95 516.73 174.41 518.42 172.28 516.80 C 170.10 515.44 170.21 511.78 172.51 510.63 Z" />
<path fill="#ddd" opacity="1.00" d=" M 201.39 510.39 C 203.70 509.34 206.65 511.47 206.29 514.04 C 206.27 516.90 202.40 518.52 200.32 516.56 C 198.28 514.92 198.81 511.17 201.39 510.39 Z" />
<path fill="#ddd" opacity="1.00" d=" M 229.45 510.52 C 231.77 509.22 234.88 511.30 234.68 513.93 C 234.65 516.60 231.38 518.36 229.15 516.90 C 226.67 515.65 226.87 511.53 229.45 510.52 Z" />
<path fill="#ddd" opacity="1.00" d=" M 257.53 510.65 C 260.18 508.85 263.98 511.87 262.83 514.85 C 262.17 517.77 257.67 518.32 256.28 515.69 C 255.13 514.03 255.82 511.61 257.53 510.65 Z" />
<path fill="#ddd" opacity="1.00" d=" M 285.67 510.79 C 288.25 508.66 292.50 511.82 291.13 514.91 C 290.56 517.34 287.09 518.26 285.32 516.53 C 283.55 515.10 283.71 511.94 285.67 510.79 Z" />
<path fill="#ddd" opacity="1.00" d=" M 342.57 510.64 C 344.94 509.06 348.41 511.26 348.02 514.07 C 347.99 516.86 344.26 518.49 342.16 516.65 C 340.18 515.19 340.37 511.78 342.57 510.64 Z" />
<path fill="#ddd" opacity="1.00" d=" M 399.39 510.57 C 401.78 509.13 405.07 511.33 404.73 514.07 C 404.66 516.70 401.35 518.33 399.18 516.89 C 396.84 515.56 396.92 511.70 399.39 510.57 Z" />
<path fill="#ddd" opacity="1.00" d=" M 427.55 510.66 C 429.87 509.06 433.52 511.19 433.02 514.05 C 433.07 516.79 429.40 518.43 427.29 516.73 C 425.25 515.33 425.36 511.85 427.55 510.66 Z" />
<path fill="#ddd" opacity="1.00" d=" M 456.27 510.49 C 458.59 509.23 461.78 511.36 461.41 514.02 C 461.39 516.58 458.17 518.36 456.02 516.94 C 453.49 515.70 453.61 511.49 456.27 510.49 Z" />
<path fill="#ddd" opacity="1.00" d=" M 484.49 510.53 C 487.19 508.96 490.74 512.01 489.59 514.90 C 489.01 517.12 486.05 518.14 484.18 516.85 C 481.80 515.52 482.03 511.63 484.49 510.53 Z" />
<path fill="#ddd" opacity="1.00" d=" M 512.55 510.69 C 515.24 508.79 519.20 511.87 517.93 514.94 C 517.21 517.80 512.73 518.30 511.41 515.67 C 510.27 514.06 510.92 511.69 512.55 510.69 Z" />
<path fill="#ddd" opacity="1.00" d=" M 540.68 510.84 C 542.94 508.94 546.88 511.06 546.45 514.03 C 546.37 516.58 543.24 518.34 541.05 516.96 C 538.78 515.81 538.59 512.24 540.68 510.84 Z" />
<path fill="#ddd" opacity="1.00" d=" M 569.38 510.63 C 571.71 509.09 575.17 511.23 574.77 514.02 C 574.84 517.00 570.54 518.63 568.63 516.33 C 566.92 514.82 567.31 511.63 569.38 510.63 Z" />
<path fill="#ddd" opacity="1.00" d=" M 597.61 510.67 C 599.96 509.08 603.52 511.17 603.16 514.03 C 603.12 516.82 599.47 518.47 597.33 516.69 C 595.29 515.29 595.47 511.87 597.61 510.67 Z" />
<path fill="#ddd" opacity="1.00" d=" M 626.38 510.48 C 629.08 509.05 632.49 512.11 631.33 514.96 C 630.52 517.88 625.94 518.28 624.69 515.52 C 623.61 513.74 624.49 511.25 626.38 510.48 Z" />
<path fill="#ddd" opacity="1.00" d=" M 654.40 510.61 C 657.09 508.83 660.87 511.92 659.65 514.89 C 659.05 517.43 655.39 518.27 653.65 516.37 C 651.91 514.81 652.37 511.68 654.40 510.61 Z" />
<path fill="#ddd" opacity="1.00" d=" M 2.08 510.93 C 4.25 508.85 8.25 511.07 7.88 513.97 C 7.87 516.80 4.11 518.56 1.98 516.61 C 0.12 515.06 -0.04 512.34 2.08 510.93 Z" />
<path fill="#ddd" opacity="1.00" d=" M 58.30 511.24 C 60.09 509.15 64.16 510.19 64.44 513.01 C 65.23 515.52 62.52 518.06 60.06 517.31 C 57.40 516.77 56.42 513.12 58.30 511.24 Z" />
<path fill="#ddd" opacity="1.00" d=" M 314.00 510.77 C 315.93 509.27 319.36 510.51 319.57 513.05 C 320.47 515.98 316.70 518.60 314.21 516.91 C 311.95 515.72 311.84 512.10 314.00 510.77 Z" />
<path fill="#ddd" opacity="1.00" d=" M 369.81 511.64 C 371.23 509.47 374.83 509.74 375.96 512.06 C 377.57 514.62 374.79 518.22 371.91 517.30 C 369.45 516.89 368.24 513.54 369.81 511.64 Z" />
<path fill="#ddd" opacity="1.00" d=" M 16.32 539.14 C 18.46 537.44 22.12 539.17 22.01 541.93 C 22.37 544.47 19.40 546.54 17.09 545.53 C 14.45 544.63 14.01 540.63 16.32 539.14 Z" />
<path fill="#ddd" opacity="1.00" d=" M 44.38 539.39 C 46.50 537.28 50.54 539.07 50.42 542.05 C 50.64 544.86 47.08 546.81 44.83 545.19 C 42.78 544.00 42.55 540.86 44.38 539.39 Z" />
<path fill="#ddd" opacity="1.00" d=" M 73.22 539.01 C 75.75 537.25 79.54 539.93 78.65 542.89 C 78.33 545.17 75.45 546.48 73.47 545.37 C 70.97 544.26 70.82 540.32 73.22 539.01 Z" />
<path fill="#ddd" opacity="1.00" d=" M 101.26 539.21 C 103.19 537.66 106.31 538.70 106.95 541.07 C 107.94 543.80 104.78 546.78 102.14 545.49 C 99.51 544.67 99.07 540.76 101.26 539.21 Z" />
<path fill="#ddd" opacity="1.00" d=" M 129.36 539.40 C 131.48 537.30 135.64 539.04 135.41 542.08 C 135.65 544.59 132.67 546.56 130.42 545.48 C 127.96 544.64 127.46 541.05 129.36 539.40 Z" />
<path fill="#ddd" opacity="1.00" d=" M 158.24 539.01 C 160.78 537.25 164.54 539.91 163.69 542.89 C 163.29 545.69 159.28 546.76 157.50 544.60 C 155.90 543.02 156.35 540.15 158.24 539.01 Z" />
<path fill="#ddd" opacity="1.00" d=" M 186.17 539.30 C 188.02 537.68 191.27 538.59 191.95 540.96 C 193.04 543.63 190.08 546.61 187.41 545.59 C 184.69 544.92 183.99 540.98 186.17 539.30 Z" />
<path fill="#ddd" opacity="1.00" d=" M 214.37 539.40 C 216.00 537.93 218.83 538.25 219.93 540.21 C 221.75 542.70 219.02 546.55 216.07 545.67 C 213.22 545.22 212.28 541.25 214.37 539.40 Z" />
<path fill="#ddd" opacity="1.00" d=" M 243.24 539.07 C 245.41 537.48 248.82 539.25 248.81 541.92 C 249.09 544.41 246.28 546.52 243.97 545.55 C 241.19 544.76 240.71 540.43 243.24 539.07 Z" />
<path fill="#ddd" opacity="1.00" d=" M 271.17 539.34 C 272.99 537.65 276.38 538.59 276.98 541.01 C 278.10 543.72 274.95 546.70 272.30 545.53 C 269.71 544.76 269.10 541.01 271.17 539.34 Z" />
<path fill="#ddd" opacity="1.00" d=" M 299.38 539.53 C 301.14 537.54 304.74 538.55 305.40 541.07 C 306.26 543.62 303.68 546.40 301.08 545.67 C 298.36 545.20 297.23 541.31 299.38 539.53 Z" />
<path fill="#ddd" opacity="1.00" d=" M 328.26 539.06 C 330.15 537.70 333.07 538.82 333.69 541.02 C 334.76 543.68 331.70 546.66 329.07 545.56 C 326.22 544.83 325.70 540.48 328.26 539.06 Z" />
<path fill="#ddd" opacity="1.00" d=" M 356.29 539.28 C 358.45 537.36 362.23 539.09 362.21 541.97 C 362.43 544.59 359.37 546.68 357.04 545.42 C 354.61 544.47 354.24 540.79 356.29 539.28 Z" />
<path fill="#ddd" opacity="1.00" d=" M 384.34 539.52 C 386.43 537.26 390.75 538.95 390.53 542.08 C 390.77 544.63 387.69 546.62 385.44 545.44 C 383.12 544.54 382.61 541.20 384.34 539.52 Z" />
<path fill="#ddd" opacity="1.00" d=" M 413.28 539.07 C 415.75 537.23 419.58 539.77 418.84 542.77 C 418.54 545.68 414.28 546.86 412.55 544.49 C 411.00 542.96 411.50 540.19 413.28 539.07 Z" />
<path fill="#ddd" opacity="1.00" d=" M 441.28 539.29 C 443.17 537.67 446.49 538.61 447.09 541.06 C 448.15 543.73 445.07 546.69 442.44 545.54 C 439.76 544.83 439.17 540.95 441.28 539.29 Z" />
<path fill="#ddd" opacity="1.00" d=" M 469.42 539.48 C 470.99 537.98 473.82 538.17 474.97 540.10 C 476.95 542.60 474.15 546.63 471.12 545.65 C 468.38 545.16 467.41 541.34 469.42 539.48 Z" />
<path fill="#ddd" opacity="1.00" d=" M 498.26 539.10 C 500.45 537.46 504.06 539.20 503.92 542.01 C 504.17 544.50 501.34 546.50 499.07 545.54 C 496.32 544.73 495.87 540.58 498.26 539.10 Z" />
<path fill="#ddd" opacity="1.00" d=" M 526.31 539.33 C 528.78 536.98 533.23 539.76 532.17 543.01 C 531.69 545.64 527.96 546.71 526.17 544.75 C 524.56 543.37 524.71 540.64 526.31 539.33 Z" />
<path fill="#ddd" opacity="1.00" d=" M 555.19 538.97 C 557.39 537.53 560.70 539.35 560.64 542.00 C 560.91 544.87 557.24 546.85 554.97 545.15 C 552.74 543.79 552.86 540.15 555.19 538.97 Z" />
<path fill="#ddd" opacity="1.00" d=" M 583.20 539.16 C 585.42 537.41 588.96 539.21 589.01 541.97 C 589.19 544.46 586.33 546.58 584.03 545.50 C 581.37 544.68 580.93 540.67 583.20 539.16 Z" />
<path fill="#ddd" opacity="1.00" d=" M 611.36 539.32 C 613.47 537.34 617.47 539.08 617.29 542.02 C 617.59 544.64 614.46 546.59 612.17 545.45 C 609.78 544.47 609.36 540.87 611.36 539.32 Z" />
<path fill="#ddd" opacity="1.00" d=" M 640.20 539.02 C 642.34 537.49 645.78 539.32 645.65 541.98 C 645.98 544.64 642.74 546.66 640.45 545.39 C 637.91 544.34 637.71 540.24 640.20 539.02 Z" />
<path fill="#ddd" opacity="1.00" d=" M 668.25 539.19 C 670.39 537.40 674.07 539.16 674.02 541.95 C 674.32 544.67 671.02 546.70 668.69 545.36 C 666.36 544.19 666.08 540.66 668.25 539.19 Z" />
<path fill="#ddd" opacity="1.00" d=" M 2.34 567.26 C 4.55 566.01 7.56 567.44 7.86 569.96 C 8.26 571.99 6.62 573.56 4.89 574.23 C 3.87 571.97 3.04 569.63 2.34 567.26 Z" />
<path fill="#ddd" opacity="1.00" d=" M 30.36 567.60 C 32.41 565.82 35.95 567.30 36.23 569.98 C 36.69 572.69 33.57 575.03 31.10 573.81 C 28.68 572.81 28.20 569.11 30.36 567.60 Z" />
<path fill="#ddd" opacity="1.00" d=" M 59.24 567.24 C 61.70 565.79 65.18 568.18 64.48 571.03 C 64.37 573.46 61.29 574.86 59.24 573.72 C 56.72 572.51 56.70 568.43 59.24 567.24 Z" />
<path fill="#ddd" opacity="1.00" d=" M 87.35 567.39 C 89.43 565.92 92.67 567.44 92.90 569.97 C 93.36 572.58 90.45 574.99 87.98 573.87 C 85.24 572.95 84.87 568.84 87.35 567.39 Z" />
<path fill="#ddd" opacity="1.00" d=" M 116.07 567.17 C 118.54 565.86 121.78 568.24 121.24 570.98 C 120.97 573.56 117.61 575.08 115.55 573.45 C 113.28 572.00 113.60 568.21 116.07 567.17 Z" />
<path fill="#ddd" opacity="1.00" d=" M 144.28 567.25 C 147.10 565.54 150.86 568.93 149.31 571.87 C 148.48 574.36 144.66 574.90 143.17 572.74 C 141.69 571.12 142.30 568.17 144.28 567.25 Z" />
<path fill="#ddd" opacity="1.00" d=" M 172.34 567.39 C 174.80 565.64 178.62 568.10 177.87 571.09 C 177.69 573.56 174.35 575.02 172.35 573.52 C 170.15 572.25 170.19 568.70 172.34 567.39 Z" />
<path fill="#ddd" opacity="1.00" d=" M 201.13 567.17 C 203.21 566.08 206.12 567.63 206.24 569.99 C 206.84 572.71 203.56 575.09 201.15 573.78 C 198.38 572.68 198.41 568.30 201.13 567.17 Z" />
<path fill="#ddd" opacity="1.00" d=" M 229.28 567.25 C 231.71 565.83 235.15 568.06 234.61 570.90 C 234.53 573.37 231.38 574.94 229.30 573.67 C 226.77 572.48 226.76 568.47 229.28 567.25 Z" />
<path fill="#ddd" opacity="1.00" d=" M 257.36 567.46 C 259.78 565.61 263.54 568.01 263.00 570.97 C 262.68 573.77 258.87 575.21 256.90 573.11 C 255.15 571.66 255.42 568.59 257.36 567.46 Z" />
<path fill="#ddd" opacity="1.00" d=" M 286.10 567.18 C 288.95 565.60 292.52 568.98 291.04 571.89 C 290.20 574.30 286.49 574.93 284.97 572.84 C 283.40 571.15 284.01 568.14 286.10 567.18 Z" />
<path fill="#ddd" opacity="1.00" d=" M 314.26 567.30 C 316.68 565.76 320.25 568.08 319.62 570.95 C 319.56 573.46 316.34 574.93 314.28 573.66 C 311.84 572.47 311.85 568.51 314.26 567.30 Z" />
<path fill="#ddd" opacity="1.00" d=" M 342.37 567.47 C 344.77 565.58 348.66 568.00 348.00 571.00 C 347.77 573.58 344.40 575.07 342.34 573.48 C 340.27 572.14 340.25 568.74 342.37 567.47 Z" />
<path fill="#ddd" opacity="1.00" d=" M 371.14 567.20 C 373.63 565.85 376.95 568.24 376.37 571.05 C 376.01 573.70 372.49 575.08 370.46 573.30 C 368.40 571.77 368.81 568.24 371.14 567.20 Z" />
<path fill="#ddd" opacity="1.00" d=" M 399.23 567.34 C 402.06 565.44 406.02 568.85 404.42 571.90 C 403.57 574.38 399.85 574.84 398.29 572.80 C 396.84 571.21 397.37 568.36 399.23 567.34 Z" />
<path fill="#ddd" opacity="1.00" d=" M 427.39 567.45 C 429.83 565.61 433.72 568.02 433.00 571.04 C 432.84 573.62 429.34 575.07 427.35 573.45 C 425.30 572.11 425.34 568.77 427.39 567.45 Z" />
<path fill="#ddd" opacity="1.00" d=" M 456.17 567.21 C 458.25 566.06 461.27 567.58 461.37 570.02 C 461.95 572.77 458.60 575.11 456.19 573.74 C 453.52 572.61 453.56 568.39 456.17 567.21 Z" />
<path fill="#ddd" opacity="1.00" d=" M 484.26 567.35 C 486.67 565.73 490.22 568.00 489.75 570.85 C 489.59 573.36 486.50 574.97 484.35 573.65 C 481.96 572.42 481.88 568.61 484.26 567.35 Z" />
<path fill="#ddd" opacity="1.00" d=" M 512.39 567.52 C 514.42 565.87 517.77 567.33 518.10 569.89 C 518.65 572.52 515.62 574.98 513.16 573.86 C 510.53 572.97 510.00 568.99 512.39 567.52 Z" />
<path fill="#ddd" opacity="1.00" d=" M 541.23 567.18 C 543.71 565.85 546.97 568.22 546.41 571.00 C 546.24 573.68 542.62 575.06 540.61 573.38 C 538.49 571.86 538.85 568.23 541.23 567.18 Z" />
<path fill="#ddd" opacity="1.00" d=" M 569.32 567.34 C 571.41 565.94 574.77 567.54 574.74 570.12 C 575.29 572.96 571.72 575.19 569.35 573.62 C 566.97 572.42 566.98 568.57 569.32 567.34 Z" />
<path fill="#ddd" opacity="1.00" d=" M 597.38 567.55 C 599.39 565.85 602.88 567.30 603.12 569.92 C 603.70 572.58 600.54 575.08 598.11 573.82 C 595.56 572.90 595.08 569.00 597.38 567.55 Z" />
<path fill="#ddd" opacity="1.00" d=" M 626.22 567.23 C 628.70 565.82 632.04 568.20 631.48 571.01 C 631.22 573.65 627.67 575.08 625.65 573.34 C 623.53 571.88 623.89 568.27 626.22 567.23 Z" />
<path fill="#ddd" opacity="1.00" d=" M 654.31 567.36 C 657.10 565.39 661.11 568.83 659.55 571.88 C 658.71 574.39 654.92 574.87 653.39 572.77 C 652.00 571.16 652.47 568.40 654.31 567.36 Z" />
<path fill="#ddd" opacity="1.00" d=" M 45.41 595.43 C 47.72 594.47 50.60 596.35 50.40 598.92 C 50.51 601.89 46.48 603.59 44.37 601.56 C 42.37 599.93 42.92 596.28 45.41 595.43 Z" />
<path fill="#ddd" opacity="1.00" d=" M 73.46 595.57 C 76.19 594.04 79.74 597.03 78.56 599.95 C 77.91 602.46 74.28 603.31 72.55 601.39 C 70.74 599.81 71.33 596.54 73.46 595.57 Z" />
<path fill="#ddd" opacity="1.00" d=" M 101.55 595.71 C 103.85 594.17 107.45 596.16 107.08 599.00 C 107.16 601.86 103.39 603.48 101.25 601.71 C 99.24 600.29 99.42 596.92 101.55 595.71 Z" />
<path fill="#ddd" opacity="1.00" d=" M 130.46 595.42 C 132.79 594.46 135.70 596.39 135.42 598.99 C 135.52 602.00 131.39 603.57 129.32 601.50 C 127.45 599.79 128.02 596.30 130.46 595.42 Z" />
<path fill="#ddd" opacity="1.00" d=" M 158.43 595.61 C 160.48 594.45 163.36 595.76 163.71 598.11 C 164.39 600.74 161.49 603.22 158.97 602.26 C 156.02 601.47 155.65 596.85 158.43 595.61 Z" />
<path fill="#ddd" opacity="1.00" d=" M 215.37 595.48 C 218.09 594.18 221.45 597.08 220.30 599.96 C 219.66 602.47 216.03 603.29 214.31 601.40 C 212.45 599.74 213.09 596.42 215.37 595.48 Z" />
<path fill="#ddd" opacity="1.00" d=" M 243.45 595.62 C 245.82 594.23 249.16 596.26 248.79 599.06 C 248.80 601.76 245.35 603.41 243.19 601.85 C 240.91 600.49 241.11 596.80 243.45 595.62 Z" />
<path fill="#ddd" opacity="1.00" d=" M 300.43 595.48 C 302.73 594.40 305.80 596.34 305.51 598.95 C 305.63 601.93 301.55 603.58 299.46 601.54 C 297.51 599.91 298.04 596.40 300.43 595.48 Z" />
<path fill="#ddd" opacity="1.00" d=" M 385.45 595.51 C 387.73 594.34 390.83 596.35 390.53 598.95 C 390.66 601.63 387.20 603.41 385.03 601.91 C 382.59 600.63 382.81 596.44 385.45 595.51 Z" />
<path fill="#ddd" opacity="1.00" d=" M 413.50 595.67 C 415.84 594.19 419.14 596.24 418.95 598.99 C 418.86 601.73 415.42 603.45 413.20 601.82 C 411.04 600.46 411.12 596.75 413.50 595.67 Z" />
<path fill="#ddd" opacity="1.00" d=" M 442.40 595.36 C 445.14 594.33 448.19 597.24 447.05 600.01 C 446.30 602.68 442.27 603.34 440.74 601.02 C 439.18 599.18 440.15 596.11 442.40 595.36 Z" />
<path fill="#ddd" opacity="1.00" d=" M 470.38 595.54 C 472.67 594.33 475.90 596.28 475.57 598.94 C 475.75 601.98 471.57 603.58 469.51 601.49 C 467.57 599.93 468.14 596.51 470.38 595.54 Z" />
<path fill="#ddd" opacity="1.00" d=" M 527.39 595.38 C 530.12 594.32 533.18 597.19 532.10 599.96 C 531.39 602.66 527.33 603.31 525.75 601.04 C 524.31 599.16 525.11 596.14 527.39 595.38 Z" />
<path fill="#ddd" opacity="1.00" d=" M 555.45 595.52 C 557.80 594.36 560.84 596.28 560.65 598.95 C 560.67 601.61 557.36 603.39 555.13 601.95 C 552.67 600.61 552.86 596.60 555.45 595.52 Z" />
<path fill="#ddd" opacity="1.00" d=" M 583.51 595.68 C 586.16 593.94 589.92 596.82 588.82 599.83 C 588.28 602.49 584.40 603.36 582.72 601.29 C 581.05 599.74 581.55 596.74 583.51 595.68 Z" />
<path fill="#ddd" opacity="1.00" d=" M 640.95 602.30 C 637.55 601.43 637.69 595.96 641.13 595.31 C 644.43 594.34 646.89 598.40 645.10 601.14 C 643.73 601.59 642.33 601.93 640.95 602.30 Z" />
<path fill="#ddd" opacity="1.00" d=" M 186.20 595.98 C 188.49 594.00 192.54 595.99 192.14 599.09 C 192.04 601.91 188.27 603.54 186.19 601.62 C 184.45 600.27 184.43 597.32 186.20 595.98 Z" />
<path fill="#ddd" opacity="1.00" d=" M 271.24 596.00 C 274.81 592.83 279.60 598.91 275.80 601.66 C 272.23 604.77 267.51 598.77 271.24 596.00 Z" />
<path fill="#ddd" opacity="1.00" d=" M 327.52 596.39 C 330.38 592.89 336.08 597.54 333.14 601.04 C 330.34 605.03 324.05 599.89 327.52 596.39 Z" />
<path fill="#ddd" opacity="1.00" d=" M 356.24 596.05 C 358.44 593.94 362.60 595.96 362.20 599.05 C 362.23 601.95 358.35 603.51 356.28 601.62 C 354.53 600.30 354.51 597.38 356.24 596.05 Z" />
<path fill="#ddd" opacity="1.00" d=" M 498.25 595.85 C 500.17 594.32 503.54 595.57 503.83 598.08 C 504.44 600.31 502.36 602.81 500.02 602.39 C 496.72 602.49 495.44 597.47 498.25 595.85 Z" />
<path fill="#ddd" opacity="1.00" d=" M 611.33 596.09 C 613.45 593.94 617.72 595.89 617.30 599.00 C 617.37 601.62 614.20 603.24 611.99 602.05 C 609.80 600.97 609.38 597.60 611.33 596.09 Z" />
</g>
<g id="#ffffffff">
</g>
<g id="#85858589">
<path fill="#858585" opacity="0.54" d=" M 0.00 61.78 L 0.48 61.06 L 0.98 62.62 C 1.03 79.85 0.94 97.09 1.02 114.32 L 1.53 114.62 C -0.11 116.12 0.39 118.49 2.05 119.75 L 1.00 119.08 C 0.92 136.68 1.12 154.29 0.90 171.88 C 0.35 173.12 0.39 174.33 1.01 175.51 C 0.97 193.15 0.99 210.79 1.01 228.43 C 0.38 229.61 0.35 230.82 0.91 232.06 C 1.14 249.46 0.86 266.86 1.05 284.26 L 1.40 284.80 C 0.07 286.21 0.30 288.18 1.66 289.48 L 1.01 289.47 C 0.92 306.95 1.10 324.44 0.92 341.93 C 0.35 343.16 0.38 344.38 1.01 345.57 C 0.97 363.22 1.01 380.88 0.98 398.53 C 0.26 399.81 0.40 401.26 1.20 402.48 C 0.72 419.94 1.12 437.43 1.00 454.90 L 2.06 454.27 C 0.07 455.68 -0.02 458.49 2.05 459.89 L 1.00 459.15 C 0.99 476.68 0.98 494.20 1.00 511.73 L 2.08 510.93 C -0.04 512.34 0.12 515.06 1.98 516.61 L 1.00 516.05 C 0.99 529.47 0.98 542.89 1.01 556.31 L 0.68 557.56 L 0.00 556.83 L 0.00 61.78 Z" />
</g>
</svg>
