<?xml version="1.0" encoding="utf-8"?>
<!-- Generator: Adobe Illustrator 24.3.0, SVG Export Plug-In . SVG Version: 6.00 Build 0)  -->
<svg version="1.1" id="Layer_1" xmlns="http://www.w3.org/2000/svg" xmlns:xlink="http://www.w3.org/1999/xlink" x="0px" y="0px"
	 viewBox="0 0 512 512" style="enable-background:new 0 0 512 512;" xml:space="preserve">
<style type="text/css">
	.st0{fill:#2C2726;}
	.st1{fill:#FF5C2D;}
</style>
<g id="_x23_000000ff">
	<path class="st0" d="M197.2,36.2c5.6-5.3,15.2-5.6,21-0.4c4.1,3.3,6.1,8.7,5.9,14c42.3,4.6,84.5,9.4,126.8,14
		c3.3,0.3,6.7,0.8,9.5,2.7c5,3,7.8,8.8,7.6,14.5c-0.1,10.7,0.1,21.5-0.1,32.2c-0.4,7.8-7.1,14.3-14.8,14.8
		c-43,4.8-86,9.6-128.9,14.3c0.6,8.1-5.2,16.2-13.3,17.5c-9.5,2-18.9-6.2-18.9-15.8c-10.6,0-21.3,0-31.9,0
		c-9.8-0.1-19.5,4.8-25.4,12.6c-4.7,6-6.9,13.8-6.6,21.4c0.3,8.3-1.1,17,2,25c4.5,12.7,17.6,21.6,31.1,21c59.3,0,118.6,0,178,0
		c10,0,20-0.3,29.9,1.1c28.6,3.7,55.6,17.6,75.5,38.4c24.1,24.9,37.3,59.9,35.4,94.5c-1.4,34.1-17.4,67.2-43,89.7
		c-23,20.6-53.8,32.3-84.8,32.2c-106.7,0-213.4,0-320,0c0-10.7,0-21.3,0-32c106.7,0,213.3,0,320,0c17.3,0,34.5-4.7,49.3-13.7
		c16.7-10,30.2-25.2,38.2-42.9c8.4-18.5,10.6-39.6,6.4-59.4c-4.1-19.6-14.7-37.8-29.6-51.3c-17.1-15.6-40.1-24.6-63.3-24.7
		c-60,0-120,0-180.1,0c-9.7-0.1-19.5,0.6-28.9-2c-22.1-5.5-40.4-23.9-46-46c-2.9-10.4-1.8-21.3-2-32c-0.1-16.3,6.5-32.4,17.8-44.2
		c11.4-12,27.6-19.4,44.2-19.8c11.3-0.1,22.7,0,34-0.1c0-10.7,0-21.3,0-32c-11,0-22,0-33.1,0c-21,0.2-41.9,7.6-58.3,20.6
		C78.3,118,64.4,145.7,64,174c0.1,11.2-0.6,22.4,1.2,33.5c3.5,21.8,14.9,42.2,31.5,56.7c17.2,15.2,40.1,23.9,63.2,23.8
		c63.3,0,126.7,0,190,0c20.6-0.8,41.1,9.2,53.3,25.8c10.8,14.1,15,32.9,11.6,50.3c-2.9,15.3-11.7,29.3-24,38.7
		c-11,8.6-24.9,13.2-38.8,13.2c-106.7,0-213.3,0-320,0c0-10.7,0-21.3,0-32c104.4,0,208.7,0,313.1,0c5,0,10,0.3,14.9-1
		c10.3-2.6,19-10.6,22.3-20.6c4.1-11.5,0.7-25.1-8.2-33.4c-5.9-5.7-13.9-8.9-22.1-8.9c-64,0-128,0-192,0c-25.2,0-50.3-7.6-71.2-21.7
		c-25.6-17.1-44.7-43.8-52.5-73.6c-2.9-10.9-4.3-22.3-4.2-33.6c0.1-10.6-0.4-21.3,1.1-31.9c3.7-28.8,17.8-56.1,38.9-76
		c22.4-21.5,52.9-34.2,84-35.1c12-0.2,23.9,0,35.9-0.1C192.2,43.6,193.8,39.2,197.2,36.2 M224,81.9c0,9.4,0,18.8,0,28.2
		c37.3-4.1,74.7-8.3,112-12.5c0-1.1,0-2.2,0-3.3C298.7,90.2,261.3,86,224,81.9z"/>
	<path class="st1" d="M461.2,48.2c9.4-2,19.1,6.2,18.8,15.7c0.3,9.3-8.8,17.3-17.9,15.9c-9-0.9-15.9-10.5-13.7-19.3
		C449.7,54.4,454.9,49.3,461.2,48.2z"/>
	<path class="st1" d="M413.2,80.2c9.4-2,19.1,6.2,18.8,15.8c0.3,9.6-9.5,17.7-18.8,15.7c-8.9-1.4-15.2-11.2-12.6-19.9
		C402.1,86,407.2,81.2,413.2,80.2z"/>
	<path class="st1" d="M461.2,112.2c9.4-2,19,6.2,18.8,15.7c0.3,9-8.2,16.9-17.1,16.1c-8.8-0.4-16.2-9.2-14.8-18
		C448.9,119.2,454.5,113.3,461.2,112.2z"/>
</g>
</svg>
