<?xml version="1.0" encoding="utf-8"?>
<!-- Generator: Adobe Illustrator 24.3.0, SVG Export Plug-In . SVG Version: 6.00 Build 0)  -->
<svg version="1.1" id="Layer_1" xmlns="http://www.w3.org/2000/svg" xmlns:xlink="http://www.w3.org/1999/xlink" x="0px" y="0px"
	 viewBox="0 0 512 512" style="enable-background:new 0 0 512 512;" xml:space="preserve">
<style type="text/css">
	.st0{fill:#2C2726;}
	.st1{fill:#FF5C2D;}
</style>
<g id="_x23_000000ff">
	<path class="st0" d="M436,0h3.6c7.4,0.8,13.6,7.4,13.5,14.9c0,10,0,20.1,0,30.1c0.1,8-7,15-14.9,14.9c-13.7,0.1-27.4,0-41.1,0
		c0,38.7,0,77.3,0,116c0,4.4,0.4,9.1-1.8,13.1c-10.5,19.9-21.1,39.7-31.7,59.5c-2.4,4.7-7.2,8.1-12.4,8.3c-6.3,0.2-12.7,0-19,0.1
		c0,28.3,0,56.7,0,85c0,4.1,0.4,8.5-1.5,12.4c-2.3,5.1-7.8,8.6-13.4,8.6c-5,0.1-10.1,0-15.1,0c0,9,0,18.1,0,27.1
		c0.1,7.2-5.8,13.8-12.9,14.7c-8.2,1.4-16.6-5.4-17-13.7c-0.2-9.4,0-18.7-0.1-28.1c-5.6-0.1-11.3,0.2-16.9-0.2
		c-7.2-0.8-13.2-7.5-13.1-14.8c0-30.4,0-60.7,0-91.1c-6.4-0.1-12.7,0.1-19.1-0.1c-5.2-0.3-10-3.6-12.3-8.3
		c-10.5-19.6-21-39.3-31.4-58.9c-1.5-2.6-2.2-5.7-2.1-8.7c0-40.3,0-80.7,0-121c-54,0-108,0-162.1,0c-7.5,0.1-14-6-14.9-13.4V43
		C1,36,7.5,29.9,14.9,30c136-0.1,272,0,408,0c0.1-5.7-0.2-11.4,0.2-17.1C423.9,6.3,429.6,1.2,436,0 M207,60c0,35.7,0,71.3,0,107
		c53.3,0,106.7,0,160,0c0-35.7,0-71.3,0-107C313.7,60,260.3,60,207,60 M217,197c5.3,10,10.7,20,16,30c36,0,72,0,108,0
		c5.3-10,10.6-20,16-30C310.3,197,263.7,197,217,197 M272,257c0,25.3,0,50.6,0,76c10,0,20,0,30,0c0-25.3,0-50.6,0-76
		C292,257,282,257,272,257z"/>
	<path class="st1" d="M99.4,268.5c5.3-2.1,11.7-0.6,15.8,3.4c3,3,6.5,5.8,7.9,10c2.5,6.7-0.6,15-7.1,18.2c-5.6,3.1-13,2-17.5-2.5
		c-3.1-3.2-6.9-6.1-8.1-10.6C87.8,279.7,92,270.9,99.4,268.5z"/>
	<path class="st1" d="M144.2,310.3c5.1-1,10.5,0.9,14,4.6c24.5,24.5,49,48.9,73.5,73.5c5,4.9,5.8,13.4,1.7,19.1
		c-3.8,5.7-11.8,8-18,5.3c-3.2-1.2-5.5-3.8-7.9-6.2c-23.7-23.7-47.4-47.4-71.1-71.1c-5-4.9-5.7-13.3-1.7-19
		C136.8,313.3,140.4,311.1,144.2,310.3z"/>
	<path class="st1" d="M393.3,346.5c6.7-2.6,15.1,0.5,18.3,6.9c3.2,5.6,2,13.1-2.5,17.7c-13.3,13.4-26.7,26.7-40,40
		c-4.2,4.5-11.1,6.2-16.8,3.7c-7.2-2.7-11.1-11.5-8.5-18.7c0.9-2.9,2.9-5.2,5-7.2c13-13,26-26,39-39
		C389.4,348.4,391.3,347.2,393.3,346.5z"/>
	<path class="st0" d="M62,434c-0.2-8.4,7.6-15.6,16-15c139.7,0,279.4,0,419.1,0c7.5-0.1,14.1,6.1,14.9,13.5v65.9
		c-0.8,7-6.5,12.7-13.5,13.6h-3c-5.1-0.7-9.9-3.8-12-8.5c-1.8-3.5-1.5-7.6-1.5-11.5c0-14.3,0-28.7,0-43c-130,0-260,0-390,0
		c0,16,0,32.1,0,48.1c0.1,7.5-6.1,14-13.4,14.9h-3c-7.4-0.8-13.7-7.4-13.5-15C62,476,62,455,62,434z"/>
</g>
</svg>
