<?xml version="1.0" encoding="utf-8"?>
<!-- Generator: Adobe Illustrator 24.3.0, SVG Export Plug-In . SVG Version: 6.00 Build 0)  -->
<svg version="1.1" id="Layer_1" xmlns="http://www.w3.org/2000/svg" xmlns:xlink="http://www.w3.org/1999/xlink" x="0px" y="0px"
	 viewBox="0 0 512 512" style="enable-background:new 0 0 512 512;" xml:space="preserve">
<style type="text/css">
	.st0{fill:#2C2726;}
	.st1{fill:#FF5C2D;}
</style>
<g id="_x23_000000ff">
	<path class="st0" d="M310.6,0h1c5.1,0.3,10.2,1.3,14.8,3.7c7.1,3.5,12.2,9.8,17.8,15.2c5,5.3,10.9,10,14.4,16.6
		c1.7,3.2,2.7,6.7,3.6,10.2c7.4,1.4,14.3,5.2,19.5,10.7c18,18,36,36,54,54.1c8.2,8.2,11.6,20.5,9.1,31.8c7.6-1.5,15.7-1,22.6,2.6
		c6.6,3,11.3,8.6,16.3,13.6c6.3,6.4,12.8,12.6,18.9,19.1c5.7,6,9,14.1,9.4,22.4v1.6c-0.4,5.3-1.5,10.7-4.1,15.4
		c-2.9,5.5-7.6,9.8-11.9,14.1c-53.5,53.5-107,107-160.5,160.5c-5.5,5.5-11,11.6-18.5,14.4c-9,3.6-19.6,3.1-28.2-1.5
		c-4.2-2.2-7.8-5.5-11.1-8.8c-10.7-10.7-21.4-21.4-32-32.1c-5.3-6.7-15.7-9-22.7-3.7c-3.2,2.2-5.1,5.7-7.2,8.9
		c-21.9,33.7-43.3,67.7-66.4,100.6c-6,7.9-11.4,16.5-19,23c-13.6,12.3-31.6,19.2-49.9,19.8H76c-18.1-0.7-36-7.5-49.5-19.6
		C10.2,478.3,0.5,457,0,435.5v-3.8c0.6-17.8,7.2-35.3,18.9-48.8c7.5-9,17.6-15.2,26.8-22.2C62.4,349.4,79,337.9,96,327
		c17.2-11.2,34.5-22.2,51.6-33.4c5.5-3.4,8.7-10.3,7.4-16.7c-0.9-5.7-5.6-9.6-9.4-13.5c-10.3-10.3-20.7-20.7-31-31
		c-4.5-4.5-8.1-10-9.7-16.3c-3.2-11.7,0.6-24.7,9.2-33.1C170,127,226.1,71,282,15c4.2-4.2,8.4-8.6,13.8-11.3
		C300.4,1.4,305.5,0.4,310.6,0 M311.2,33.9c-40.9,40.9-81.8,81.7-122.6,122.6c55.6,55.6,111.2,111.2,166.8,166.8
		c40.9-40.9,81.8-81.7,122.6-122.6c-8.5-8.5-17-17-25.4-25.5c-36.2,24.6-72.4,49.2-108.6,73.8c-2.6,2.2-6.1,0.8-7.1-2.2
		c0.5-1.4,1.1-2.8,1.9-4c24.3-36.2,48.6-72.4,72.8-108.6c-18.4-18.4-36.8-36.8-55.2-55.2c-13.6,6.5-27.2,13.1-40.8,19.6
		c-1.8,1-4.4,1.4-5.8-0.5c-1.6-1.8-0.5-4.2,0.3-6c6.2-13.6,12.3-27.2,18.4-40.9C322.8,45.5,317,39.7,311.2,33.9 M137.6,207.5
		c12.4,12.5,24.9,24.9,37.3,37.4c9.8,10,15.1,24.1,14.1,38.1c-0.8,15-8.9,29.4-21.3,37.9c-38,25.3-77.2,48.9-114,75.9
		c-11.1,7.8-19,20.4-19.6,34.1c-1.1,13.7,4.8,27.7,15.4,36.5c9.1,8,21.6,11.7,33.5,10.3c11.9-1.2,23.1-7.7,30.3-17.2
		c9.9-12.6,18.5-26.2,27.7-39.3c16.3-25,32.5-50.1,48.8-75.2c6.5-10.1,16.6-17.8,28.2-21.1c13.7-4.1,29.1-1.9,41.1,5.9
		c5.6,3.5,10.2,8.5,14.9,13.2c10.1,10.1,20.3,20.3,30.4,30.4c9-9,17.9-18,26.9-26.9c-55.6-55.6-111.2-111.2-166.8-166.8
		C155.6,189.6,146.6,198.5,137.6,207.5z"/>
	<path class="st1" d="M77.3,409.5c9.6-3.4,21.1,2,24.7,11.5c2.9,7,1.3,15.5-3.9,21c-5.2,5.7-13.9,7.9-21.2,5.3
		c-7.4-2.5-12.8-9.6-13.3-17.4C62.8,421,68.8,412.1,77.3,409.5z"/>
</g>
</svg>
