<?xml version="1.0" encoding="utf-8"?>
<!-- Generator: Adobe Illustrator 24.3.0, SVG Export Plug-In . SVG Version: 6.00 Build 0)  -->
<svg version="1.1" id="Layer_1" xmlns="http://www.w3.org/2000/svg" xmlns:xlink="http://www.w3.org/1999/xlink" x="0px" y="0px"
	 viewBox="0 0 512 512" style="enable-background:new 0 0 512 512;" xml:space="preserve">
<style type="text/css">
	.st0{fill:#FF5C2D;}
	.st1{fill:#2C2726;}
</style>
<g id="_x23_000000ff">
	<path class="st0" d="M253.2,32.2c9.4-1.9,19,6.2,18.7,15.7c0,16,0,32.1,0,48.1c0.2,8.1-6.8,15.6-15,15.9c-8.8,0.8-17.2-7-17-15.9
		c0-16,0-32.1,0-48.2C239.9,40.4,245.8,33.4,253.2,32.2z"/>
	<path class="st0" d="M141.2,62.3c7.6-1.5,15.1,3.4,18.1,10.3c7.5,13.2,15.1,26.3,22.6,39.5c2.8,4.8,2.7,11.1,0,15.9
		c-3.1,5.6-9.7,8.9-16,7.9c-4.9-0.6-9.4-3.6-11.8-7.9c-7.9-13.8-15.8-27.6-23.7-41.3c-2.7-4.3-3.3-9.8-1.3-14.5
		C131.1,67,135.8,63.2,141.2,62.3z"/>
	<path class="st0" d="M363.3,63.2c7.5-2.5,16.5,1.7,19.4,9c2,4.6,1.7,10.1-0.9,14.4c-8,13.8-15.9,27.5-23.9,41.3
		c-4.1,7.3-14.4,9.9-21.5,5.7c-7.5-3.9-10.5-14.3-6.3-21.6c7.9-13.7,15.9-27.4,23.8-41.1C355.9,67.3,359.3,64.4,363.3,63.2z"/>
	<path class="st0" d="M59.2,144.2c3.9-0.8,8.1,0.1,11.5,2.2c13.8,7.9,27.6,15.7,41.3,23.7c5.9,3.2,9.2,10.4,7.7,17
		c-1.2,6.6-7,12-13.6,12.8c-3.7,0.5-7.5-0.4-10.7-2.3c-13.8-7.9-27.6-15.8-41.4-23.7c-6.4-3.6-9.6-11.9-7.2-18.8
		C48.5,149.5,53.5,145.2,59.2,144.2z"/>
	<path class="st0" d="M445.3,144.6c7.2-2.2,15.6,1.3,18.9,8.1c3.8,7,1.2,16.7-5.7,20.8c-13.4,8-27,15.7-40.5,23.6
		c-4.6,3-10.7,3.9-15.9,1.8c-6-2.2-10.3-8.4-10.2-14.9c-0.1-5.7,3.2-11.2,8.2-14c12.5-7.2,25-14.3,37.5-21.5
		C440.1,147.1,442.6,145.5,445.3,144.6z"/>
	<path class="st1" d="M167.6,215.6c8.4-14.4,24.7-23.8,41.3-23.6c31.7,0,63.4,0,95.1,0c20.5,0.1,39.7,14.9,45.1,34.7
		c7.9,31.1,15.5,62.2,23.3,93.3c12.9,0.1,25.7-0.2,38.6,0.2c19.8,1.1,37.8,15.9,42.7,35.1c8.8,34.9,17.5,69.9,26.2,104.8
		c2.6,9.7-5.9,20.2-16,19.9c-138.7,0-277.3,0-416,0c-9.8,0.6-18.5-9.3-16.1-19c8.8-35.2,17.8-70.4,26.8-105.5
		c5-19.4,23.3-34.4,43.3-35.4c12.5-0.3,25.1,0,37.6-0.1c7.5-30,15-60.1,22.5-90.1C163.2,224.9,165,220,167.6,215.6 M194,235.9
		c-7.2,28-14.3,56-21.5,84.1c55.7,0,111.4,0,167,0c-6.4-27.7-12.9-55.3-19.3-83c-1.4-7.5-8.5-13.4-16.2-13c-31.3,0-62.6,0-94,0
		C202.8,223.7,195.7,228.9,194,235.9 M89.6,363.8c-7.1,28-14,56.1-21.1,84.2c55.7,0,111.4,0,167,0c-6.7-27.9-13.3-55.8-20-83.7
		c-1.6-7-8.2-12.4-15.4-12.3c-31.4-0.1-62.8,0-94.2,0C98.6,351.5,91.3,356.6,89.6,363.8 M244.2,352c4.6,14.9,7.2,30.5,11.9,45.3
		c3.9-15.1,8.1-30.1,11.6-45.3C259.9,352,252.1,352,244.2,352 M297.4,364.6c-7,27.8-13.9,55.6-20.9,83.4c55.7,0,111.4,0,167,0
		c-6.7-27.9-13.3-55.8-20-83.7c-1.6-7-8.3-12.4-15.5-12.3c-31.7-0.1-63.4-0.1-95.1,0C305.7,351.9,298.9,357.4,297.4,364.6z"/>
</g>
</svg>
