<?xml version="1.0" encoding="utf-8"?>
<!-- Generator: Adobe Illustrator 24.3.0, SVG Export Plug-In . SVG Version: 6.00 Build 0)  -->
<svg version="1.1" id="Layer_1" xmlns="http://www.w3.org/2000/svg" xmlns:xlink="http://www.w3.org/1999/xlink" x="0px" y="0px"
	 viewBox="0 0 384 320" style="enable-background:new 0 0 384 320;" xml:space="preserve">
<style type="text/css">
	.st0{fill:#FFFFFF;}
</style>
<g id="_x23_000000ff">
	<path class="st0" d="M222.5,0h3.5c3.5,0.7,6.8,2.2,9.4,4.7c46.2,44.1,92.5,88.1,138.8,132.2c5.6,5.2,8.8,12.5,9.9,20v6
		c-1,7.9-4.6,15.4-10.4,20.7c-46.1,43.9-92.2,87.8-138.3,131.8c-2.8,2.8-6.7,4.3-10.6,4.6h-2.6c-7-1-13.2-6.7-13.9-13.9
		c-0.7-5.1,1.2-10.5,5.1-14c40.8-38.7,81.6-77.4,122.4-116.1c-106.5-0.1-213.1,0-319.6,0c-8,0.2-15.2-6.5-16-14.4v-3.5
		c1.1-7.7,8-14.3,15.9-14.1c106.4-0.1,212.8,0,319.2,0c-40.6-38.7-81.3-77.4-121.9-116.2c-3.8-3.5-5.7-8.7-5-13.8
		C208.9,6.7,215.3,0.8,222.5,0z"/>
</g>
</svg>
