<?xml version="1.0" encoding="utf-8"?>
<!-- Generator: Adobe Illustrator 24.3.0, SVG Export Plug-In . SVG Version: 6.00 Build 0)  -->
<svg version="1.1" id="Layer_1" xmlns="http://www.w3.org/2000/svg" xmlns:xlink="http://www.w3.org/1999/xlink" x="0px" y="0px"
	 viewBox="0 0 512 512" style="enable-background:new 0 0 512 512;" xml:space="preserve">
<style type="text/css">
	.st0{fill:#FF5C2D;}
	.st1{fill:#2C2726;}
</style>
<g id="_x23_000000ff">
	<path class="st0" d="M253.9,0h3.6c7.4,0.9,13.6,7.4,13.4,15c0,12,0.1,24.1,0,36.1c-0.1,7.1-5.9,13.6-13,14.4
		c-8.4,1.3-16.9-5.8-16.9-14.4c-0.1-12-0.1-24.1,0-36.1C240.9,7.6,246.8,1.3,253.9,0z"/>
	<path class="st0" d="M185.2,11.2c7-1.3,14.5,3,16.7,9.8c3.7,11.4,7.3,22.8,10.9,34.2c1.9,5.6,0.1,12.3-4.5,16.1
		c-4.3,3.8-10.8,4.7-16,2.2c-4-1.8-7-5.4-8.2-9.6c-3.6-11.3-7.3-22.6-10.8-34C170.9,21.8,176.8,12.5,185.2,11.2z"/>
	<path class="st0" d="M320.4,11.5c6.4-1.8,13.8,1.3,16.9,7.2c2.1,3.8,2.4,8.4,1,12.5c-3.5,10.9-6.9,21.8-10.4,32.7
		c-1.3,4.5-4.6,8.3-9,10c-5.2,2.1-11.6,0.9-15.7-3c-4.2-3.9-5.8-10.2-4-15.7c3.4-10.9,7-21.8,10.4-32.7
		C311,17.2,315.1,12.9,320.4,11.5z"/>
	<path class="st1" d="M83.9,123.9c2.5-5.3,8.2-8.7,14.1-8.4c105,0,210.1,0,315.1,0c3.7-0.1,7.6,0.7,10.6,3c3.5,2.4,5.1,6.5,6.9,10.2
		c12.7,25.6,25.4,51.1,38.2,76.7c1.9,3.7,2.3,8.2,0.8,12.2c-2.1,5.9-8.2,10.1-14.5,9.9c-13.9,0-27.8,0-41.8,0c0,19.5,0,38.9,0,58.4
		c14.3-13.3,34.5-20,53.9-17.5c15.6,1.8,30.1,9.5,41.1,20.6c2.1,2.2,3.1,5.1,3.8,8v3.4c-0.5,2.8-1.5,5.4-3.1,7.8
		c-23.4,34.5-46.9,69-70.3,103.6c-9.1,12.8-16.8,26.8-28.4,37.6c-18.9,18.3-45,28.9-71.3,28.9c-46,0-92,0-138,0
		c-10.2-0.1-20.4,3.9-27.8,11c-6,5.9-11.9,12-18,18c-2.4,2.5-5.7,4-9,4.8H13.1c-6.6-1-12-6.4-13.1-12.9v-56.6
		c0.4-3.9,2.2-7.6,5.1-10.3C36.4,400.9,67.7,369.4,99,338c0-36.8,0-73.7,0-110.5c-14,0-28,0-42,0c-6.9,0.3-13.4-4.7-15-11.4
		c-1-3.8-0.2-7.9,1.6-11.4C57.1,177.8,70.4,150.8,83.9,123.9 M106.7,145.5c-8.6,17.3-17.2,34.6-25.8,51.9c42,0,84.1,0,126.1,0
		c8.4-17.3,16.8-34.6,25.1-51.9C190.2,145.5,148.4,145.5,106.7,145.5 M279.9,145.5c8.4,17.3,16.8,34.6,25.1,51.9
		c42,0,84.1,0,126.1,0c-8.6-17.3-17.2-34.6-25.8-51.9C363.6,145.4,321.8,145.5,279.9,145.5 M229.8,218.9c-2.5,5.2-8.1,8.6-13.8,8.4
		c-29,0-58,0-87,0c0,29.1,0,58.2,0,87.3c11.2-5.3,23.6-8.1,36-8.1c25.3,0,50.6,0,76,0c0-36.9,0-73.8,0-110.7
		C237.2,203.6,233.6,211.3,229.8,218.9 M271,195.9c0,36.9,0,73.8,0,110.7c9.3,0.1,18.6-0.1,27.9,0.1c11.2,0.6,20.9,10.2,21.8,21.3
		c0.7,13.9-3.2,28.1-11,39.6c10.1-0.4,20.4,0.9,30.5-1.1c10.7-2.3,20.4-8.7,26.8-17.6c5.1-7.2,10.2-14.5,15.3-21.7
		c1.5-1.8,0.8-4.2,1-6.3c0-31.2,0-62.4,0-93.5c-27.1-0.1-54.2,0-81.3-0.1c-4.3-0.1-8.9,0.5-12.9-1.5c-3.3-1.5-5.8-4.4-7.3-7.6
		C278.2,210.8,274.6,203.4,271,195.9 M429.4,312.5c-12.8,17.9-25.3,36-38,54c-10.3,14.3-25.7,24.7-42.8,28.9
		c-11,3-22.4,2.1-33.7,2.2c-33,0-66,0-98.9,0c-7.6,0.2-14.5-6.1-15.1-13.6c-1-8.2,5.9-16.1,14.1-16.3c11-0.2,22,0.1,33-0.1
		c11.2-0.5,22.9-3.4,31.6-10.9c6-5.1,9.6-12.4,10.8-20.1c-41.5,0-83,0-124.4,0c-11.4-0.1-22.9,3.4-32.2,10.1
		c-5.5,3.8-9.9,8.8-14.6,13.5c-29.7,29.9-59.5,59.7-89.2,89.7c0.1,10.7,0,21.4,0,32.1c36,0,72,0,108,0c5.2-5.1,10.3-10.5,15.6-15.5
		c12.5-11.6,29.4-18.2,46.4-18.3c47-0.1,94,0.1,141-0.1c19.1-0.6,37.9-9.1,51-23.1c5.2-5.3,9.1-11.7,13.3-17.8
		c23.8-35,47.5-70.1,71.3-105C461.2,293.4,439.8,298.2,429.4,312.5z"/>
</g>
</svg>
