<?xml version="1.0" encoding="utf-8"?>
<!-- Generator: Adobe Illustrator 24.3.0, SVG Export Plug-In . SVG Version: 6.00 Build 0)  -->
<svg version="1.1" id="Layer_1" xmlns="http://www.w3.org/2000/svg" xmlns:xlink="http://www.w3.org/1999/xlink" x="0px" y="0px"
	 viewBox="0 0 336 364" style="enable-background:new 0 0 336 364;" xml:space="preserve">
<style type="text/css">
	.st0{fill:#FFFFFF;}
</style>
<g id="_x23_000000ff">
	<path class="st0" d="M40.5,1.7C50-0.3,60,0.6,68.9,4.1c5.1,2,9.7,4.9,14.4,7.5C159,54.3,234.6,97,310.3,139.7
		C326,148.3,336,166.1,335,184c-0.5,16.8-10.6,32.8-25.4,40.7C231.4,268.8,153.2,313,75,357.1c-14.9,8.4-34.1,8.4-48.9-0.2
		C11,348.8,0.9,332.2,0.9,315c0-84.3,0-168.7,0-253C1,52.7,0.2,43,3.4,34.1C8.8,17.6,23.7,5.1,40.5,1.7z"/>
</g>
</svg>
