<?xml version="1.0" encoding="UTF-8" ?>
<!DOCTYPE svg PUBLIC "-//W3C//DTD SVG 1.1//EN" "http://www.w3.org/Graphics/SVG/1.1/DTD/svg11.dtd">
<svg width="336pt" height="364pt" viewBox="0 0 336 364" version="1.1" xmlns="http://www.w3.org/2000/svg">
<g id="#ff5514ff">
<path fill="#ff5514" opacity="1.00" d=" M 40.44 1.69 C 52.35 -0.84 65.11 1.25 75.66 7.31 C 153.86 51.45 232.11 95.52 310.29 139.71 C 325.68 148.12 335.60 165.44 335.07 182.98 C 334.88 199.84 325.10 216.13 310.33 224.26 C 232.14 268.46 153.89 312.54 75.67 356.68 C 67.60 361.26 58.28 363.66 49.00 363.31 C 32.41 362.82 16.24 353.57 7.75 339.26 C 3.19 331.68 0.82 322.84 0.89 314.00 C 0.89 226.00 0.89 137.99 0.89 49.98 C 0.72 36.86 6.19 23.79 15.70 14.73 C 22.54 8.24 31.21 3.65 40.44 1.69 Z" />
</g>
</svg>
