<?xml version="1.0" encoding="utf-8"?>
<!-- Generator: Adobe Illustrator 24.3.0, SVG Export Plug-In . SVG Version: 6.00 Build 0)  -->
<svg version="1.1" id="Layer_1" xmlns="http://www.w3.org/2000/svg" xmlns:xlink="http://www.w3.org/1999/xlink" x="0px" y="0px"
	 viewBox="0 0 512 512" style="enable-background:new 0 0 512 512;" xml:space="preserve">
<style type="text/css">
	.st0{fill:#2C2726;}
	.st1{fill:#FF5C2D;}
</style>
<g id="_x23_000000ff">
	<path class="st0" d="M194.5,0h122.8c5.2,0.7,10,3.8,12.2,8.6c2.1,4.2,1,9,2.5,13.4c2.6,9.1,10.6,16.3,20,17.7
		c3.5,0.5,7.2,0.2,10.5,1.9c5.5,2.5,8.8,8.5,8.6,14.5c-0.1,24.7,0,49.4-0.1,74.1c-0.5,37.2-13.4,74.2-36.2,103.6
		c-19,24.7-44.7,44.1-73.6,55.4c-4.5,1.8-9.5,0.6-13.7-1.4c-31.7-13.3-59.2-36.2-77.9-65C151.2,195,141.2,162.1,141,129
		c0-24.7,0-49.4,0-74.1c-0.1-8,7-15,14.9-14.9c13,0.3,24.8-11,25-24C180.5,8.2,186.6,0.8,194.5,0 M208.9,30
		C203.8,48,189,62.9,171,67.9c0,20,0,40,0,60.1c0.1,25.5,7,51,20.1,73c15,25.4,38,45.7,64.9,57.7c18.1-8.1,34.6-20,47.9-34.7
		c23.2-25.5,36.6-59.6,37.1-94c0.1-20.7,0-41.4,0-62c-18-5.1-32.9-19.9-37.9-37.9C271.7,30,240.3,30,208.9,30z"/>
	<path class="st1" d="M286,96.2c4.3-4.4,11.4-5.7,17-3.1c6.6,2.9,10.2,10.9,8.1,17.8c-0.9,3.6-3.6,6.4-6.2,8.9
		c-16.8,16.8-33.6,33.7-50.5,50.5c-2.6,2.5-5,5.5-8.5,6.8c-5.5,2.4-12.4,0.9-16.6-3.4c-8.3-8.4-16.7-16.6-25-25
		c-5.4-5.6-5.1-15.4,0.5-20.8c5.4-5.5,15-5.7,20.6-0.4c4.9,4.8,9.8,9.7,14.6,14.6C255.4,126.8,270.7,111.5,286,96.2z"/>
	<path class="st0" d="M106.7,322.8c14.2-2.5,29.4,0.9,41.1,9.4c13.5,9.5,22.3,25.3,23.1,41.7c0.9,14.1-4.1,28.3-13.2,39
		c11.2,6.4,21,15.3,28.4,25.9c7.4-10.6,17.1-19.5,28.4-25.9c-5.8-6.9-10.1-15.1-12-23.9c-3.3-14.5-0.4-30.3,8-42.6
		c8.4-12.6,22.2-21.4,37.1-23.7c14-2.2,28.8,1.2,40.3,9.5c13.5,9.5,22.3,25.3,23.1,41.7c0.9,14.1-4.1,28.3-13.2,39
		c11.2,6.4,21,15.3,28.4,25.9c7.4-10.6,17.1-19.5,28.4-25.9c-6-7.2-10.4-15.7-12.2-24.9c-3.1-15,0.4-31.1,9.5-43.4
		c9.3-12.8,24.4-21.3,40.3-22.4c14.6-1.2,29.5,3.8,40.4,13.5c11.5,10,18.5,25,18.7,40.2c0.3,13.4-4.6,26.7-13.3,36.9
		c12.5,7.2,23.2,17.4,30.7,29.7c8.4,13.5,12.8,29.5,12.6,45.5c-0.2,5.4,0.9,11.2-1.9,16.2c-2.3,4.4-6.8,7.1-11.6,7.8H44.7
		c-6.8-0.7-12.7-6.2-13.5-13c-0.6-12.8-0.2-25.9,3.9-38.1c6.5-20.2,20.8-37.6,39.3-48c-5.4-6.5-9.6-14.1-11.6-22.4
		c-3.6-14-1.4-29.3,6.1-41.7C76.9,335.2,91.1,325.4,106.7,322.8 M110.4,352.6c-8.4,1.9-15.6,8.4-18.2,16.6c-2.7,8-0.9,17.4,4.6,23.8
		c6,7.2,16.2,10.6,25.3,8.2c9.4-2.3,17-10.6,18.5-20.1c1.6-9-2.3-18.7-9.6-24.1C125.2,352.6,117.5,351,110.4,352.6 M250.5,352.6
		c-7.9,1.8-14.8,7.6-17.7,15.2c-3.2,7.9-1.9,17.4,3.3,24.2c5.7,7.7,16.1,11.6,25.5,9.3c9.7-2.1,17.6-10.5,19.1-20.3
		c1.6-9-2.3-18.7-9.7-24.1C265.2,352.6,257.5,351,250.5,352.6 M390.4,352.6c-8.2,1.8-15.2,8-18,15.9c-2.9,8-1.4,17.4,4,24
		c5.8,7.4,16,11.1,25.2,8.8c9.7-2.1,17.5-10.5,19-20.2c1.6-9-2.3-18.6-9.6-24.1C405.3,352.6,397.5,351,390.4,352.6 M83.6,442.6
		c-12.6,9.1-21,23.8-22.4,39.4c36.5,0,73,0,109.5,0c-1.1-11.3-5.6-22.2-13.1-30.8c-8.9-10.5-21.9-17.4-35.6-18.9
		C108.6,430.8,94.5,434.5,83.6,442.6 M223.6,442.6c-12.6,9.1-21,23.8-22.4,39.4c36.5,0,73,0,109.5,0c-1.1-11.2-5.6-22.2-13-30.7
		c-8.9-10.5-21.9-17.5-35.6-18.9C248.6,430.8,234.6,434.5,223.6,442.6 M363.5,442.7c-12.6,9.1-20.9,23.8-22.3,39.3
		c36.5,0,73,0,109.5,0c-1.1-11.2-5.6-22.2-13-30.7c-8.9-10.5-21.9-17.5-35.6-18.9C388.6,430.8,374.5,434.6,363.5,442.7z"/>
</g>
</svg>
