<?xml version="1.0" encoding="utf-8"?>
<!-- Generator: Adobe Illustrator 24.3.0, SVG Export Plug-In . SVG Version: 6.00 Build 0)  -->
<svg version="1.1" id="Layer_1" xmlns="http://www.w3.org/2000/svg" xmlns:xlink="http://www.w3.org/1999/xlink" x="0px" y="0px"
	 viewBox="0 0 512 512" style="enable-background:new 0 0 512 512;" xml:space="preserve">
<style type="text/css">
	.st0{fill:#2C2726;}
	.st1{fill:#FF5C2D;}
</style>
<g id="_x23_000000ff">
	<path class="st0" d="M53.5,0h46.2c4.8,0.3,8.9,4,9.7,8.8c4.5,19.5,8.8,38.9,13.3,58.4c0.8,3.4,0.9,7.2-1.5,10
		c-4.2,5.1-9.3,9.4-13.6,14.5c-1.1,1.1-0.8,2.8-0.9,4.2c0.1,64.1,0,128.2,0,192.2c11.4,0,22.8,0,34.2,0c3.7-0.1,7.8,0.6,10.2,3.7
		c3.5,4,2.9,10.7-1.3,14c-2.4,2.1-5.9,2.1-8.9,2.6c0.1,43.2,0,86.4,0,129.6c0,8.4,0.2,16.9-1.9,25.1c-4,16.4-14.8,31-29.3,39.6
		c-9.4,5.7-20.2,8.7-31.2,9.2h-3.9c-14.1-0.7-27.9-5.8-38.7-14.8c-14.5-11.9-23.3-30.4-23.3-49.2c-0.1-46.5,0-93.1,0-139.6
		c-3-0.5-6.3-0.4-8.7-2.4c-2.4-1.7-3.4-4.7-3.9-7.4v-0.8c0.5-5.1,4.7-9.6,10-9.5c12.3-0.3,24.5,0,36.8-0.1c0-65.3,0.1-130.5,0-195.8
		c-4.7-5-9.7-9.8-14.2-14.9c-2.5-2.9-2.5-7-1.5-10.5C35.6,47.3,39.9,27.6,44.5,8C45.4,3.7,49.2,0.6,53.5,0 M62.2,20
		c-3.7,16.1-7.3,32.2-11,48.2c3.7,3.8,7.4,7.6,11,11.4c1.9,2.1,4,4.4,4.3,7.3c0.5,3.6,0.2,7.3,0.3,11c0,63.4,0,126.8,0,190.2
		c6.7,0,13.3,0,19.9,0c0-65.7,0-131.4,0-197.1c0-3.1,0.3-6.4,2.4-8.9c4.1-4.9,8.8-9.2,13.2-13.9C98.6,52.1,95,36,91.3,20
		C81.7,20,72,20,62.2,20 M32.6,308.2c0,46,0,91.9,0,137.9c-0.1,10.1,2.8,20.3,9.1,28.3c7.2,9.6,18.4,16,30.3,17.2
		c14.7,1.8,30-4.6,39.2-16.3c6.7-8.1,9.9-18.8,9.8-29.2c0-45.9,0-91.9,0-137.8C91.6,308.2,62.1,308.2,32.6,308.2z"/>
	<path class="st0" d="M228.9,2.5c3.2-1.1,6.7-2.5,10.1-1.4c4.2,1.2,7.1,5.4,7,9.8c0.2,17-0.1,34.1,0.2,51.1
		c-0.2,6.8,7.6,12,13.8,9.1c4.4-1.7,6.4-6.6,6.1-11.1c0-15.3,0-30.7,0-46c0.1-3-0.1-6.4,1.9-9c2.4-3.5,7.1-5.2,11.1-3.8
		c22.6,6.9,41.8,24.4,50.4,46.4c7,17.5,7.1,37.6,0.8,55.3c-5.7,16.1-16.9,30-31.1,39.4c-0.2,18.6,0.1,37.2-0.2,55.7
		c0.2,6.5-6.7,11.8-12.9,9.6c-5-1.4-7.5-6.8-7.1-11.7c0.1-19.7-0.1-39.4,0.1-59.1c-0.3-5.8,5-9,9.3-11.6
		c19-12.2,29.5-36.1,25.6-58.4c-2.6-17-13.2-32.4-28-41.1c-0.1,12.1,0.1,24.1-0.1,36.2c0,9.7-5,19.3-13.2,24.7
		c-9.8,6.8-23.7,6.8-33.5,0c-8.1-5.4-13.2-14.9-13.2-24.7c-0.2-12.1,0-24.1-0.1-36.2c-5.8,3.7-11.2,8.1-15.6,13.5
		c-10.6,12.8-15.1,30.2-12.4,46.6c2.5,16.4,12.4,31.6,26.7,40.2c2.4,1.6,5.1,2.9,6.7,5.3c1.5,2.2,1.6,4.9,1.7,7.4
		c0,78.3,0,156.7,0,235c0,3.2-0.5,6.6-3.1,8.8c-3.6,3.1-8.1,5.1-11.6,8.3c-15.8,13-23.9,34.7-20.2,54.8c2.7,16.9,13.3,32,27.9,40.8
		c0.1-12.3-0.2-24.6,0.1-36.9c0.2-9.7,5.4-19,13.5-24.2c9.4-6.4,22.6-6.5,32.1-0.4c8.5,5.2,13.9,14.7,14.1,24.6
		c0.3,12.3,0,24.6,0.1,36.8c5.6-3.6,10.8-7.7,15-12.9c11.1-13,15.8-31.1,12.9-47.9c-2.6-15.9-12.2-30.6-25.9-39.2
		c-2.4-1.6-4.9-2.9-6.8-5.1c-2.1-2.4-2.2-5.8-2.2-8.8c0-27.7,0-55.4,0-83c0.1-4.2-0.4-8.5,0.6-12.7c1.6-5.7,8.7-8.6,13.9-5.8
		c3.9,1.9,5.7,6.3,5.5,10.5c0,29.3,0,58.6,0,88c6.6,4.6,12.9,9.8,17.9,16c13.3,15.9,19.4,37.3,17.5,57.9
		c-1.7,17.9-9.9,35.1-22.6,47.9c-9.5,9.6-21.5,16.6-34.5,20.2h-2.7c-4.7-0.9-8.7-5-8.6-9.9c-0.2-16.3,0-32.7-0.1-49.1
		c0-3.4-0.5-7.2-3.3-9.6c-3.8-3.7-10.4-3.4-13.9,0.5c-2.4,2.4-2.8,5.9-2.8,9c-0.1,16.4,0.1,32.7-0.1,49.1c0.2,5.2-4.2,9.4-9.3,10
		h-1.3c-24.6-6.5-45.4-25.8-53.7-49.9c-5.9-16.8-5.7-35.6,0.3-52.4c5.7-16.2,17-30.1,31.2-39.6c0-75.8-0.1-151.6,0-227.4
		c-3.8-2.8-7.7-5.5-11.1-8.8c-13.5-12.4-22.1-29.8-24.1-48c-2.3-18.1,2-36.9,11.9-52.2C198.9,19.5,212.9,8.4,228.9,2.5z"/>
	<path class="st0" d="M436.6,55.6c3.5-2.2,8-1.9,11.5,0.3c19.5,11.2,39,22.5,58.4,33.7c3,1.6,4.8,4.6,5.6,7.8v71.1
		c-0.5,5.8-5.8,8.6-10.3,11.1c-18,10.3-36,20.8-54,31.2c-3.5,2.2-7.9,2.2-11.4,0c-19.4-11.2-38.9-22.5-58.3-33.7
		c-3.8-1.9-6.3-5.9-6-10.1c-0.1-21.6,0-43.3-0.1-65c0.1-2.4,0-5,0.9-7.3c1-2.7,3.6-4.4,6-5.9C398.1,77.8,417.3,66.6,436.6,55.6
		 M392,104.3c-0.1,19.3,0,38.5,0,57.8c16.7,9.6,33.3,19.2,50,28.9c16.7-9.6,33.3-19.2,50-28.9c0-19.3,0.1-38.5-0.1-57.8
		c-16.7-9.5-33.3-19.2-49.9-28.8C425.3,85.1,408.7,94.8,392,104.3z"/>
	<path class="st1" d="M433.4,102.5c13.1-3.8,28.2,1.9,35.4,13.5c6.6,10,6.8,23.8,0.4,34c-6.2,10.2-18.3,16.4-30.2,15.1
		c-10-0.8-19.4-6.9-24.5-15.6c-4.9-8.1-5.8-18.6-2.4-27.4C415.6,112.7,423.8,105.1,433.4,102.5 M437.3,122.4c-3.8,1.6-6.6,5.4-7,9.5
		c-0.9,6,3.6,12.2,9.6,13c7.5,1.7,15.1-5.5,13.8-13C453.1,124.2,444.2,119.1,437.3,122.4z"/>
	<path class="st1" d="M285.3,230.5c5.5-2.4,12.5,1.5,13.4,7.4c1.1,5.1-2.6,10.6-7.7,11.5c-5,1.2-10.5-2.3-11.6-7.3
		C278.1,237.4,280.9,232.2,285.3,230.5z"/>
	<path class="st0" d="M375,249c2.6-2.8,6.5-3.1,10-3.1c38,0,76,0,114,0c3.1,0.1,6.5,0.2,9.1,2.3c2.4,1.7,3.3,4.6,3.9,7.4v58.6
		c-0.5,4.6-3.7,8.9-8.5,9.4c-6.5,0.7-13,0.1-19.5,0.3c0,36.3,0,72.7,0,109c0,4.2-0.6,8.6-2.6,12.4c-3.7,7.6-12,12.5-20.4,12.5
		c-12.3,0.1-24.7,0-37,0c-6.1,0.1-12.3-2-16.7-6.3c-4.9-4.5-7.4-11.1-7.3-17.7c0-36.7,0-73.4,0-110c-6-0.1-12,0.2-18-0.1
		c-3.2-0.1-6.5-1.7-8.3-4.5c-1.7-2.5-1.7-5.5-1.8-8.4c0-17.3,0-34.7,0-52C372,255.5,372.2,251.6,375,249 M392,266
		c0,12.7,0,25.3,0,38c33.3,0,66.6,0,100,0c0-12.7,0-25.3,0-38C458.6,266,425.3,266,392,266 M420,324c0,9.1,0,18.1,0,27.2
		c9-9.1,18.1-18.1,27.1-27.2C438.1,324,429,324,420,324 M420,379.3c-0.1,11.2,0,22.4,0,33.6c14.7-14.7,29.3-29.3,44-44
		c0-11.1,0-22.3,0-33.5C449.3,350,434.8,364.8,420,379.3 M423.2,438c11.2,0,22.5,0,33.8,0c2.1,0,4.2-0.3,6.3-0.7
		c0.4-2.1,0.7-4.2,0.7-6.3c-0.1-11.3,0-22.5,0-33.8C450.4,410.8,436.8,424.4,423.2,438z"/>
	<path class="st1" d="M55.5,327.8c4-1.4,8.8,0,11.3,3.4c1.6,2.2,2,5,2,7.7c0,36.3,0,72.7,0,109c0.1,3.9-0.9,8.2-4.4,10.4
		c-4.2,3-10.6,1.9-13.6-2.4c-2-2.6-2-6-2-9.1c0.1-36.3,0-72.6,0.1-108.9C48.7,333.6,51.3,329.2,55.5,327.8z"/>
	<path class="st1" d="M91.3,330.5c6.6-2.8,14.4,3.4,13.3,10.4c-0.5,7.2-9.8,11.3-15.5,6.9C82.7,343.8,84.1,332.9,91.3,330.5z"/>
	<path class="st1" d="M91.5,368.6c4-1.4,8.9,0,11.3,3.5c1.9,2.5,2,5.8,2,8.9c-0.1,22.7,0,45.4,0,68.1c0.2,4.8-2.8,9.8-7.7,10.8
		c-6.1,1.7-12.5-3.6-12.2-9.8c-0.2-23.7-0.1-47.4-0.1-71.1C84.6,374.6,87.2,370.1,91.5,368.6z"/>
</g>
</svg>
