<?xml version="1.0" encoding="utf-8"?>
<!-- Generator: Adobe Illustrator 24.3.0, SVG Export Plug-In . SVG Version: 6.00 Build 0)  -->
<svg version="1.1" id="Layer_1" xmlns="http://www.w3.org/2000/svg" xmlns:xlink="http://www.w3.org/1999/xlink" x="0px" y="0px"
	 viewBox="0 0 1236.1 497.6" style="enable-background:new 0 0 1236.1 497.6;" xml:space="preserve">
<style type="text/css">
	.st0{opacity:5.000000e-02;}
	.st1{fill:#FFFFFF;}
	.st2{opacity:8.000000e-02;}
</style>
<g id="_x23_6a8ca5ff">
</g>
<g id="_x23_583030ff" class="st0">
	<path class="st1" d="M322.6,35.3C440.9-0.2,567.1-7.3,689,12c81.1,12.7,160.2,36.8,235.4,69.6c48.6,21.1,95.2,47.3,137.2,79.7
		c29.8,22.9,57.2,49,81.2,77.9c48.2,58.3,82.6,129.2,93.3,204.4c-86.4,31.6-178.2,47.4-270.1,50.3c-59.8,2-119.7-1.1-179.2-7.3
		c0.7-0.2,2.2-0.6,3-0.8c7.1-13.6,10.1-28.9,11.8-44c4.2-36.6-1.5-73.7-13-108.5c-10.5-31.4-25.4-61.1-43-89
		c-20.2-32-43.6-61.9-69.6-89.4c-8.9-9.4-17.9-18.8-27.9-27c-0.1,0.5-0.3,1.6-0.4,2.1c-0.1-0.2-0.4-0.7-0.5-0.9
		c-9-28.6-29.8-52.8-55.5-67.9c-18.4-10.9-38.9-17.9-59.8-22.4c-43-9.2-87.3-9-130.9-5.9c-46.6,3.7-92.8,11.5-138.3,22.1
		c3.3-1.7,7-2.6,10.5-3.8C289.6,46,306,40.3,322.6,35.3z"/>
</g>
<g id="_x23_cda0a0ff" class="st0">
	<path class="st1" d="M401,33c43.6-3.2,88-3.4,130.9,5.9c20.9,4.5,41.4,11.5,59.8,22.4c25.8,15,46.5,39.2,55.5,67.9
		c-7.1-2.8-13.9-6.2-21.3-8.2c-25.7-7-52.8-5.9-78.9-2.1c-37.1,6.1-72.8,18.7-106.9,34.3c-53.5,25.1-102.7,59-146.5,98.5
		c-11.6,10.7-22.9,21.7-33.9,33.1c-6.1,7.2-13,13.8-19,21.1c-23.8,27.4-45.2,56.8-64.2,87.8c-5.4,8.9-10.9,17.7-15.4,27
		c-55.7,9.7-110,27-161.2,51.1V188c8.9-6.8,18.5-12.8,27.8-19.1c29.8-19.9,60.9-37.7,92.6-54.5c45.8-23.4,93.5-43.2,142.3-59.2
		C308.2,44.6,354.4,36.7,401,33z"/>
</g>
<g id="_x23_3b1919ff" class="st2">
	<path class="st1" d="M648.1,127.9c10,8.2,19,17.6,27.9,27c26,27.5,49.4,57.4,69.6,89.4c17.6,27.9,32.5,57.7,43,89
		c11.5,34.8,17.2,72,13,108.5c-1.7,15.1-4.7,30.4-11.8,44c-0.7,0.2-2.2,0.6-3,0.8c-88.1-9.2-175.3-25.2-262.4-41.2
		c26.4-24.4,48-53.5,67.6-83.5c22.3-34.7,41-72.1,52.4-112c11.1-38.8,14.5-80.9,3.2-120C647.8,129.5,648,128.5,648.1,127.9z"/>
</g>
<g id="_x23_ffffffff">
</g>
</svg>
