<?xml version="1.0" encoding="utf-8"?>
<!-- Generator: Adobe Illustrator 24.3.0, SVG Export Plug-In . SVG Version: 6.00 Build 0)  -->
<svg version="1.1" id="Layer_1" xmlns="http://www.w3.org/2000/svg" xmlns:xlink="http://www.w3.org/1999/xlink" x="0px" y="0px"
	 viewBox="0 0 512 512" style="enable-background:new 0 0 512 512;" xml:space="preserve">
<style type="text/css">
	.st0{fill:#FF5C2D;}
	.st1{fill:#2C2726;}
</style>
<g id="_x23_000000ff">
	<path class="st0" d="M449.7,0h1c7.7,0.7,14.7,8.2,13.4,16.1c-0.6,5.1-4.9,9.6-10.1,10.2c-9.2,1.7-18.4-8.2-15.6-17.2
		C439.5,3.8,444.6,0.4,449.7,0z"/>
	<path class="st0" d="M403.4,74.5c6.5-2.9,15.2,0.5,16.9,7.6c3.2,9.6-7.2,20.2-16.9,17.2c-7.7-1.7-11.2-11.6-7.2-18.1
		C398,78.4,400.3,75.9,403.4,74.5z"/>
	<path class="st1" d="M251.1,110.4c6.8-1.7,14.1-2.2,20.8,0c10.1,2.9,18.7,10.7,22.5,20.5c1.9,4.9,3,10,4,15.1
		c45.2-10.2,90.3-21.3,135.5-31.8c6.6-1.7,14.2,3,15.2,9.8c1,5.1-1.8,10.5-6.2,13.2c-3.1,1.6-6.7,2-10,2.9
		C317.6,167.4,202.3,194.6,87,221.9c-2.3,0.5-4.7,0.9-7,0.3c-6.6-1.3-11.4-8.8-9.2-15.3c1.3-4.7,5.4-8.4,10.1-9.2
		c44.8-10.6,89.6-21.2,134.3-31.7c-1.2-5.2-2.7-10.4-3.1-15.8c-1-12.5,5.3-25.2,15.8-31.9C234.9,113.5,243.2,112.4,251.1,110.4
		 M244.9,137.6c-4.2,1.1-7.7,4.9-7.8,9.4c0,4.5,1.6,8.8,2.5,13.1c11.6-2.6,23.2-5.5,34.8-8.1c-0.9-4-1.6-8.2-3.1-12
		c-2-4.6-7.5-7-12.2-5.7C254.3,135.3,249.6,136.3,244.9,137.6z"/>
	<path class="st0" d="M433.5,160.8c16.3-3.1,33.8,6.7,39.7,22.2c4,10,3.2,21.7-2.2,31c-4.2,7.4-11,13.1-19,16
		c-9.4,3.4-20.2,2.7-28.9-2c-8.6-4.5-15.2-12.6-17.9-22c-2.7-9.4-1.4-19.9,3.7-28.3C414.1,168.9,423.3,162.6,433.5,160.8
		 M436.4,185.8c-4.5,1.3-7.7,5.7-7.7,10.4c-0.2,5.7,4.6,10.9,10.3,11.1c6.9,0.7,13.1-6.4,11.5-13.1
		C449.5,187.8,442.4,183.7,436.4,185.8z"/>
	<path class="st1" d="M337.5,189.8c9.6-1.9,19.9-0.6,28.6,4c12.4,6.4,21.2,19.2,22.6,33.1c0.3,3.3,0.9,6.9-0.9,9.9
		c-2,4-6.2,7.1-10.8,7.2c-4.4,0.3-8.7-2.4-11-6.1c-2.8-4-1.3-9.3-3.5-13.6c-3.3-7.9-12.8-12.4-21-10c-7.3,1.9-12.9,8.9-13.1,16.5
		c0.2,6.4-5,12.5-11.4,13.1c-6.2,0.7-12.1-4.1-13.4-10C302,213.5,317.5,193.6,337.5,189.8z"/>
	<path class="st1" d="M61.5,269c-0.2-7.1,6.4-13.3,13.4-12.8c120.7,0,241.4,0,362.1,0c7-0.5,13.6,5.7,13.4,12.8
		c0.1,12.2,0,24.4,0,36.5c5.7,0,11.5-0.2,17.2,0.8c16.2,2.9,28.7,18.3,28.5,34.7c0.1,6.4,0.3,12.8-0.3,19.1
		c-1.3,11.6-9,22.2-19.4,27.3c-7.9,4.1-17.1,3.8-25.8,3.7c-0.2,22.8,0.1,45.7-0.1,68.5c-0.2,15.7-8,30.9-20.3,40.5
		c-8.8,7.5-20.2,11.3-31.6,11.8H113.5c-21.1-0.4-40.7-14.7-48.3-34.2c-2.6-6.6-3.7-13.7-3.7-20.8c0-22,0-43.9,0-65.9
		c-6,0-12.1,0.3-18-0.9c-10.8-2.3-20.1-10.1-24.6-20.2c-4.2-9.4-3-20-3-30c0.2-13.6,9-26.4,21.5-31.6c7.6-3.4,16.1-2.9,24.1-2.9
		C61.5,293.4,61.4,281.2,61.5,269 M86.4,281.2c0,56.6,0,113.2,0,169.8c0,6.1-0.2,12.4,2.2,18.1c4.2,10.9,15.7,18.2,27.3,17.9
		c91.7,0,183.4,0,275,0c5.7,0,11.6,0,16.9-2.3c10.7-4.3,17.8-15.4,17.7-26.9c0.1-58.9,0-117.8,0-176.7
		C312.5,281.1,199.5,281.2,86.4,281.2 M43.8,333.7c-3.8,3.7-3,9.5-3.1,14.3c0.1,5.1-0.9,11.2,3.2,15.1c4.7,4.6,11.7,2.7,17.6,3.1
		c0-11.9,0-23.8,0-35.8C55.6,330.8,48.4,329,43.8,333.7 M450.5,330.5c0,11.9,0,23.8,0,35.8c4.2-0.1,8.5,0.3,12.6-0.4
		c4.6-0.9,8-5.3,8.1-9.9c0.2-5,0.2-10,0-14.9c0-4.8-3.5-9.3-8.2-10.2C458.9,330.1,454.7,330.6,450.5,330.5z"/>
</g>
</svg>
