<?xml version="1.0" encoding="utf-8"?>
<!-- Generator: Adobe Illustrator 24.3.0, SVG Export Plug-In . SVG Version: 6.00 Build 0)  -->
<svg version="1.1" id="Layer_1" xmlns="http://www.w3.org/2000/svg" xmlns:xlink="http://www.w3.org/1999/xlink" x="0px" y="0px"
	 viewBox="0 0 512 512" style="enable-background:new 0 0 512 512;" xml:space="preserve">
<style type="text/css">
	.st0{fill:#2C2726;}
	.st1{fill:#FF5C2D;}
</style>
<g id="_x23_000000ff">
	<path class="st0" d="M0,13.5C0.9,7.6,5.2,2.2,11.1,0.7c7.5-2.3,16.1,2.5,18.2,10c2.8,8.1-2.9,17.6-11.3,19.1
		c-8.4,2-17.1-4.7-18-13.1V13.5z"/>
	<path class="st1" d="M146.3,1.4c7.4-3.5,17.1,0.7,19.8,8.4c3.2,7.5-1.2,16.9-8.9,19.4c-7.5,3-16.8-1.6-19.2-9.3
		C135.4,12.8,139.3,4.2,146.3,1.4z"/>
	<path class="st0" d="M283.3,1.5c7.4-3.6,17.2,0.5,20,8.2c3.3,7.6-1.3,17.3-9.2,19.7c-7.5,2.8-16.5-1.8-18.9-9.4
		C272.6,12.9,276.5,4.4,283.3,1.5z"/>
	<path class="st0" d="M420.3,1.6c7.4-3.7,17.1,0.2,20.1,7.8c3.4,7.4-0.8,17-8.5,19.7c-7.5,3.2-17-1.4-19.4-9.1
		C409.8,13,413.6,4.6,420.3,1.6z"/>
	<path class="st0" d="M81.4,69.5c7.4-3.2,16.8,0.9,19.5,8.5c3.2,7.4-1.2,16.8-8.8,19.4c-7.5,3.1-16.9-1.5-19.3-9.2
		C70.1,81,74.2,72.2,81.4,69.5z"/>
	<path class="st0" d="M219.1,69.3c7.4-2.9,16.4,1.4,19,8.8c3.1,7.5-1.3,16.9-9,19.4c-7.6,3-16.9-1.8-19.2-9.5
		C207.3,80.6,211.7,71.8,219.1,69.3z"/>
	<path class="st1" d="M355.4,69.6c7.6-3.6,17.4,0.8,20,8.7c3,7.6-1.7,17-9.5,19.2c-7.6,2.8-16.6-2-18.9-9.7
		C344.6,80.8,348.6,72.5,355.4,69.6z"/>
	<path class="st0" d="M491.3,69.4c7.7-3.3,17.4,1.5,19.6,9.4c2.7,7.7-2.3,16.8-10.1,18.9c-7.5,2.4-16.1-2.3-18.4-9.8
		C479.8,80.7,484.1,72.1,491.3,69.4z"/>
	<path class="st0" d="M222.1,137.1c32.2-10.2,67.7-9.9,99.7,1c30.1,10.1,57,29.6,76.2,54.9c18.1,23.7,29.4,52.5,32.1,82.2
		c9.6-4.8,20.2-7.5,30.9-7.4c16,0,31.9,5.9,43.9,16.4c4,3.4,6.2,8.3,7,13.4v4.3c-0.6,3.6-1.9,7.1-4,10
		c-23.8,34.9-47.5,69.8-71.3,104.6c-8,11.5-15.3,23.8-25.8,33.2C390.7,468.9,362.7,479,335,478c-44.3,0-88.7,0-133,0
		c-10.1-0.2-20.2,3.5-27.6,10.4c-6.7,6.3-12.9,13.1-19.6,19.4c-2.6,2.5-6.2,3.6-9.8,4.2H14.4C7.2,511.4,1,505.8,0,498.5v-56.1
		c0.3-6.4,5.4-10.7,9.6-14.8c29-29,58-58,87-87c5.6-5.5,11-11.3,17.1-16.2c-4.4-20.5-4.9-41.8-1.2-62.5
		c4.9-28.1,17.6-54.7,36.2-76.2C168,163.1,193.7,146.1,222.1,137.1 M220.6,169.5c-28.8,11.8-53,34.4-66.9,62.2
		c-12.1,24-16.3,51.8-12.3,78.3c8.3-2.3,16.9-3.6,25.5-3.5c43.6,0,87.2,0,130.9,0c11.9-0.4,23,9.5,23.9,21.4
		c0.7,13.9-3.2,28.1-11.1,39.6c7.4,0,14.8,0.1,22.3,0c14.2-0.3,28-7.8,36.1-19.5c10.3-14.7,20.8-29.2,30.9-44
		c3.9-33.5-6.2-68.3-27.2-94.7c-18.1-23-44.2-39.8-72.8-46.3C273.7,156.9,245.5,159.1,220.6,169.5 M431.2,312.2
		c-13.1,18.2-25.9,36.7-39,55c-13.7,18.5-36.2,30.1-59.2,30.3c-45,0-90,0-135.1,0c-7.8,0.1-14.7-6.7-14.8-14.4
		c-0.4-7.8,6.2-15.1,14-15.4c16.6-0.1,33.3,0,49.9-0.1c11.4-0.2,23.3-2.8,32.5-9.9c6.6-5.1,10.9-12.9,12.1-21.1
		c-41.9,0-83.7,0-125.5,0c-14.6-0.1-29,5.9-39.2,16.3c-22.8,22.8-45.7,45.7-68.5,68.5c-9.4,9.5-19.1,18.8-28.3,28.5
		c-0.1,10.7,0,21.4,0,32c36.2,0,72.4,0.1,108.6,0c4.8-4.9,9.7-9.8,14.6-14.6C165.9,455,183.4,448,201,448c43.4-0.1,86.7,0,130,0
		c6.3,0,12.6,0.2,18.8-0.7c18-2.5,35-11.8,46.7-25.7c4.2-4.9,7.6-10.4,11.2-15.7c23.5-34.6,47.1-69.1,70.7-103.7
		C463,293.6,441.8,298,431.2,312.2z"/>
	<path class="st1" d="M295.1,208.2c7.2-1.8,15.1,2.7,17.4,9.7c2.9,7.5-1.7,16.8-9.4,19.1c-7.7,2.9-16.9-2.1-19-10
		C281.3,219,286.9,209.8,295.1,208.2z"/>
	<path class="st1" d="M339.5,256.6c7.6-2.3,16.3,2.6,18.3,10.2c2.4,7.4-2.2,16.1-9.6,18.4c-7.8,2.9-17.1-2.2-19.1-10.1
		C326.6,267.4,331.8,258.6,339.5,256.6z"/>
</g>
</svg>
